<svg width="101" height="49" viewBox="0 0 101 49" fill="none" xmlns="http://www.w3.org/2000/svg">
<path d="M48.1113 37.1875H51.5572V17.2191H48.1113V37.1875ZM48.1113 13.7818H51.5572V9.6104H48.1113V13.7818Z" fill="white"/>
<path d="M66.304 27.2228C66.304 30.6987 65.1251 34.2522 61.9814 34.2522C59.2006 34.2522 57.5985 31.2395 57.5985 27.2228C57.5985 22.9741 59.0796 20.1547 61.9814 20.1547C64.8227 20.1547 66.304 23.592 66.304 27.2228ZM54.2734 37.1875H57.538V34.4451H57.5985C58.6262 37.0716 60.8932 37.728 63.0093 37.728C67.6338 37.728 69.7499 32.6685 69.7499 27.2999C69.7499 21.4675 67.362 16.6783 62.4348 16.6783C60.6817 16.6783 58.7169 17.8758 57.7799 19.8068H57.7196V9.61011H54.2737V37.1875H54.2734Z" fill="white"/>
<path d="M70.918 37.1875H74.3639V17.2191H70.918V37.1875ZM70.918 13.7818H74.3639V9.6104H70.918V13.7818Z" fill="white"/>
<path d="M91.1246 23.901C90.792 18.9956 87.7086 16.6781 84.0818 16.6781C78.9433 16.6781 76.374 21.3903 76.374 27.4154C76.374 33.2864 79.0643 37.7277 83.9609 37.7277C87.9811 37.7277 90.49 34.8695 91.1248 29.6941H87.6791C87.3465 32.5523 85.9559 34.2516 83.9612 34.2516C80.9684 34.2516 79.8202 30.7369 79.8202 27.4151C79.8202 21.3512 82.3287 20.154 84.1121 20.154C86.0165 20.154 87.4071 21.4671 87.6793 23.9007H91.1246V23.901Z" fill="white"/>
<path d="M91.2422 20.5022H93.8418V32.2824C93.9021 35.6038 94.567 37.3807 98.1642 37.3807C98.9198 37.3807 99.6455 37.2263 100.401 37.149V33.7502C99.9173 33.9046 99.4335 33.9046 98.9501 33.9046C97.4088 33.9046 97.2877 32.9776 97.2877 31.1622V20.5022H100.401V17.219H97.2875V11.2325H93.8418V17.219H91.2422V20.5022Z" fill="white"/>
<path fill-rule="evenodd" clip-rule="evenodd" d="M9.6036 1.33043C9.6036 0.467475 9.82138 -0.172928 10.4534 0.133197C11.3683 0.606461 19.952 6.22964 20.4966 6.59147C20.8451 6.81403 21.4769 7.00903 21.9345 6.73046L33.1765 0.578602C33.3723 0.550449 33.3289 0.856871 33.0893 0.996154C32.8713 1.16329 21.8041 9.93219 20.8892 10.6001C21.2376 10.7113 21.8041 10.2105 22.1309 10.0158C23.4163 9.34749 32.741 4.05831 33.1332 3.78004C33.2419 3.66891 33.4817 3.97503 33.0895 4.22545C32.7192 4.47616 21.9131 12.6325 21.0416 13.4122C21.3902 13.44 21.9131 13.1615 22.153 12.9943C22.4141 12.8275 32.4576 7.37116 33.1767 6.95361C33.3507 6.87004 33.4161 7.3433 33.1547 7.51015C32.4576 7.9277 21.8041 15.7222 21.3902 16.0008C21.2376 16.0843 21.1286 16.279 21.1286 16.3347C21.6733 16.0843 32.6971 10.294 33.2853 10.1547C33.3943 10.1272 33.5033 10.433 33.1767 10.7116C32.8495 10.9623 22.7845 18.061 21.4338 19.0632C21.2376 19.1743 21.1286 19.3693 21.1504 19.5086C21.6949 19.3415 32.6102 13.4955 33.1765 13.245C33.3941 13.1615 33.3941 13.44 33.1983 13.6072C33.0019 13.774 23.5032 20.9563 22.8497 21.346C22.4357 21.5967 21.5643 22.2368 20.4752 21.5685C19.3639 20.8727 11.7605 15.1381 10.8235 14.3587C9.90858 13.5512 9.58203 12.7161 9.58203 11.9924C9.5818 11.2963 9.6036 2.44381 9.6036 1.33043Z" fill="white"/>
<path fill-rule="evenodd" clip-rule="evenodd" d="M12.3272 48.2652C11.7388 48.7106 11.1722 48.7938 11.0852 47.9312C10.9326 46.6782 10.3444 34.3742 10.3006 33.6224C10.2788 33.0934 10.0177 32.119 9.60368 31.7572L0.0394007 22.515C-0.091172 22.2924 0.126604 22.2088 0.34438 22.376C0.584189 22.5428 11.8914 30.4491 12.8061 31.1174C12.6973 30.672 12.4575 30.3934 12.1743 30.1151C11.0632 29.0295 2.58824 21.2069 2.19629 20.9286C2.06571 20.845 2.15268 20.4554 2.5233 20.7337C2.89368 21.0119 13.6558 28.9739 14.6146 29.5307C14.462 29.1128 14.0044 28.6956 13.7648 28.5006C13.525 28.3056 4.85436 20.0378 4.22237 19.4256C4.06976 19.286 4.35294 18.9801 4.59275 19.1748C5.22451 19.7317 15.7907 27.4986 16.1829 27.8047C16.3137 27.9437 16.5101 27.9719 16.5535 27.9437C16.0959 27.4705 6.77143 18.3119 6.37925 17.755C6.29228 17.6436 6.46646 17.3654 6.81504 17.5879C7.03304 17.7551 16.6623 25.4384 18.2312 26.5796C18.4052 26.7189 18.3618 26.6075 18.4488 26.385C18.0568 25.856 8.71054 16.6417 8.25296 16.1406C8.07855 15.9459 8.27476 15.8069 8.47073 15.9459C8.68874 16.0852 18.4488 22.9888 19.0374 23.49C19.4291 23.8242 20.3007 24.4365 20.4097 25.9955C20.5187 27.5543 20.5187 38.8292 20.4533 40.2763C20.3879 41.6961 19.9957 42.5033 19.5163 42.8651C19.0372 43.2267 13.0677 47.6805 12.3272 48.2652Z" fill="white"/>
<path fill-rule="evenodd" clip-rule="evenodd" d="M42.6539 22.014C43.242 22.4594 43.4818 22.9048 42.9588 23.4341C42.1745 24.2135 34.3313 30.811 33.8301 31.2286C33.482 31.5068 32.7626 32.3419 32.7192 32.982L31.3031 48.5156C31.2377 48.7388 31.0633 48.5438 31.0633 48.2098C31.0633 47.8758 30.7367 31.2564 30.7147 29.9202C30.4753 30.2539 30.4971 30.7832 30.4317 31.2286C30.2571 32.982 29.1244 46.2613 29.1244 46.8176C29.1244 47.0126 28.8192 47.1237 28.841 46.5669C28.841 46.0103 28.841 30.0035 28.7538 28.6948C28.5362 29.0569 28.4926 29.7528 28.4706 30.1146C28.4488 30.4764 27.0545 44.1448 26.9675 45.1474C26.9457 45.3981 26.6841 45.3981 26.7064 45.0359C26.7718 44.0615 26.7936 28.3889 26.8154 27.7764C26.8369 27.5814 26.7718 27.331 26.7284 27.3032C26.6192 28.0547 25.0289 42.8925 24.8545 43.5886C24.8109 43.7554 24.5497 43.9504 24.5277 43.4771C24.5277 42.9763 24.8327 28.2218 24.8545 26.1898C24.8545 25.9391 24.6585 25.8001 24.5713 25.7444C24.3969 26.4402 22.9371 41.4448 22.8066 42.1966C22.7629 42.5028 22.5667 42.3638 22.5452 42.0573C22.5452 41.7512 22.4144 27.6374 22.4582 26.7466C22.5016 26.1341 22.5016 24.8536 23.504 23.9628C24.5061 23.0719 32.1967 17.5323 33.199 16.8919C34.2228 16.2797 34.942 16.3351 35.4213 16.6694C35.9003 17.0312 41.8911 21.4574 42.6539 22.014Z" fill="white"/>
</svg>
