<svg width="240" height="86" viewBox="0 0 240 86" fill="none" xmlns="http://www.w3.org/2000/svg">
<ellipse cx="43.9345" cy="43" rx="43.9344" ry="43" transform="rotate(-180 43.9345 43)" fill="white"/>
<path d="M40.475 43.7778C40.475 43.205 40.0008 42.7407 39.4158 42.7407C38.8309 42.7407 38.3567 43.205 38.3567 43.7778V69.9637C38.3567 70.8184 38.5327 71.664 38.8741 72.4522C39.2154 73.2403 39.7151 73.9548 40.3432 74.5555C40.9713 75.1562 41.7156 75.6315 42.5329 75.9553C43.3503 76.279 44.2255 76.4454 45.1088 76.4454C45.992 76.4454 46.8672 76.279 47.6846 75.9553C48.502 75.6315 49.2463 75.1562 49.8743 74.5555C50.5025 73.9548 51.0021 73.2403 51.3434 72.4522C51.6848 71.664 51.8608 70.8184 51.8608 69.9637C51.8608 69.391 51.3866 68.9267 50.8017 68.9267C50.2167 68.9267 49.7425 69.391 49.7425 69.9637C49.7425 70.5391 49.6241 71.1094 49.3932 71.6424C49.1624 72.1754 48.8233 72.6613 48.3942 73.0718C47.965 73.4822 47.4541 73.8091 46.8901 74.0325C46.3261 74.256 45.7207 74.3713 45.1088 74.3713C44.4968 74.3713 43.8915 74.256 43.3274 74.0325C42.7634 73.8091 42.2525 73.4822 41.8233 73.0718C41.3942 72.6613 41.0551 72.1754 40.8243 71.6424C40.5935 71.1094 40.475 70.5391 40.475 69.9637V43.7778Z" fill="#62A3D7"/>
<path d="M6.55737 43.6418L14.7169 37.2194L9.58429 29.093L20.1127 22.5395L21.9552 13.6268L34.8525 11.5296L42.2224 6.41791L52.4876 12.3161L63.016 11.5296L65.2533 19.9181L74.4657 22.0152L73.9393 30.7969L80.3879 33.4183L76.1766 38.1368L81.9672 43.6418" stroke="#BCBEC0" stroke-linecap="round" stroke-linejoin="round"/>
<path d="M14.4263 37.3291L19.9226 43.6418L21.8856 34.8303M14.4263 37.3291L19.9226 22.5995M14.4263 37.3291L21.8856 34.8303M19.9226 22.5995L34.4488 11.5522M19.9226 22.5995L33.7945 21.9419M19.9226 22.5995L21.8856 34.8303M34.4488 11.5522L51.854 12.3413M34.4488 11.5522L47.928 21.9419M34.4488 11.5522L33.7945 21.9419M51.854 12.3413L64.6789 19.9692M51.854 12.3413L58.1355 21.9419M51.854 12.3413L47.928 21.9419M64.6789 19.9692L73.316 31.0164M64.6789 19.9692V33.3836M64.6789 19.9692L58.1355 21.9419M73.316 31.0164L75.4099 38.2497L67.5579 43.6418M73.316 31.0164L67.5579 43.6418M73.316 31.0164L64.6789 33.3836M67.5579 43.6418L64.6789 33.3836M67.5579 43.6418L57.3503 38.2497M64.6789 33.3836L58.1355 21.9419M64.6789 33.3836L57.3503 38.2497M64.6789 33.3836L55.2565 29.3067M58.1355 21.9419H47.928M58.1355 21.9419L55.2565 29.3067M58.1355 21.9419L47.928 27.0709M47.928 21.9419H33.7945M47.928 21.9419V27.0709M47.928 21.9419L37.9822 27.0709M33.7945 21.9419L21.8856 34.8303M33.7945 21.9419L37.9822 27.0709M33.7945 21.9419L33.271 34.0412M21.8856 34.8303L33.271 34.0412M21.8856 34.8303L28.2981 43.6418L33.271 34.0412M57.3503 38.2497L51.0688 43.6418L45.8341 35.3564M57.3503 38.2497L55.2565 29.3067M57.3503 38.2497L45.8341 35.3564M55.2565 29.3067L47.928 27.0709M55.2565 29.3067L45.8341 35.3564M47.928 27.0709H37.9822M47.928 27.0709L45.8341 35.3564M37.9822 27.0709L33.271 34.0412M37.9822 27.0709L45.8341 35.3564M33.271 34.0412L39.16 43.6418L45.8341 35.3564M33.271 34.0412L45.8341 35.3564" stroke="#BCBEC0" stroke-linecap="round" stroke-linejoin="round"/>
<path fill-rule="evenodd" clip-rule="evenodd" d="M80.9725 43C80.8437 38.5869 79.8936 34.2308 78.1658 30.1467C76.3029 25.7429 73.5723 21.7415 70.13 18.371C66.6877 15.0005 62.6012 12.3268 58.1036 10.5027C53.606 8.67861 48.7856 7.73975 43.9174 7.73975C39.0493 7.73975 34.2288 8.67861 29.7313 10.5027C25.2337 12.3268 21.1471 15.0005 17.7048 18.371C14.2626 21.7415 11.532 25.7429 9.66903 30.1467C7.9413 34.2308 6.99119 38.5869 6.86237 43L80.9725 43ZM82.0321 43C81.903 38.4507 80.9253 33.9598 79.1444 29.7498C77.2282 25.2202 74.4196 21.1045 70.879 17.6377C67.3383 14.1709 63.135 11.4208 58.5089 9.54459C53.8828 7.66836 48.9246 6.70268 43.9174 6.70268C38.9102 6.70268 33.952 7.66837 29.326 9.54459C24.6999 11.4208 20.4965 14.1709 16.9559 17.6377C13.4153 21.1045 10.6067 25.2202 8.69051 29.7498C6.90954 33.9598 5.9319 38.4507 5.8028 43C5.793 43.3454 5.78809 43.6911 5.78809 44.0371L82.0468 44.0371C82.0468 43.6911 82.0419 43.3454 82.0321 43Z" fill="#DFDFDF"/>
<path d="M101.995 43.333H104.179V39.469H105.775C107.861 39.469 109.443 38.755 109.443 36.431C109.443 34.079 107.735 33.421 105.677 33.421H101.995V43.333ZM104.179 35.269H105.299C106.139 35.269 107.175 35.409 107.175 36.431C107.175 37.355 106.405 37.621 105.635 37.621H104.179V35.269ZM110.813 43.333H112.997V39.371H114.075L116.147 43.333H118.765L116.245 39.147C117.645 38.895 118.387 37.817 118.387 36.431C118.387 34.121 116.679 33.421 114.649 33.421H110.813V43.333ZM112.997 35.269H114.425C115.223 35.269 116.119 35.423 116.119 36.417C116.119 37.495 115.083 37.523 114.285 37.523H112.997V35.269ZM119.359 38.377C119.359 41.555 121.613 43.585 124.707 43.585C127.801 43.585 130.055 41.555 130.055 38.377C130.055 35.199 127.801 33.169 124.707 33.169C121.613 33.169 119.359 35.199 119.359 38.377ZM121.627 38.377C121.627 36.529 122.845 35.185 124.707 35.185C126.569 35.185 127.787 36.529 127.787 38.377C127.787 40.225 126.569 41.569 124.707 41.569C122.845 41.569 121.627 40.225 121.627 38.377ZM136.664 33.421H134.48V39.777C134.48 40.519 134.466 41.653 133.444 41.653C132.968 41.653 132.52 41.261 132.464 40.785L130.462 41.275C130.784 42.857 131.932 43.585 133.5 43.585C136.188 43.585 136.664 41.849 136.664 40.015V33.421ZM138.624 43.333H145.61V41.317H140.808V39.301H145.106V37.285H140.808V35.437H145.358V33.421H138.624V43.333ZM149.276 43.333H151.46V35.353H154.288V33.421H146.448V35.353H149.276V43.333ZM154.865 38.377C154.865 41.555 157.119 43.585 160.213 43.585C163.307 43.585 165.561 41.555 165.561 38.377C165.561 35.199 163.307 33.169 160.213 33.169C157.119 33.169 154.865 35.199 154.865 38.377ZM157.133 38.377C157.133 36.529 158.351 35.185 160.213 35.185C162.075 35.185 163.293 36.529 163.293 38.377C163.293 40.225 162.075 41.569 160.213 41.569C158.351 41.569 157.133 40.225 157.133 38.377Z" fill="white"/>
<ellipse cx="14.1288" cy="37.4258" rx="1.19154" ry="1.1667" fill="#F7941E"/>
<ellipse cx="21.8075" cy="35.0924" rx="1.19154" ry="1.1667" fill="#F7941E"/>
<ellipse cx="19.6891" cy="23.1661" rx="1.19154" ry="1.1667" fill="#F7941E"/>
<ellipse cx="33.723" cy="22.129" rx="1.19154" ry="1.1667" fill="#F7941E"/>
<ellipse cx="33.4581" cy="34.3146" rx="1.19154" ry="1.1667" fill="#F7941E"/>
<ellipse cx="38.2243" cy="27.3144" rx="1.19154" ry="1.1667" fill="#F7941E"/>
<ellipse cx="34.5172" cy="12.0176" rx="1.19154" ry="1.1667" fill="#F7941E"/>
<ellipse cx="21.8075" cy="14.351" rx="1.19154" ry="1.1667" fill="#F7941E"/>
<ellipse cx="9.36244" cy="29.1292" rx="1.19154" ry="1.1667" fill="#F7941E"/>
<ellipse cx="6.44984" cy="43.3889" rx="1.19154" ry="1.1667" fill="#F7941E"/>
<ellipse cx="19.6891" cy="43.3889" rx="1.19154" ry="1.1667" fill="#F7941E"/>
<ellipse cx="28.1625" cy="43.3889" rx="1.19154" ry="1.1667" fill="#F7941E"/>
<ellipse cx="39.4033" cy="43.5063" rx="1.31148" ry="1.28413" fill="#F7941E"/>
<ellipse cx="51.4638" cy="43.3889" rx="1.19154" ry="1.1667" fill="#F7941E"/>
<ellipse cx="68.1452" cy="43.3889" rx="1.19154" ry="1.1667" fill="#F7941E"/>
<ellipse cx="81.9142" cy="43.3889" rx="1.19154" ry="1.1667" fill="#F7941E"/>
<ellipse cx="80.0607" cy="33.796" rx="1.19155" ry="1.1667" fill="#F7941E"/>
<ellipse cx="74.6201" cy="22.765" rx="1.31147" ry="1.28413" fill="#F7941E"/>
<ellipse cx="62.9694" cy="12.1351" rx="1.31148" ry="1.28414" fill="#F7941E"/>
<ellipse cx="41.6666" cy="6.8323" rx="1.19154" ry="1.1667" fill="#F7941E"/>
<ellipse cx="51.9933" cy="12.7954" rx="1.19155" ry="1.1667" fill="#F7941E"/>
<ellipse cx="48.0214" cy="22.129" rx="1.19154" ry="1.1667" fill="#F7941E"/>
<ellipse cx="48.1413" cy="27.4318" rx="1.31147" ry="1.28413" fill="#F7941E"/>
<ellipse cx="46.0231" cy="35.7283" rx="1.31147" ry="1.28413" fill="#F7941E"/>
<ellipse cx="57.6738" cy="38.5803" rx="1.31148" ry="1.28413" fill="#F7941E"/>
<ellipse cx="55.4354" cy="29.6477" rx="1.19154" ry="1.1667" fill="#F7941E"/>
<ellipse cx="58.348" cy="22.129" rx="1.19154" ry="1.1667" fill="#F7941E"/>
<ellipse cx="65.3525" cy="20.4316" rx="1.31147" ry="1.28413" fill="#F7941E"/>
<ellipse cx="65.2326" cy="33.5368" rx="1.19155" ry="1.1667" fill="#F7941E"/>
<ellipse cx="73.7057" cy="31.2034" rx="1.19154" ry="1.1667" fill="#F7941E"/>
<ellipse cx="75.8241" cy="38.2036" rx="1.19154" ry="1.1667" fill="#F7941E"/>
<path d="M219.556 56.7068C217.453 54.528 214.882 53.4391 211.849 53.4391C208.688 53.4391 206.023 54.5385 203.855 56.7338C201.689 58.9322 200.604 61.5653 200.604 64.6366C200.604 67.658 201.694 70.2232 203.874 72.3326C206.054 74.4432 208.688 75.4977 211.772 75.4977C214.016 75.4977 216.113 74.8549 218.065 73.5689C219.569 72.5765 220.684 71.4103 221.406 70.0697C221.409 70.0643 221.409 70.0599 221.412 70.0545C221.48 69.9351 221.524 69.7998 221.524 69.6533C221.524 69.2052 221.152 68.8421 220.696 68.8421C220.694 68.8421 220.694 68.8421 220.694 68.8421C220.694 68.8384 220.694 68.8344 220.696 68.8313L216.709 68.8698C216.707 68.8705 216.704 68.8735 216.702 68.8745C216.468 68.8772 216.261 68.9737 216.11 69.1266C216.072 69.1448 216.036 69.162 216.018 69.1799C215.57 69.5865 215.001 69.9195 214.316 70.1804C213.461 70.5047 212.55 70.666 211.581 70.666C210.306 70.666 209.154 70.3046 208.12 69.5797C207.088 68.8573 206.378 67.8828 205.996 66.6596H221.565C221.62 66.6704 221.674 66.6754 221.733 66.6754C222.183 66.6754 222.55 66.3225 222.56 65.8801C222.561 65.8757 222.57 65.8686 222.57 65.8642C222.622 65.5663 222.615 65.571 222.654 65.2589C222.692 64.9471 222.711 64.6312 222.711 64.3066C222.712 61.4191 221.659 58.8847 219.556 56.7068ZM205.921 62.2398C206.277 61.103 206.992 60.1818 208.062 59.4762C209.134 58.773 210.281 58.3832 211.505 58.3083C211.556 58.3083 211.607 58.3083 211.657 58.3083C211.707 58.3083 211.759 58.3083 211.811 58.3083C213.111 58.3083 214.296 58.6582 215.367 59.3561C216.437 60.0549 217.178 61.0169 217.586 62.2398H205.921Z" fill="#1C67A3"/>
<path d="M237.972 64.0566C236.62 63.2454 235.092 62.5911 233.382 62.0903C233.229 62.0411 233.057 61.9915 232.866 61.9405C232.676 61.8912 232.479 61.8423 232.274 61.791C231.84 61.6412 231.433 61.4354 231.049 61.1728C230.668 60.9106 230.489 60.5432 230.516 60.0681V60.0313C230.516 59.4576 230.705 59.0267 231.087 58.7399C231.471 58.4527 231.941 58.309 232.502 58.309C232.986 58.309 233.414 58.4345 233.784 58.6839C234.004 58.8317 234.171 59.019 234.287 59.2461C234.297 59.266 234.317 59.2852 234.343 59.3065C234.48 59.5727 234.756 59.7583 235.08 59.761C235.08 59.7634 235.086 59.7664 235.086 59.7687H238.538C238.538 59.766 238.541 59.764 238.541 59.761C238.997 59.7583 239.367 59.3962 239.367 58.9495C239.367 58.8799 239.356 58.8135 239.34 58.75C239.116 57.4232 238.445 56.2678 237.322 55.2842C235.92 54.0549 234.34 53.4404 232.581 53.4404C230.718 53.4404 229.06 54.0286 227.608 55.2059C226.154 56.3815 225.427 57.9331 225.427 59.8619C225.427 60.7362 225.599 61.5383 225.944 62.2644C226.288 62.9889 226.804 63.6409 227.493 64.2162C227.722 64.4163 227.947 64.586 228.163 64.723C228.378 64.8607 228.588 64.9798 228.792 65.0797C229.047 65.2042 229.303 65.3176 229.558 65.4171C229.813 65.517 230.081 65.6172 230.362 65.7185C230.516 65.7677 230.669 65.8173 230.821 65.8693C230.973 65.9186 231.139 65.9678 231.318 66.0184C231.521 66.094 231.731 66.1625 231.949 66.2249C232.165 66.287 232.388 66.368 232.618 66.4682C233.204 66.6683 233.732 66.939 234.205 67.2764C234.676 67.6145 234.913 68.0954 234.913 68.7196C234.913 69.3695 234.671 69.8632 234.186 70.1996C233.701 70.5364 233.153 70.7054 232.541 70.7054C231.801 70.7054 231.201 70.48 230.744 70.0302C230.429 69.7218 230.193 69.3577 230.035 68.9417C229.942 68.5931 229.62 68.3363 229.236 68.3363C229.201 68.3363 229.17 68.342 229.136 68.3454H225.661C225.628 68.3417 225.596 68.3363 225.562 68.3363C225.104 68.3363 224.732 68.699 224.732 69.1465C224.732 69.1937 224.739 69.2393 224.746 69.2831C224.746 69.2852 224.743 69.2869 224.745 69.2896C224.746 69.2956 224.748 69.3027 224.749 69.3108V69.3115C224.994 70.9953 225.721 72.398 226.939 73.5136C228.379 74.8367 230.184 75.4987 232.35 75.4987C232.554 75.4987 232.759 75.4866 232.962 75.4613C233.167 75.4353 233.371 75.411 233.575 75.3867C234.365 75.2372 235.136 74.9869 235.889 74.6383C236.64 74.2877 237.298 73.8632 237.859 73.3645C238.57 72.6899 239.108 71.9354 239.464 71.0986C239.822 70.2614 240 69.3564 240 68.3825C240 66.31 239.325 64.8678 237.972 64.0566Z" fill="#1C67A3"/>
<path d="M199.879 73.5112L199.881 73.5075L192.077 64.2246L198.678 55.4644C198.829 55.3169 198.922 55.1148 198.922 54.8901C198.922 54.4423 198.552 54.0795 198.095 54.0789L198.092 54.0752H194.156L194.148 54.0789C193.847 54.0819 193.585 54.2435 193.442 54.4808L193.438 54.4835L186.914 63.8494V47.9588L186.899 47.9473C186.892 47.5046 186.527 47.1482 186.073 47.1482H182.655C182.197 47.1482 181.826 47.5103 181.826 47.9588V74.0113C181.826 74.4594 182.197 74.8232 182.655 74.8232H186.073C186.527 74.8232 186.893 74.4662 186.899 74.0248L186.914 74.0113V65.1239L193.885 74.4284C194.029 74.6639 194.292 74.8232 194.594 74.8232H199.232C199.69 74.8232 200.061 74.4594 200.061 74.0113C200.061 73.823 199.992 73.6489 199.879 73.5112Z" fill="#1C67A3"/>
<path d="M177.21 54.0752H174.202C173.743 54.0752 173.373 54.4382 173.373 54.888C173.373 54.8884 173.373 54.8901 173.373 54.8918V57.0341C172.533 55.8615 171.5 54.969 170.276 54.3569C169.051 53.7462 167.712 53.4391 166.26 53.4391C164.704 53.4391 163.271 53.7323 161.956 54.3188C160.642 54.9056 159.451 55.8116 158.38 57.0338C157.41 58.1075 156.717 59.2562 156.296 60.4801C155.877 61.7029 155.665 63.0392 155.665 64.4871C155.665 65.9347 155.894 67.3074 156.354 68.6066C156.812 69.905 157.462 71.054 158.305 72.0515C159.222 73.1259 160.344 73.9678 161.67 74.5792C162.997 75.191 164.474 75.4974 166.106 75.4974C166.335 75.4974 166.571 75.4852 166.814 75.4599C167.056 75.4339 167.292 75.4096 167.521 75.3854C168.643 75.1849 169.727 74.7982 170.773 74.2242C171.818 73.6496 172.659 72.9133 173.298 72.014H173.374V74.0076C173.374 74.0086 173.374 74.0113 173.374 74.0113C173.374 74.4594 173.744 74.8232 174.203 74.8232H177.211C177.67 74.8232 178.04 74.4594 178.04 74.0113V54.888C178.04 54.4386 177.67 54.0752 177.21 54.0752ZM173.222 64.45C173.222 66.2222 172.647 67.7073 171.5 68.9066C170.352 70.1048 168.86 70.6923 167.025 70.666C165.316 70.6923 163.843 70.1234 162.607 68.9626C161.37 67.8008 160.752 66.3727 160.752 64.6737C160.752 62.8529 161.345 61.3287 162.531 60.1062C163.716 58.8826 165.24 58.283 167.101 58.3083C168.912 58.283 170.385 58.8637 171.518 60.0492C172.653 61.2366 173.222 62.6903 173.222 64.4119V64.45Z" fill="#1C67A3"/>
<path d="M129.293 49.4135C129.293 50.6532 128.266 51.6584 126.999 51.6584C125.733 51.6584 124.705 50.6532 124.705 49.4135C124.705 48.173 125.733 47.1668 126.999 47.1668C128.266 47.1668 129.293 48.173 129.293 49.4135Z" fill="#1C67A3"/>
<path d="M152.222 60.2179C152.07 58.9441 151.586 57.7458 150.77 56.6218C150.693 56.498 150.61 56.3917 150.521 56.3046C150.431 56.2169 150.335 56.1238 150.233 56.0229C149.546 55.2991 148.723 54.7129 147.767 54.2635C146.812 53.8136 145.823 53.5518 144.803 53.4772C144.7 53.4519 144.599 53.4398 144.497 53.4398C144.394 53.4398 144.292 53.4398 144.192 53.4398C144.115 53.4398 144.038 53.4398 143.961 53.4398C143.884 53.4398 143.808 53.4398 143.731 53.4398C142.685 53.516 141.686 53.763 140.729 54.1892C139.774 54.6134 139.002 55.2123 138.414 55.9861H138.339V54.8901L138.33 54.8813C138.324 54.4376 137.956 54.0795 137.504 54.0789L137.501 54.0758H134.463C134.005 54.0758 133.635 54.4389 133.635 54.8887V74.012L133.635 74.013C133.636 74.4588 134.005 74.8198 134.461 74.8212L134.463 74.8242H137.87C138.321 74.8242 138.686 74.4719 138.697 74.0333L138.721 74.0117V65.4623C138.721 65.4124 138.721 65.356 138.721 65.2929C138.721 65.2305 138.721 65.1617 138.721 65.0881C138.721 64.7868 138.721 64.4753 138.721 64.1511C138.721 63.8264 138.734 63.5018 138.76 63.1769C138.785 62.6282 138.861 62.0853 138.99 61.5494C139.116 61.0119 139.308 60.5439 139.563 60.1447C139.869 59.6446 140.302 59.24 140.864 58.9268C141.423 58.6151 141.996 58.4217 142.584 58.3468C142.685 58.3215 142.782 58.3093 142.872 58.3093C142.96 58.3093 143.042 58.3093 143.119 58.3093C143.171 58.3093 143.215 58.3093 143.254 58.3093C143.291 58.3093 143.323 58.3093 143.349 58.3093C143.961 58.3589 144.554 58.5344 145.128 58.8341C145.701 59.1334 146.154 59.5325 146.485 60.032C146.741 60.4568 146.931 60.9252 147.06 61.4364C147.186 61.9486 147.276 62.4791 147.327 63.0284C147.353 63.3787 147.366 63.7272 147.366 64.0765C147.366 64.4264 147.366 64.7497 147.366 65.05V74.0123L147.378 74.0228C147.385 74.4679 147.753 74.8249 148.206 74.8249H151.623L151.625 74.8239C152.083 74.8212 152.451 74.4611 152.453 74.014V74.013V64.1136C152.453 62.7898 152.376 61.4904 152.222 60.2179Z" fill="#1C67A3"/>
<path d="M128.714 54.0751H125.285C124.826 54.0751 124.455 54.4382 124.455 54.888V74.0113C124.455 74.4594 124.826 74.8232 125.285 74.8232H128.687L128.689 74.8202C128.698 74.8222 128.706 74.8232 128.714 74.8232C129.172 74.8232 129.543 74.4594 129.543 74.0113V54.888C129.543 54.4386 129.172 54.0751 128.714 54.0751Z" fill="#1C67A3"/>
<path d="M120.197 51.7863C119.543 50.5675 118.637 49.5751 117.481 48.8125C116.374 48.0732 115.236 47.648 114.066 47.5387C112.896 47.4273 111.683 47.372 110.425 47.372C110.35 47.372 110.267 47.372 110.18 47.372C110.091 47.372 110.01 47.3598 109.935 47.3352H104.269C103.773 47.3352 103.37 47.729 103.37 48.2162V73.7076L103.374 73.712C103.374 73.7272 103.37 73.7404 103.37 73.7552C103.37 74.2408 103.773 74.6359 104.269 74.6359H107.659C108.156 74.6359 108.558 74.2408 108.558 73.7552C108.558 73.6924 108.551 73.6321 108.539 73.5744V64.3286H109.558C109.658 64.3286 109.758 64.3286 109.859 64.3286C109.959 64.3286 110.06 64.3286 110.161 64.3286C110.538 64.3286 110.922 64.3286 111.312 64.3286C111.701 64.3286 112.097 64.3161 112.5 64.2918C113.456 64.2425 114.398 64.1069 115.329 63.8855C116.26 63.6638 117.103 63.2569 117.857 62.6667C118.964 61.8042 119.794 60.7642 120.349 59.545C120.901 58.3255 121.178 57.0389 121.178 55.6854C121.178 54.305 120.851 53.0065 120.197 51.7863ZM115.311 57.845C114.845 58.4484 114.236 58.8729 113.481 59.1195C113.154 59.2177 112.801 59.2856 112.426 59.3233C112.048 59.3601 111.671 59.3908 111.293 59.4155C111.091 59.4155 110.883 59.4155 110.67 59.4155C110.456 59.4155 110.249 59.4155 110.047 59.4155C109.947 59.4155 109.853 59.4155 109.765 59.4155C109.676 59.4155 109.582 59.4033 109.483 59.3783H108.539V52.2851H109.483C109.582 52.2851 109.683 52.2851 109.784 52.2851C109.884 52.2851 109.985 52.2851 110.086 52.2851C110.286 52.2851 110.5 52.2851 110.727 52.2851C110.954 52.2851 111.179 52.2851 111.406 52.2851C111.758 52.2851 112.097 52.3036 112.426 52.3411C112.752 52.3775 113.053 52.4332 113.33 52.5074C114.109 52.7038 114.751 53.0865 115.255 53.6517C115.757 54.2193 116.009 54.9215 116.009 55.758C116.009 56.5469 115.777 57.2424 115.311 57.845Z" fill="#1C67A3"/>
</svg>
