<svg width="405" height="321" viewBox="0 0 405 321" fill="none" xmlns="http://www.w3.org/2000/svg">
<ellipse cx="261.274" cy="280.208" rx="143.726" ry="40.7922" fill="#BAD4EB"/>
<ellipse cx="103.443" cy="280.97" rx="102.552" ry="27.8302" fill="#BAD4EB"/>
<path d="M252.125 296.982L239.544 259.621L326.084 252.759L356.583 296.982C345.527 295.966 319.393 298.5 303 298.5C288.348 298.5 263.689 295.457 252.125 296.982Z" fill="#F7941E"/>
<path d="M256.7 290.501L244.526 259.897L321.891 253.521L347.434 290.501C339.655 289.783 314.534 292 303 292C292.691 292 264.836 289.423 256.7 290.501Z" fill="#FFBF72"/>
<path d="M96.9622 208.154C98.7921 203.884 108.908 183.755 113.737 174.224C101.918 174.224 87.8124 170.412 86.2875 170.031C84.7625 169.65 84.7625 172.318 84.3813 173.081C84.0001 173.843 80.1878 177.274 77.1378 179.562C74.0879 181.849 71.0381 180.324 66.4632 175.368C61.8884 170.412 53.5013 157.069 50.4514 150.969C47.4016 144.869 45.8766 138.77 48.164 137.626C50.4514 136.482 56.17 141.057 61.5073 143.726C65.7771 145.86 74.9776 148.682 79.0441 149.825C78.7899 150.461 78.6628 151.884 80.1878 152.494C81.7127 153.104 87.1771 153.511 89.7187 153.638C101.918 154.4 123.267 152.875 130.892 152.494C138.517 152.113 159.993 150.334 177.403 149.063V176.131H163.678H132.036C133.434 178.037 136.916 182.688 139.66 186.043C142.405 189.398 157.579 212.094 164.822 223.022V278.683C163.805 278.302 159.942 276.395 152.622 271.821C143.473 266.102 136.992 257.715 129.748 247.04C123.954 238.501 121.488 221.37 120.98 213.873C120.472 214.762 119.226 216.923 118.311 218.448C117.168 220.354 111.83 228.36 109.162 231.41C106.493 234.46 98.4871 255.809 96.9621 260.002C95.4372 264.196 96.1997 267.627 97.7246 268.389C99.2495 269.152 98.4871 274.108 98.4871 275.633C98.4871 277.158 98.4871 282.114 92.0061 282.114C85.5251 282.114 74.4693 279.827 62.6511 276.395C50.8328 272.964 55.0263 269.914 62.6511 267.627C70.2758 265.34 74.0881 263.052 77.9005 261.146C81.7128 259.24 82.094 255.046 85.5252 241.703C88.9563 228.36 94.6748 213.492 96.9622 208.154Z" fill="#123A5C"/>
<path d="M228.488 236.366L207.52 184.137L139.279 192.143L158.341 246.659L228.488 236.366Z" fill="#E6E4E4"/>
<path d="M156.816 247.04L138.135 195.574L139.279 192.143L158.341 246.278L156.816 247.04Z" fill="#B0B0B0"/>
<path d="M158.247 216.252L151.742 199.564C151.029 197.737 152.234 195.728 154.181 195.496L199.177 190.123C200.505 189.964 201.778 190.705 202.297 191.938L209.046 207.967C209.814 209.789 208.638 211.843 206.678 212.104L161.439 218.136C160.068 218.319 158.75 217.541 158.247 216.252Z" fill="#B0B0B0"/>
<path d="M200.277 187.186L148.81 192.905V190.999L139.279 192.142L148.81 138.007L220.101 134.576L207.52 184.137L200.277 184.899V187.186Z" fill="#B0B0B0"/>
<path d="M143.091 188.711L151.479 140.295L217.051 137.245L205.233 181.468L143.091 188.711Z" fill="white"/>
<path d="M161.311 150.875L162.207 146.756C162.4 145.869 163.166 145.223 164.074 145.183L203.215 143.466C204.581 143.406 205.603 144.705 205.224 146.019L204.104 149.902C203.867 150.723 203.135 151.303 202.282 151.346L163.365 153.297C162.05 153.363 161.031 152.162 161.311 150.875Z" fill="#89AEC2"/>
<path d="M158.629 161.111L158.938 159.718C159.036 159.279 159.414 158.959 159.863 158.936L201.977 156.757C202.648 156.723 203.162 157.347 202.999 157.999L202.742 159.026C202.636 159.45 202.268 159.755 201.832 159.782L159.665 162.326C159.002 162.366 158.484 161.76 158.629 161.111Z" fill="#89AEC2"/>
<path d="M155.305 176.273L155.483 175.649C155.597 175.25 155.945 174.963 156.359 174.928L198.5 171.295C199.184 171.236 199.722 171.868 199.556 172.534L199.308 173.526C199.203 173.943 198.844 174.247 198.415 174.28L156.344 177.544C155.649 177.598 155.113 176.943 155.305 176.273Z" fill="#89AEC2"/>
<path d="M156.83 169.029L157.008 168.406C157.122 168.007 157.47 167.72 157.884 167.684L200.025 164.051C200.709 163.992 201.247 164.624 201.081 165.29L200.833 166.282C200.728 166.7 200.369 167.003 199.94 167.037L157.869 170.301C157.174 170.355 156.638 169.699 156.83 169.029Z" fill="#89AEC2"/>
<rect x="231.157" y="181.064" width="173.843" height="6.09976" fill="#BAD4EB"/>
<rect x="231.157" y="114.729" width="173.843" height="6.09976" fill="#BAD4EB"/>
<rect x="231.157" y="43.0571" width="173.843" height="6.09976" fill="#BAD4EB"/>
<rect x="326.466" y="138.366" width="12.1995" height="43.4608" fill="#BAD4EB"/>
<rect x="344.002" y="138.366" width="12.1995" height="43.4608" fill="#BAD4EB"/>
<rect x="355.439" y="143.646" width="12.1995" height="43.4608" transform="rotate(-27.5307 355.439 143.646)" fill="#BAD4EB"/>
<rect x="326.466" y="145.228" width="12.1995" height="6.09976" fill="#80AACF"/>
<rect x="344.002" y="145.228" width="12.1995" height="6.09976" fill="#80AACF"/>
<rect x="358.611" y="149.731" width="12.1995" height="6.09976" transform="rotate(-27.5307 358.611 149.731)" fill="#80AACF"/>
<rect x="326.466" y="168.102" width="12.1995" height="6.09976" fill="#80AACF"/>
<rect x="344.002" y="168.102" width="12.1995" height="6.09976" fill="#80AACF"/>
<rect x="369.184" y="170.015" width="12.1995" height="6.09976" transform="rotate(-27.5307 369.184 170.015)" fill="#80AACF"/>
<rect x="244.881" y="72.031" width="12.1995" height="43.4608" fill="#BAD4EB"/>
<rect x="262.418" y="72.031" width="12.1995" height="43.4608" fill="#BAD4EB"/>
<rect x="273.855" y="77.3111" width="12.1995" height="43.4608" transform="rotate(-27.5307 273.855 77.3111)" fill="#BAD4EB"/>
<rect x="244.881" y="78.8932" width="12.1995" height="6.09976" fill="#80AACF"/>
<rect x="262.418" y="78.8932" width="12.1995" height="6.09976" fill="#80AACF"/>
<rect x="277.027" y="83.3962" width="12.1995" height="6.09976" transform="rotate(-27.5307 277.027 83.3962)" fill="#80AACF"/>
<rect x="244.881" y="101.767" width="12.1995" height="6.09976" fill="#80AACF"/>
<rect x="262.418" y="101.767" width="12.1995" height="6.09976" fill="#80AACF"/>
<rect x="287.6" y="103.68" width="12.1995" height="6.09976" transform="rotate(-27.5307 287.6 103.68)" fill="#80AACF"/>
<rect x="326.466" y="0.358765" width="12.1995" height="43.4608" fill="#BAD4EB"/>
<rect x="344.002" y="0.358765" width="12.1995" height="43.4608" fill="#BAD4EB"/>
<rect x="355.439" y="5.63889" width="12.1995" height="43.4608" transform="rotate(-27.5307 355.439 5.63889)" fill="#BAD4EB"/>
<rect x="326.466" y="7.22098" width="12.1995" height="6.09976" fill="#80AACF"/>
<rect x="344.002" y="7.22098" width="12.1995" height="6.09976" fill="#80AACF"/>
<rect x="358.611" y="11.7241" width="12.1995" height="6.09976" transform="rotate(-27.5307 358.611 11.7241)" fill="#80AACF"/>
<rect x="326.466" y="30.0951" width="12.1995" height="6.09976" fill="#80AACF"/>
<rect x="344.002" y="30.0951" width="12.1995" height="6.09976" fill="#80AACF"/>
<rect x="369.184" y="32.008" width="12.1995" height="6.09976" transform="rotate(-27.5307 369.184 32.008)" fill="#80AACF"/>
<rect x="244.881" y="138.366" width="44.2233" height="43.4608" fill="#BAD4EB"/>
<path d="M254.031 169.246V147.134H280.336V173.44L271.568 158.19L266.993 165.434L262.037 156.665L254.031 169.246Z" fill="#80AACF"/>
<circle cx="275.761" cy="152.472" r="3.43112" fill="#BAD4EB"/>
<path d="M301.5 284C288.5 280.5 253.333 292.167 250.5 292.5L234.5 249H325L347.5 284C340.5 284 339.03 294.104 301.5 284Z" fill="#F7941E" fill-opacity="0.5"/>
<rect x="342.477" y="72.031" width="44.2233" height="43.4608" fill="#BAD4EB"/>
<path d="M351.627 102.911V80.7994H377.932V107.105L369.164 91.8552L364.589 99.0987L359.633 90.3303L351.627 102.911Z" fill="#80AACF"/>
<circle cx="373.357" cy="86.1367" r="3.43112" fill="#BAD4EB"/>
<rect x="244.881" y="0.358795" width="44.2233" height="43.4608" fill="#BAD4EB"/>
<path d="M254.031 31.2389V9.12723H280.336V35.4325L271.568 20.183L266.993 27.4265L262.037 18.6581L254.031 31.2389Z" fill="#80AACF"/>
<circle cx="275.761" cy="14.4645" r="3.43112" fill="#BAD4EB"/>
<path d="M185.027 217.685C185.942 218.905 184.646 225.31 183.884 228.36C178.699 228.665 173.59 228.995 171.684 229.122C171.303 227.852 170.235 223.709 169.015 217.304C167.49 209.298 170.54 205.104 173.209 204.342C175.344 203.732 176.894 206.248 177.403 207.392C177.657 207.392 178.47 207.239 179.69 208.154C180.91 209.069 182.232 214.635 182.74 217.304C183.121 216.923 184.112 216.465 185.027 217.685Z" fill="#974031"/>
<path d="M208.283 230.647L215.526 225.691C214.764 224.166 212.857 220.506 211.333 218.067C209.426 215.017 200.658 203.961 196.846 204.342C193.033 204.723 193.033 207.773 193.414 210.442C193.719 212.577 197.862 217.431 199.895 219.591C199.26 219.591 198.066 219.896 198.371 221.116C198.676 222.336 205.106 227.979 208.283 230.647Z" fill="#974031"/>
<path d="M282.623 257.334L274.999 262.29L255.937 241.703L274.236 240.178C274.109 239.289 273.931 236.671 274.236 233.316C274.617 229.122 277.667 224.166 280.717 221.116C283.767 218.066 288.723 213.492 300.16 213.492C311.597 213.492 315.028 221.498 315.028 241.703C315.028 261.909 295.967 261.527 292.536 261.527C289.791 261.527 284.784 258.732 282.623 257.334Z" fill="#974031"/>
<path d="M258.987 241.703L277.667 262.671C280.107 275.785 267.755 280.335 261.274 280.97C261.147 281.987 260.512 284.401 258.987 285.926C257.081 287.833 254.412 288.214 244.881 289.739C235.35 291.264 201.802 289.357 188.84 288.214C178.47 287.299 175.369 284.02 175.115 282.495C174.48 282.495 171.989 282.19 167.109 280.97C161.009 279.445 158.341 271.821 157.197 265.721C156.282 260.841 157.578 250.726 158.341 246.278L170.159 244.372V229.504C171.557 228.995 175.039 227.979 177.784 227.979C180.529 227.979 184.265 228.487 185.79 228.741L188.077 241.703C189.094 241.703 192.347 241.474 197.227 240.559C202.107 239.644 208.918 238.907 211.714 238.653L206.376 232.172L216.67 224.929L229.25 233.697C232.046 233.189 238.781 232.02 243.356 231.41C249.075 230.647 257.462 233.316 265.849 234.46C272.559 235.375 274.49 238.907 274.617 240.559L258.987 241.703Z" fill="#2B88D6"/>
<path d="M193.796 267.627L190.365 247.04L197.989 264.958L234.588 266.102L193.796 267.627Z" fill="#2465A2"/>
<path d="M287.961 220.354C287.046 217.914 294.442 216.542 298.254 216.16C299.017 213.111 306.641 209.298 308.548 210.823C310.454 212.348 310.454 214.254 313.885 212.729C317.19 211.26 317.316 215.398 320.366 217.304C323.416 219.21 323.034 216.16 326.466 216.542C329.897 216.923 331.422 221.116 332.184 224.548C332.947 227.979 335.234 228.36 339.046 229.885C342.096 231.105 340.317 240.051 339.046 244.372C341.334 244.245 346.747 244.829 350.102 248.184C354.296 252.378 353.152 265.34 343.621 270.296C335.996 274.261 329.261 269.66 326.847 266.865C326.72 267.5 325.856 268.847 324.941 269.152C323.797 269.533 322.653 268.39 321.128 268.771C319.603 269.152 318.46 271.821 315.029 271.439C311.597 271.058 312.741 269.152 309.691 269.152C306.641 269.152 303.973 272.583 299.017 271.439C294.061 270.296 294.823 266.865 294.061 264.196C293.298 261.527 286.436 259.621 283.386 253.14C280.336 246.659 282.242 247.803 283.386 241.322C284.53 234.841 282.242 238.272 282.242 232.935C282.242 227.597 287.198 226.835 289.867 225.31C292.536 223.785 289.105 223.404 287.961 220.354Z" fill="#250E16"/>
<path d="M329.5 253C331.514 248.57 336.167 245.333 339 244.5C324.6 246.1 325 259.833 327 266.5C327.5 264 327 258.5 329.5 253Z" fill="#367F9E"/>
</svg>
