<svg width="25" height="25" viewBox="0 0 25 25" fill="none" xmlns="http://www.w3.org/2000/svg">
<path d="M23.6719 20.7656C24.0938 21.2344 24.0938 21.9375 23.625 22.3594L22.3125 23.6719C21.8906 24.1406 21.1875 24.1406 20.7188 23.6719L16.0781 19.0312C15.8438 18.7969 15.75 18.5156 15.75 18.2344V17.4375C14.0625 18.75 12 19.5 9.75 19.5C4.35938 19.5 0 15.1406 0 9.75C0 4.40625 4.35938 0 9.75 0C15.0938 0 19.5 4.40625 19.5 9.75C19.5 12.0469 18.7031 14.1094 17.4375 15.75H18.1875C18.4688 15.75 18.75 15.8906 18.9844 16.0781L23.6719 20.7656ZM9.75 15.75C13.0312 15.75 15.75 13.0781 15.75 9.75C15.75 6.46875 13.0312 3.75 9.75 3.75C6.42188 3.75 3.75 6.46875 3.75 9.75C3.75 13.0781 6.42188 15.75 9.75 15.75Z" fill="white"/>
</svg>
