<svg width="18" height="24" viewBox="0 0 18 24" fill="none" xmlns="http://www.w3.org/2000/svg">
<path d="M9 16.5C6.46875 16.5 4.5 14.5312 4.5 12V4.5C4.5 2.01562 6.46875 0 9 0C11.4844 0 13.5 2.01562 13.5 4.5V12C13.5 14.5312 11.4844 16.5 9 16.5ZM16.5 9C16.875 9 17.25 9.375 17.25 9.75V12C17.25 16.1719 14.1094 19.6406 10.125 20.2031V21.75H12.75C13.125 21.75 13.5 22.125 13.5 22.5V23.25C13.5 23.6719 13.125 24 12.75 24H5.25C4.82812 24 4.5 23.6719 4.5 23.25V22.5C4.5 22.125 4.82812 21.75 5.25 21.75H7.875V20.1562C3.70312 19.5938 0.75 15.8438 0.75 11.6719V9.75C0.75 9.375 1.07812 9 1.5 9H2.25C2.625 9 3 9.375 3 9.75V11.7656C3 14.9062 5.25 17.6719 8.39062 18C11.9531 18.3281 15 15.5156 15 12V9.75C15 9.375 15.3281 9 15.75 9H16.5Z" fill="white"/>
</svg>
