<svg width="161" height="78" viewBox="0 0 161 78" fill="none" xmlns="http://www.w3.org/2000/svg">
<path d="M34.7279 0.342285H3.37871C1.64311 0.342285 0.178711 1.75593 0.178711 3.55017V30.1375C0.178711 31.8774 1.58888 33.3454 3.37871 33.3454H11.894V44.9808H48.7753C50.5109 44.9808 51.9753 43.5672 51.9753 41.7729V17.6322C51.9211 8.06296 44.2194 0.342285 34.7279 0.342285ZM33.3719 17.9041C33.3719 20.6226 31.1482 22.8518 28.4363 22.8518H12.816V15.0768C12.816 13.6088 14.0092 12.3583 15.5279 12.3583H28.4363C31.1482 12.3583 33.3719 14.5875 33.3719 17.306V17.9041Z" fill="#53BAAC"/>
<path d="M54.3623 33.1823H16.6131C14.8775 33.1823 13.4131 34.596 13.4131 36.3902V44.3827H3.325C1.5894 44.3827 0.125 45.7964 0.125 47.5906V73.7974C0.125 75.5372 1.53517 77.0053 3.325 77.0053H40.3148C49.8064 77.0053 57.5081 69.2846 57.5081 59.7697V36.4446C57.5623 34.6503 56.1521 33.1823 54.3623 33.1823ZM37.8742 60.5309C37.8742 63.2494 35.6504 65.4786 32.9386 65.4786H15.5284C14.064 65.4786 12.8165 64.2825 12.8165 62.7601V54.9851H32.9386C35.6504 54.9851 37.8742 57.2142 37.8742 59.9328V60.5309Z" fill="#17688B"/>
<path d="M76.2735 19.1003C76.8159 19.1003 77.2498 19.1546 77.6295 19.3177C78.0091 19.4808 78.2803 19.6983 78.4973 20.0245C78.7142 20.3508 78.8227 20.7314 78.8227 21.2207C78.8227 21.6557 78.7142 22.0363 78.5515 22.3625C78.3888 22.6887 78.1176 22.9062 77.8464 23.0693C77.5752 23.2324 77.2498 23.2868 76.9786 23.3412C77.3041 23.3412 77.6295 23.4499 77.9549 23.5587C78.2803 23.7218 78.5515 23.9393 78.7142 24.2655C78.9312 24.5917 79.0396 25.0267 79.0396 25.516C79.0396 26.0054 78.9312 26.4403 78.7142 26.8209C78.4973 27.2015 78.2261 27.4734 77.7922 27.6365C77.3583 27.854 76.8702 27.9083 76.2193 27.9083H73.3447V19.1546H76.2735V19.1003ZM74.321 23.2324L73.9956 22.9062H75.7854C76.4363 22.9062 76.9244 22.7975 77.2498 22.5256C77.5752 22.2538 77.7922 21.8732 77.7922 21.3838C77.7922 21.0576 77.738 20.7857 77.5752 20.5683C77.4125 20.3508 77.1956 20.242 76.9786 20.1333C76.7074 20.0246 76.382 20.0245 76.0566 20.0245H73.8871L74.321 19.4265V23.2324ZM76.0024 26.984C76.599 26.984 77.0871 26.8753 77.4125 26.6034C77.7379 26.3316 77.9549 25.951 77.9549 25.4073C77.9549 25.081 77.9007 24.8092 77.7922 24.5917C77.6837 24.3742 77.521 24.2111 77.3041 24.1024C77.0871 23.9936 76.8701 23.8849 76.599 23.8305C76.3278 23.7761 76.0566 23.7761 75.7854 23.7761H73.9413L74.2668 23.4499V27.5821L73.8329 26.984H76.0024Z" fill="#17688B"/>
<path d="M82.8361 28.0171C82.348 28.0171 81.9141 27.9627 81.5887 27.7996C81.2632 27.6365 80.9378 27.419 80.7751 27.1472C80.5581 26.8753 80.5039 26.5491 80.5039 26.1141C80.5039 25.6791 80.6124 25.3529 80.8293 25.0811C81.0463 24.8092 81.3175 24.5917 81.7514 24.4286C82.131 24.2655 82.5649 24.1568 83.1073 24.1024C83.8666 24.048 84.409 23.9393 84.7886 23.8849C85.1141 23.8305 85.2768 23.6674 85.2768 23.5043C85.2768 23.1237 85.1141 22.8518 84.8429 22.6887C84.5717 22.5256 84.1378 22.4169 83.5412 22.4169C82.9446 22.4169 82.5107 22.5256 82.1853 22.7431C81.8598 22.9606 81.6971 23.2868 81.6971 23.7218H80.7209C80.7209 23.2325 80.8293 22.8519 81.1005 22.5256C81.3175 22.1994 81.6971 21.9276 82.131 21.7644C82.5649 21.6013 83.053 21.4926 83.5954 21.4926C84.0836 21.4926 84.5717 21.547 85.0056 21.7101C85.4395 21.8732 85.7649 22.0907 85.9819 22.4169C86.1988 22.7431 86.3615 23.1237 86.3615 23.5587C86.3615 23.6674 86.3615 23.7218 86.3615 23.8305C86.3615 23.9393 86.3615 23.9936 86.3615 24.1024V26.7666C86.3615 26.9297 86.3615 27.0384 86.3615 27.1472C86.3615 27.2559 86.4158 27.419 86.4158 27.4734C86.47 27.5821 86.47 27.6909 86.5242 27.7452C86.5785 27.7996 86.5785 27.854 86.6327 27.9083H85.6022C85.6022 27.9083 85.548 27.854 85.4937 27.7452C85.4395 27.6909 85.4395 27.5821 85.3853 27.4734C85.331 27.419 85.331 27.3103 85.331 27.1472C85.331 27.0384 85.331 26.8753 85.331 26.7666L85.4937 26.8753C85.3853 27.0928 85.1683 27.2559 84.9514 27.419C84.7344 27.5821 84.409 27.6909 84.0836 27.7996C83.6497 27.9627 83.27 28.0171 82.8361 28.0171ZM82.9988 27.0928C83.4327 27.0928 83.7581 27.0384 84.0836 26.9297C84.409 26.8209 84.6802 26.6035 84.8429 26.386C85.0598 26.1141 85.1141 25.8423 85.1141 25.4617V24.2111L85.331 24.5917C85.0598 24.7005 84.7886 24.7548 84.409 24.8092C84.0293 24.8636 83.6497 24.9179 83.2158 24.9723C82.6192 25.0267 82.1853 25.1354 81.8598 25.2985C81.5344 25.4617 81.4259 25.7335 81.4259 26.0597C81.4259 26.386 81.5344 26.6578 81.8056 26.8209C82.0768 27.0384 82.4565 27.0928 82.9988 27.0928Z" fill="#17688B"/>
<path d="M90.267 28.0171C89.8873 28.0171 89.5619 27.9627 89.2365 27.9083C88.9111 27.854 88.6399 27.6909 88.3687 27.5278C88.0975 27.3646 87.9348 27.2015 87.8263 26.9297C87.7178 26.7122 87.6094 26.4403 87.6094 26.1141C87.6094 26.0597 87.6094 26.0597 87.6094 26.0054C87.6094 25.951 87.6094 25.951 87.6094 25.8966H88.6399V25.951V26.0054C88.6399 26.3316 88.8026 26.5491 89.0738 26.7665C89.345 26.9297 89.7789 27.0384 90.267 27.0384C90.5924 27.0384 90.8636 26.984 91.1348 26.9297C91.406 26.8753 91.5687 26.7666 91.7314 26.6578C91.8941 26.5491 91.9484 26.386 91.9484 26.1685C91.9484 25.8423 91.7856 25.6248 91.5144 25.4616C91.189 25.2985 90.7551 25.1898 90.1585 25.0811C89.8331 25.0267 89.5077 24.9723 89.2365 24.8636C88.9653 24.7548 88.6941 24.6461 88.4772 24.5374C88.2602 24.4286 88.0975 24.2111 87.9348 23.9936C87.8263 23.7762 87.7178 23.5043 87.7178 23.2324C87.7178 22.8518 87.8263 22.5256 88.0433 22.2538C88.2602 21.9819 88.5856 21.7644 88.9653 21.6557C89.345 21.4926 89.7789 21.4382 90.267 21.4382C90.7009 21.4382 91.1348 21.4926 91.5144 21.6557C91.8941 21.8188 92.2195 22.0363 92.4365 22.3081C92.6534 22.58 92.8161 22.9062 92.8161 23.3412V23.3956V23.4499H91.8399V23.3956C91.8399 23.3956 91.8399 23.3956 91.8399 23.3412C91.8399 23.1237 91.7856 22.9062 91.6229 22.7975C91.4602 22.6344 91.2975 22.5256 91.0263 22.4712C90.8094 22.4169 90.5382 22.3625 90.267 22.3625C89.9958 22.3625 89.7789 22.3625 89.5077 22.4169C89.2907 22.4712 89.0738 22.58 88.9111 22.6887C88.7484 22.7975 88.6941 22.9606 88.6941 23.1781C88.6941 23.3956 88.7484 23.5587 88.9111 23.6674C89.0738 23.7762 89.2907 23.8849 89.5619 23.9936C89.8331 24.048 90.1585 24.1568 90.5382 24.2111C90.8636 24.2655 91.189 24.3199 91.4602 24.4286C91.7314 24.5373 92.0026 24.6461 92.2195 24.7548C92.4365 24.9179 92.5992 25.0811 92.7619 25.2985C92.9246 25.516 92.9789 25.7879 92.9789 26.0597C92.9789 26.386 92.9246 26.6578 92.7619 26.8753C92.5992 27.0928 92.4365 27.3103 92.1653 27.4734C91.8941 27.6365 91.6229 27.7452 91.2975 27.7996C90.9721 27.9627 90.6467 28.0171 90.267 28.0171Z" fill="#17688B"/>
<path d="M94.8232 25.1354V24.2111H99.7045L99.5418 24.483V24.4286V24.3742C99.5418 23.9936 99.4876 23.6674 99.3249 23.3956C99.1622 23.0693 98.9452 22.8518 98.6198 22.6887C98.2944 22.5256 97.9689 22.4169 97.4808 22.4169C97.0469 22.4169 96.613 22.5256 96.2876 22.6887C95.9622 22.9062 95.691 23.1237 95.474 23.5043C95.3113 23.8305 95.2028 24.2655 95.2028 24.7548C95.2028 25.2442 95.3113 25.6791 95.474 26.0054C95.6367 26.3316 95.9079 26.6034 96.2333 26.8209C96.5588 27.0384 96.9927 27.0928 97.4266 27.0928C97.752 27.0928 98.0232 27.0384 98.2944 26.9841C98.5655 26.9297 98.7283 26.8209 98.891 26.7122C99.0537 26.6035 99.1622 26.4403 99.2706 26.3316C99.3791 26.1685 99.3791 26.0597 99.4333 25.8966H100.464C100.464 26.1685 100.355 26.386 100.247 26.6578C100.084 26.9297 99.9215 27.1472 99.6503 27.3646C99.3791 27.5821 99.1079 27.7452 98.7283 27.854C98.3486 27.9627 97.9147 28.0171 97.4808 28.0171C96.83 28.0171 96.2876 27.854 95.7994 27.5821C95.3113 27.3103 94.9317 26.9297 94.6605 26.4403C94.3893 25.951 94.2266 25.4073 94.2266 24.7548C94.2266 24.1024 94.3893 23.5587 94.6605 23.0693C94.9317 22.58 95.3113 22.1994 95.7994 21.9275C96.2876 21.6557 96.83 21.4926 97.4808 21.4926C98.1316 21.4926 98.674 21.6557 99.1622 21.9275C99.6503 22.1994 99.9757 22.58 100.247 23.0693C100.518 23.5587 100.627 24.1024 100.627 24.7005C100.627 24.7548 100.627 24.8636 100.627 24.9723C100.627 25.0811 100.627 25.1354 100.627 25.1898H94.8232V25.1354Z" fill="#17688B"/>
<path d="M105.128 27.9083V19.1546H106.104V27.9083H105.128Z" fill="#17688B"/>
<path d="M107.894 27.9083V21.6013H108.924V27.9083H107.894ZM112.395 27.9083V24.8636C112.395 24.7005 112.395 24.5373 112.395 24.4286C112.395 24.3199 112.395 24.2111 112.395 24.1024C112.395 23.7761 112.341 23.5043 112.233 23.2324C112.124 22.9606 111.961 22.7975 111.69 22.6344C111.419 22.4713 111.148 22.4169 110.768 22.4169C110.443 22.4169 110.117 22.5256 109.846 22.6887C109.575 22.8518 109.304 23.0693 109.141 23.3956C108.978 23.7218 108.87 23.9936 108.87 24.3742L108.273 24.1567C108.273 23.6674 108.382 23.2324 108.653 22.7975C108.87 22.4169 109.195 22.0907 109.629 21.8188C110.009 21.6013 110.497 21.4382 110.931 21.4382C111.419 21.4382 111.853 21.5469 112.233 21.7101C112.612 21.8732 112.883 22.145 113.1 22.5256C113.317 22.8518 113.426 23.2868 113.426 23.7761C113.426 23.9393 113.426 24.1567 113.426 24.3742C113.426 24.5917 113.426 24.7548 113.426 24.9723V27.9083H112.395Z" fill="#17688B"/>
<path d="M117.494 28.0171C117.277 28.0171 117.115 28.0171 116.952 27.9627C116.789 27.9083 116.572 27.854 116.464 27.7452C116.301 27.6365 116.193 27.4734 116.084 27.2559C115.976 27.0384 115.976 26.7666 115.976 26.4403C115.976 26.3316 115.976 26.2772 115.976 26.1685C115.976 26.0597 115.976 26.0054 115.976 25.8966V22.5256H114.457V21.6557H115.433C115.542 21.6557 115.65 21.6557 115.759 21.6557C115.867 21.6557 115.867 21.6013 115.921 21.6013C115.976 21.5469 115.976 21.4926 115.976 21.3838C115.976 21.2751 115.976 21.1664 115.976 21.0032V19.5896H117.006V21.7101H118.959V22.58H117.006V25.6248C117.006 25.7335 117.006 25.7879 117.006 25.8966C117.006 26.0054 117.006 26.0597 117.006 26.1141C117.006 26.4403 117.06 26.7122 117.115 26.9297C117.169 27.0928 117.386 27.2015 117.657 27.2015C117.766 27.2015 117.874 27.2015 117.982 27.1472C118.091 27.1472 118.145 27.0928 118.199 27.0928V27.9627C118.145 27.9627 118.037 28.0171 117.928 28.0171C117.82 28.0171 117.657 28.0171 117.494 28.0171Z" fill="#17688B"/>
<path d="M120.369 25.1354V24.2111H125.25L125.087 24.483V24.4286V24.3742C125.087 23.9936 125.033 23.6674 124.87 23.3956C124.708 23.0693 124.491 22.8518 124.165 22.6887C123.84 22.5256 123.514 22.4169 123.026 22.4169C122.592 22.4169 122.213 22.5256 121.833 22.6887C121.508 22.9062 121.236 23.1237 121.019 23.5043C120.802 23.8305 120.748 24.2655 120.748 24.7548C120.748 25.2442 120.857 25.6791 121.019 26.0054C121.182 26.3316 121.453 26.6034 121.833 26.8209C122.158 27.0384 122.592 27.0928 123.026 27.0928C123.352 27.0928 123.623 27.0384 123.894 26.9841C124.165 26.9297 124.328 26.8209 124.491 26.7122C124.653 26.6035 124.762 26.4403 124.87 26.3316C124.979 26.1685 124.979 26.0597 125.033 25.8966H126.063C126.063 26.1685 125.955 26.386 125.847 26.6578C125.684 26.9297 125.521 27.1472 125.25 27.3646C124.979 27.5821 124.708 27.7452 124.328 27.854C123.948 27.9627 123.514 28.0171 123.08 28.0171C122.43 28.0171 121.887 27.854 121.399 27.5821C120.911 27.3103 120.531 26.9297 120.26 26.4403C119.989 25.951 119.826 25.4073 119.826 24.7548C119.826 24.1024 119.989 23.5587 120.26 23.0693C120.531 22.58 120.911 22.1994 121.399 21.9275C121.887 21.6557 122.43 21.4926 123.08 21.4926C123.731 21.4926 124.274 21.6557 124.762 21.9275C125.25 22.1994 125.575 22.58 125.847 23.0693C126.118 23.5587 126.226 24.1024 126.226 24.7005C126.226 24.7548 126.226 24.8636 126.226 24.9723C126.226 25.0811 126.226 25.1354 126.226 25.1898H120.369V25.1354Z" fill="#17688B"/>
<path d="M131.704 27.5278C132.029 27.5821 132.355 27.6365 132.626 27.6909C132.897 27.7452 133.114 27.9083 133.222 28.1258C133.385 28.2889 133.439 28.5608 133.439 28.887C133.439 29.2133 133.331 29.5395 133.114 29.757C132.897 29.9744 132.517 30.2463 132.083 30.355C131.595 30.5182 131.053 30.5725 130.348 30.5725C129.372 30.5725 128.612 30.4094 128.07 30.1376C127.582 29.8657 127.311 29.4307 127.311 28.9414C127.311 28.7783 127.311 28.6695 127.365 28.5064C127.419 28.3433 127.419 28.2889 127.473 28.2346L128.45 28.3977C128.395 28.4521 128.395 28.5064 128.341 28.6152C128.287 28.7239 128.287 28.8326 128.287 28.9414C128.287 29.2676 128.45 29.4851 128.829 29.5938C129.209 29.7026 129.697 29.8113 130.348 29.8113C130.836 29.8113 131.27 29.757 131.541 29.7026C131.866 29.6482 132.083 29.5395 132.246 29.4307C132.409 29.322 132.463 29.1589 132.463 28.9958C132.463 28.7239 132.355 28.5608 132.138 28.5064C131.921 28.4521 131.65 28.3977 131.324 28.3977L128.938 28.2346C128.558 28.1802 128.233 28.0715 127.961 27.854C127.69 27.6365 127.582 27.3646 127.582 27.0384C127.582 26.8753 127.636 26.6578 127.744 26.4947C127.853 26.3316 127.961 26.1685 128.07 26.0597C128.178 25.951 128.287 25.8966 128.395 25.8423L129.209 26.2228C129.1 26.2228 128.992 26.3316 128.829 26.4403C128.666 26.5491 128.612 26.7122 128.612 26.8753C128.612 27.0384 128.666 27.1472 128.775 27.2559C128.883 27.3646 129.1 27.419 129.48 27.419L131.704 27.5278ZM132.572 21.6013H133.548L133.168 24.1024C133.114 24.5917 132.951 24.9723 132.734 25.3529C132.517 25.7335 132.192 26.0054 131.812 26.2228C131.433 26.4403 130.944 26.5491 130.348 26.5491C129.751 26.5491 129.263 26.4403 128.829 26.2228C128.395 26.0054 128.07 25.6791 127.853 25.3529C127.636 24.9723 127.527 24.5373 127.527 24.048C127.527 23.5587 127.636 23.1237 127.907 22.7431C128.124 22.3625 128.45 22.0363 128.883 21.8188C129.317 21.6013 129.805 21.4926 130.348 21.4926C130.836 21.4926 131.27 21.6013 131.65 21.7644C132.029 21.9276 132.3 22.145 132.517 22.4169C132.734 22.6887 132.843 22.9062 132.897 23.1781H132.517L132.572 21.6013ZM130.348 25.6248C130.727 25.6248 131.053 25.5704 131.324 25.4617C131.595 25.3529 131.812 25.1354 131.975 24.9179C132.138 24.7005 132.192 24.3742 132.192 24.048C132.192 23.7218 132.138 23.4499 131.975 23.1781C131.812 22.9606 131.595 22.7431 131.324 22.6344C131.053 22.5256 130.727 22.4169 130.348 22.4169C129.968 22.4169 129.643 22.4713 129.372 22.6344C129.1 22.7975 128.883 22.9606 128.721 23.2324C128.558 23.5043 128.504 23.7762 128.504 24.1024C128.504 24.4286 128.558 24.7548 128.721 24.9723C128.883 25.1898 129.1 25.4073 129.372 25.516C129.589 25.5704 129.968 25.6248 130.348 25.6248Z" fill="#17688B"/>
<path d="M134.904 27.9083V21.6013H135.935V23.5587L135.609 23.4499C135.609 23.2324 135.718 22.9606 135.772 22.7431C135.881 22.5256 135.989 22.3081 136.152 22.145C136.314 21.9819 136.531 21.8188 136.803 21.71C137.074 21.6013 137.345 21.5469 137.67 21.5469C137.942 21.5469 138.104 21.5469 138.267 21.6013C138.43 21.6557 138.538 21.6557 138.592 21.71L138.321 22.6887C138.267 22.6343 138.213 22.6344 138.104 22.58C137.996 22.5256 137.833 22.5256 137.616 22.5256C137.291 22.5256 137.02 22.58 136.803 22.6887C136.586 22.7975 136.423 22.9606 136.314 23.1781C136.206 23.3955 136.098 23.613 136.043 23.8305C135.989 24.048 135.989 24.2655 135.989 24.5373V28.0171H134.904V27.9083Z" fill="#17688B"/>
<path d="M141.792 28.0171C141.304 28.0171 140.87 27.9627 140.545 27.7996C140.219 27.6365 139.894 27.419 139.731 27.1472C139.568 26.8753 139.46 26.5491 139.46 26.1141C139.46 25.6791 139.568 25.3529 139.785 25.0811C140.002 24.8092 140.274 24.5917 140.707 24.4286C141.087 24.2655 141.521 24.1568 142.063 24.1024C142.823 24.048 143.365 23.9393 143.745 23.8849C144.07 23.8305 144.233 23.6674 144.233 23.5043C144.233 23.1237 144.07 22.8518 143.799 22.6887C143.528 22.5256 143.094 22.4169 142.497 22.4169C141.901 22.4169 141.467 22.5256 141.141 22.7431C140.816 22.9606 140.653 23.2868 140.653 23.7218H139.677C139.677 23.2325 139.785 22.8519 140.057 22.5256C140.274 22.1994 140.653 21.9276 141.087 21.7644C141.521 21.6013 142.009 21.4926 142.551 21.4926C143.04 21.4926 143.528 21.547 143.962 21.7101C144.396 21.8732 144.721 22.0907 144.938 22.4169C145.155 22.7431 145.318 23.1237 145.318 23.5587C145.318 23.6674 145.318 23.7218 145.318 23.8305C145.318 23.9393 145.318 23.9936 145.318 24.1024V26.7666C145.318 26.9297 145.318 27.0384 145.318 27.1472C145.318 27.2559 145.372 27.419 145.372 27.4734C145.426 27.5821 145.426 27.6909 145.48 27.7452C145.535 27.7996 145.535 27.854 145.589 27.9083H144.45C144.45 27.9083 144.396 27.854 144.341 27.7452C144.287 27.6909 144.287 27.5821 144.233 27.4734C144.179 27.419 144.179 27.3103 144.179 27.1472C144.179 27.0384 144.179 26.8753 144.179 26.7666L144.341 26.8753C144.233 27.0928 144.016 27.2559 143.799 27.419C143.582 27.5821 143.257 27.6909 142.931 27.7996C142.551 27.9627 142.226 28.0171 141.792 28.0171ZM141.955 27.0928C142.389 27.0928 142.714 27.0384 143.04 26.9297C143.365 26.8209 143.636 26.6035 143.799 26.386C143.962 26.1685 144.07 25.8423 144.07 25.4617V24.2111L144.287 24.5917C144.016 24.7005 143.745 24.7548 143.365 24.8092C142.985 24.8636 142.606 24.9179 142.172 24.9723C141.575 25.0267 141.141 25.1354 140.816 25.2985C140.49 25.4617 140.382 25.7335 140.382 26.0597C140.382 26.386 140.49 26.6578 140.762 26.8209C141.033 27.0384 141.413 27.0928 141.955 27.0928Z" fill="#17688B"/>
<path d="M149.386 28.0171C148.843 28.0171 148.409 27.9083 147.976 27.6365C147.542 27.3646 147.216 27.0384 146.945 26.5491C146.674 26.0597 146.565 25.4616 146.565 24.7548C146.565 24.048 146.674 23.4499 146.945 23.0149C147.216 22.5256 147.542 22.145 147.976 21.9275C148.409 21.6557 148.898 21.5469 149.386 21.5469C149.874 21.5469 150.308 21.6557 150.742 21.8732C151.176 22.0906 151.501 22.4169 151.772 22.8518C152.043 23.2868 152.152 23.7218 152.152 24.2655C152.152 24.2655 152.152 24.2655 152.152 24.3198C152.152 24.3198 152.152 24.3199 152.152 24.3742L151.447 24.4286C151.447 24.4286 151.447 24.4286 151.447 24.3742C151.447 24.3199 151.447 24.3742 151.447 24.3198C151.447 23.9936 151.338 23.6674 151.176 23.3956C151.013 23.1237 150.742 22.9062 150.47 22.7431C150.199 22.58 149.874 22.4712 149.548 22.4712C149.006 22.4712 148.518 22.6344 148.138 23.0149C147.759 23.3955 147.596 23.9936 147.596 24.7548C147.596 25.516 147.759 26.1141 148.138 26.4947C148.518 26.8753 148.952 27.0928 149.548 27.0928C149.874 27.0928 150.199 26.984 150.525 26.8209C150.85 26.6578 151.067 26.4403 151.23 26.1141C151.393 25.8422 151.501 25.516 151.501 25.1354H152.206C152.206 25.6791 152.098 26.1685 151.826 26.6034C151.555 27.0384 151.23 27.3646 150.796 27.6365C150.416 27.9083 149.928 28.0171 149.386 28.0171ZM151.501 27.9083V18.6109H152.532V27.9083H151.501Z" fill="#17688B"/>
<path d="M156.49 28.0171C156.002 28.0171 155.568 27.9627 155.243 27.7996C154.863 27.6365 154.592 27.419 154.429 27.1472C154.212 26.8753 154.158 26.5491 154.158 26.1141C154.158 25.6791 154.267 25.3529 154.484 25.0811C154.701 24.8092 154.972 24.5917 155.406 24.4286C155.785 24.2655 156.219 24.1568 156.762 24.1024C157.521 24.048 158.063 23.9393 158.443 23.8849C158.768 23.8305 158.931 23.6674 158.931 23.5043C158.931 23.1237 158.768 22.8518 158.497 22.6887C158.226 22.5256 157.792 22.4169 157.195 22.4169C156.599 22.4169 156.165 22.5256 155.84 22.7431C155.514 22.9606 155.351 23.2868 155.351 23.7218H154.212C154.212 23.2325 154.321 22.8519 154.592 22.5256C154.809 22.1994 155.189 21.9276 155.623 21.7644C156.056 21.6013 156.545 21.4926 157.087 21.4926C157.575 21.4926 158.063 21.547 158.497 21.7101C158.931 21.8732 159.257 22.0907 159.473 22.4169C159.69 22.7431 159.853 23.1237 159.853 23.5587C159.853 23.6674 159.853 23.7218 159.853 23.8305C159.853 23.9393 159.853 23.9936 159.853 24.1024V26.7666C159.853 26.9297 159.853 27.0384 159.853 27.1472C159.853 27.2559 159.907 27.419 159.907 27.4734C159.962 27.5821 159.962 27.6909 160.016 27.7452C160.07 27.7996 160.07 27.854 160.124 27.9083H159.094C159.094 27.9083 159.04 27.854 158.985 27.7452C158.931 27.6909 158.931 27.5821 158.877 27.4734C158.823 27.419 158.823 27.3103 158.823 27.1472C158.823 27.0384 158.823 26.8753 158.823 26.7666L158.985 26.8753C158.877 27.0928 158.66 27.2559 158.443 27.419C158.226 27.5821 157.901 27.6909 157.575 27.7996C157.25 27.9627 156.87 28.0171 156.49 28.0171ZM156.599 27.0928C157.033 27.0928 157.358 27.0384 157.684 26.9297C158.009 26.8209 158.28 26.6035 158.443 26.386C158.606 26.1685 158.714 25.8423 158.714 25.4617V24.2111L158.931 24.5917C158.66 24.7005 158.389 24.7548 158.009 24.8092C157.629 24.8636 157.25 24.9179 156.816 24.9723C156.219 25.0267 155.785 25.1354 155.46 25.2985C155.134 25.4617 155.026 25.7335 155.026 26.0597C155.026 26.386 155.134 26.6578 155.406 26.8209C155.731 27.0384 156.111 27.0928 156.599 27.0928Z" fill="#17688B"/>
<path d="M76.0029 42.3166C75.4606 42.3166 75.0267 42.2079 74.5928 41.936C74.1589 41.6642 73.8335 41.3379 73.5623 40.8486C73.2911 40.3593 73.1826 39.7612 73.1826 39.0544C73.1826 38.3475 73.2911 37.7495 73.5623 37.3145C73.8335 36.8252 74.1589 36.4446 74.5928 36.2271C75.0267 35.9552 75.5148 35.8465 76.0029 35.8465C76.4911 35.8465 76.925 35.9552 77.3589 36.1727C77.7928 36.3902 78.1182 36.7164 78.3894 37.1514C78.6606 37.5863 78.7691 38.0213 78.7691 38.565C78.7691 38.565 78.7691 38.565 78.7691 38.6194C78.7691 38.6194 78.7691 38.6194 78.7691 38.6738L78.064 38.7281C78.064 38.7281 78.064 38.7281 78.064 38.6738C78.064 38.6194 78.064 38.6738 78.064 38.6194C78.064 38.2932 77.9555 37.9669 77.7928 37.6951C77.6301 37.4232 77.3589 37.2058 77.0877 37.0426C76.8165 36.8795 76.4911 36.7708 76.1657 36.7708C75.6233 36.7708 75.1352 36.9339 74.7555 37.3145C74.3758 37.6951 74.2131 38.2932 74.2131 39.0544C74.2131 39.8156 74.3758 40.4136 74.7555 40.7942C75.1352 41.1748 75.5691 41.3923 76.1657 41.3923C76.4911 41.3923 76.8165 41.2836 77.1419 41.1205C77.4674 40.9574 77.6843 40.7399 77.847 40.4136C78.0097 40.1418 78.1182 39.8156 78.1182 39.435H78.8233C78.8233 39.9787 78.7148 40.468 78.4436 40.903C78.1724 41.3379 77.847 41.6642 77.4131 41.936C77.0335 42.1535 76.5453 42.3166 76.0029 42.3166ZM78.064 42.2079V32.8561H79.0945V42.1535H78.064V42.2079Z" fill="#17688B"/>
<path d="M81.2094 39.435V38.5107H86.0908L85.8738 38.8369V38.7825V38.7281C85.8738 38.3476 85.8196 38.0213 85.6569 37.7495C85.4942 37.4233 85.2772 37.2058 84.9518 37.0427C84.6264 36.8796 84.301 36.7708 83.8128 36.7708C83.3789 36.7708 82.945 36.8796 82.6196 37.0427C82.2942 37.2601 82.023 37.4776 81.806 37.8582C81.5891 38.1845 81.5349 38.6194 81.5349 39.1088C81.5349 39.5981 81.6433 40.0331 81.806 40.3593C81.9688 40.6855 82.2399 40.9574 82.5654 41.1748C82.8908 41.3923 83.3247 41.4467 83.7586 41.4467C84.084 41.4467 84.3552 41.3923 84.6264 41.338C84.8976 41.2836 85.0603 41.1749 85.223 41.0661C85.3857 40.9574 85.4942 40.7942 85.6027 40.6855C85.7111 40.5224 85.7111 40.4137 85.7654 40.2505H86.7959C86.7959 40.5224 86.6874 40.7399 86.5789 41.0117C86.4162 41.2836 86.2535 41.5011 85.9823 41.7185C85.7111 41.936 85.4399 42.0992 85.0603 42.2079C84.6806 42.3166 84.2467 42.371 83.8128 42.371C83.162 42.371 82.6196 42.2079 82.1315 41.936C81.6433 41.6642 81.2637 41.2836 80.9925 40.7943C80.7213 40.3049 80.5586 39.7612 80.5586 39.1088C80.5586 38.4563 80.7213 37.9126 80.9925 37.4232C81.2637 36.9339 81.6433 36.5533 82.1315 36.2815C82.6196 36.0096 83.162 35.8465 83.8128 35.8465C84.4637 35.8465 85.006 36.0096 85.4942 36.2815C85.9823 36.5533 86.3077 36.9339 86.5789 37.4232C86.8501 37.9126 86.9586 38.4563 86.9586 39.0544C86.9586 39.1087 86.9586 39.2175 86.9586 39.3262C86.9586 39.435 86.9586 39.4893 86.9586 39.5437H81.2094V39.435Z" fill="#17688B"/>
<path d="M94.3351 33.3998C94.8774 33.3998 95.3113 33.4542 95.691 33.6173C96.0707 33.7804 96.3418 33.9979 96.5588 34.3241C96.7757 34.6503 96.8842 35.0309 96.8842 35.5203C96.8842 35.9552 96.7757 36.3358 96.613 36.6621C96.4503 36.9883 96.1791 37.2058 95.9079 37.3689C95.6368 37.532 95.3113 37.5864 95.0401 37.6407C95.3656 37.6407 95.691 37.7495 96.0164 37.8582C96.3418 38.0213 96.613 38.2388 96.7757 38.565C96.9384 38.8913 97.1012 39.3262 97.1012 39.8156C97.1012 40.3049 96.9927 40.7399 96.7757 41.1205C96.5588 41.5011 96.2876 41.7729 95.8537 41.9361C95.4198 42.1535 94.9317 42.2079 94.2808 42.2079H91.4062V33.3998H94.3351ZM92.4368 37.532L92.1113 37.2058H93.9012C94.552 37.2058 95.0401 37.097 95.3656 36.8252C95.691 36.5533 95.9079 36.1727 95.9079 35.6834C95.9079 35.3572 95.8537 35.0853 95.691 34.8678C95.5283 34.6503 95.3113 34.5416 95.0944 34.4329C94.8232 34.3241 94.4978 34.3241 94.1723 34.3241H92.0028L92.4368 33.726V37.532ZM94.1181 41.2836C94.7147 41.2836 95.2028 41.1748 95.5283 40.903C95.8537 40.6311 96.0706 40.2505 96.0706 39.7068C96.0706 39.3806 96.0164 39.1088 95.9079 38.8913C95.7995 38.6738 95.6368 38.5107 95.4198 38.4019C95.2029 38.2932 94.9859 38.1845 94.7147 38.1301C94.4435 38.0757 94.1723 38.0757 93.9012 38.0757H92.0571L92.3825 37.7495V41.8817L91.9486 41.2836H94.1181Z" fill="#17688B"/>
<path d="M99.2705 34.4328C99.1078 34.4328 98.9451 34.3785 98.7824 34.2697C98.6197 34.161 98.5654 33.9979 98.5654 33.8348C98.5654 33.6716 98.6197 33.5085 98.7824 33.3998C98.9451 33.2911 99.0536 33.2367 99.2705 33.2367C99.4332 33.2367 99.5959 33.2911 99.7587 33.3998C99.9214 33.5085 99.9756 33.6716 99.9756 33.8348C99.9756 33.9979 99.9214 34.161 99.7587 34.2697C99.5959 34.3785 99.4875 34.4328 99.2705 34.4328ZM98.7824 42.2079V35.9009H99.7587V42.2079H98.7824Z" fill="#17688B"/>
<path d="M101.657 42.2079V32.8561H102.688V42.1535H101.657V42.2079ZM104.749 42.3166C104.261 42.3166 103.827 42.2079 103.393 41.936C102.959 41.6642 102.633 41.3923 102.362 40.9573C102.091 40.5224 101.983 40.033 101.983 39.5437C101.983 39.5437 101.983 39.5437 101.983 39.4893C101.983 39.435 101.983 39.4893 101.983 39.435H102.688C102.688 39.7612 102.796 40.0874 102.959 40.3593C103.122 40.6311 103.393 40.8486 103.664 41.0117C103.935 41.1748 104.261 41.2836 104.586 41.2836C105.128 41.2836 105.617 41.0661 105.996 40.6855C106.376 40.3049 106.539 39.7068 106.539 38.9456C106.539 38.1301 106.376 37.5863 105.996 37.2058C105.617 36.8252 105.183 36.662 104.586 36.662C104.261 36.662 103.935 36.7708 103.664 36.9339C103.393 37.097 103.122 37.3145 102.959 37.5864C102.796 37.8582 102.688 38.1844 102.688 38.5107H101.983C101.983 37.9669 102.091 37.4776 102.362 37.097C102.633 36.7164 102.959 36.3358 103.393 36.1183C103.827 35.9009 104.261 35.7921 104.749 35.7921C105.237 35.7921 105.725 35.9009 106.159 36.1727C106.593 36.4446 106.918 36.7708 107.189 37.2601C107.461 37.7495 107.569 38.3475 107.569 39C107.569 39.7068 107.461 40.3049 107.189 40.7942C106.918 41.2836 106.593 41.6642 106.159 41.8817C105.725 42.1535 105.237 42.3166 104.749 42.3166Z" fill="#17688B"/>
<path d="M110.226 32.8561V42.1535H109.25V32.8561H110.226Z" fill="#17688B"/>
<path d="M112.667 34.4328C112.504 34.4328 112.342 34.3785 112.179 34.2697C112.016 34.161 111.962 33.9979 111.962 33.8348C111.962 33.6716 112.016 33.5085 112.179 33.3998C112.342 33.2911 112.45 33.2367 112.667 33.2367C112.83 33.2367 112.992 33.2911 113.155 33.3998C113.318 33.5085 113.372 33.6716 113.372 33.8348C113.372 33.9979 113.318 34.161 113.155 34.2697C112.992 34.3785 112.83 34.4328 112.667 34.4328ZM112.125 42.2079V35.9009H113.101V42.2079H112.125Z" fill="#17688B"/>
<path d="M118.036 42.3166C117.386 42.3166 116.843 42.1535 116.355 41.8817C115.867 41.6098 115.487 41.2292 115.216 40.7399C114.945 40.2505 114.782 39.7068 114.782 39.0544C114.782 38.4019 114.945 37.8582 115.216 37.3689C115.487 36.8795 115.867 36.4989 116.355 36.2271C116.843 35.9552 117.386 35.7921 118.036 35.7921C118.687 35.7921 119.23 35.9552 119.718 36.2271C120.206 36.4989 120.586 36.8795 120.857 37.3689C121.128 37.8582 121.291 38.4019 121.291 39.0544C121.291 39.7068 121.128 40.2505 120.857 40.7399C120.586 41.2292 120.206 41.6098 119.718 41.8817C119.23 42.1535 118.633 42.3166 118.036 42.3166ZM118.036 41.3923C118.47 41.3923 118.85 41.2836 119.175 41.1205C119.501 40.903 119.772 40.6311 119.935 40.3049C120.097 39.9787 120.206 39.5437 120.206 39.0544C120.206 38.565 120.097 38.1844 119.935 37.8038C119.772 37.4232 119.501 37.2058 119.175 36.9883C118.85 36.8252 118.47 36.7164 118.036 36.7164C117.603 36.7164 117.223 36.8252 116.897 36.9883C116.572 37.1514 116.301 37.4232 116.138 37.8038C115.975 38.1301 115.867 38.565 115.867 39.0544C115.867 39.5437 115.975 39.9243 116.138 40.3049C116.301 40.6311 116.572 40.9574 116.897 41.1205C117.223 41.2836 117.603 41.3923 118.036 41.3923Z" fill="#17688B"/>
<path d="M125.196 42.2622C124.979 42.2622 124.816 42.2623 124.599 42.2079C124.382 42.1535 124.22 42.0991 124.111 41.9904C123.949 41.8816 123.84 41.7185 123.732 41.501C123.623 41.2836 123.623 41.0117 123.623 40.6855C123.623 40.5767 123.623 40.5224 123.623 40.4136C123.623 40.3049 123.623 40.2505 123.623 40.1418V36.7708H122.104V35.9009H123.081C123.189 35.9009 123.298 35.9009 123.406 35.9009C123.515 35.9009 123.515 35.8465 123.569 35.8465C123.623 35.7921 123.623 35.7377 123.623 35.629C123.623 35.5203 123.623 35.4115 123.623 35.2484V33.8347H124.654V35.9552H126.606V36.8251H124.654V39.8699C124.654 39.9787 124.654 40.033 124.654 40.1418C124.654 40.2505 124.654 40.3049 124.654 40.3593C124.654 40.6855 124.708 40.9573 124.762 41.1748C124.816 41.3379 125.033 41.4467 125.305 41.4467C125.413 41.4467 125.521 41.4467 125.63 41.3923C125.738 41.3923 125.793 41.3379 125.847 41.3379V42.2079C125.793 42.2079 125.684 42.2622 125.576 42.2622C125.467 42.2622 125.304 42.2622 125.196 42.2622Z" fill="#17688B"/>
<path d="M128.017 39.435V38.5107H132.898L132.735 38.7825V38.7281V38.6738C132.735 38.2932 132.681 37.967 132.518 37.6951C132.356 37.3689 132.139 37.1514 131.813 36.9883C131.488 36.8252 131.162 36.7164 130.674 36.7164C130.24 36.7164 129.806 36.8252 129.481 36.9883C129.156 37.2058 128.884 37.4232 128.667 37.8038C128.505 38.1301 128.396 38.565 128.396 39.0544C128.396 39.5437 128.505 39.9787 128.667 40.3049C128.83 40.6311 129.101 40.903 129.427 41.1205C129.752 41.338 130.186 41.3923 130.62 41.3923C130.945 41.3923 131.217 41.338 131.488 41.2836C131.759 41.2292 131.922 41.1205 132.084 41.0117C132.247 40.903 132.356 40.7399 132.464 40.6311C132.572 40.468 132.572 40.3593 132.627 40.1962H133.657C133.657 40.468 133.549 40.6855 133.44 40.9574C133.278 41.2292 133.115 41.4467 132.844 41.6642C132.572 41.8817 132.301 42.0448 131.922 42.1535C131.542 42.2623 131.108 42.3166 130.674 42.3166C130.023 42.3166 129.481 42.1535 128.993 41.8817C128.505 41.6098 128.125 41.2292 127.854 40.7399C127.583 40.2505 127.42 39.7068 127.42 39.0544C127.42 38.4019 127.583 37.8582 127.854 37.3689C128.125 36.8795 128.505 36.4989 128.993 36.2271C129.481 35.9552 130.023 35.7921 130.674 35.7921C131.325 35.7921 131.867 35.9552 132.356 36.2271C132.844 36.4989 133.169 36.8795 133.44 37.3689C133.711 37.8582 133.82 38.4019 133.82 39C133.82 39.0544 133.82 39.1631 133.82 39.2718C133.82 39.3806 133.82 39.435 133.82 39.4893H128.017V39.435Z" fill="#17688B"/>
<path d="M138.376 42.3166C137.779 42.3166 137.237 42.2079 136.749 41.936C136.261 41.6642 135.881 41.2836 135.61 40.7942C135.338 40.3049 135.176 39.7068 135.176 39.0544C135.176 38.4019 135.338 37.8038 135.61 37.3145C135.881 36.8252 136.261 36.4446 136.749 36.1727C137.237 35.9009 137.779 35.7921 138.376 35.7921C138.81 35.7921 139.244 35.8465 139.623 36.0096C140.003 36.1727 140.274 36.3358 140.545 36.5533C140.816 36.7708 140.979 37.0427 141.142 37.3145C141.25 37.5864 141.359 37.8582 141.359 38.1301H140.383V38.0757V38.0213C140.328 37.7495 140.274 37.532 140.057 37.3145C139.894 37.097 139.677 36.9339 139.406 36.8252C139.135 36.7164 138.81 36.6621 138.484 36.6621C138.105 36.6621 137.725 36.7708 137.399 36.9339C137.074 37.097 136.803 37.3689 136.586 37.6951C136.369 38.0213 136.261 38.4563 136.261 39C136.261 39.5437 136.369 39.9787 136.586 40.3049C136.803 40.6311 137.074 40.903 137.399 41.0661C137.725 41.2292 138.105 41.338 138.484 41.338C138.918 41.338 139.244 41.2836 139.515 41.1205C139.786 41.0117 140.003 40.7942 140.166 40.5768C140.328 40.3593 140.383 40.0874 140.383 39.8699H141.359C141.359 40.1418 141.305 40.4136 141.142 40.7399C140.979 41.0661 140.816 41.2836 140.6 41.5011C140.383 41.7185 140.057 41.936 139.677 42.0448C139.244 42.2079 138.81 42.3166 138.376 42.3166Z" fill="#17688B"/>
<path d="M145.047 42.3166C144.559 42.3166 144.125 42.2623 143.8 42.0991C143.474 41.936 143.149 41.7185 142.986 41.4467C142.823 41.1748 142.715 40.8486 142.715 40.4136C142.715 39.9787 142.823 39.6525 143.04 39.3806C143.257 39.1087 143.528 38.8913 143.962 38.7281C144.342 38.565 144.776 38.4563 145.318 38.4019C146.078 38.3476 146.62 38.2388 147 38.1844C147.325 38.1301 147.488 37.967 147.488 37.8038C147.488 37.4232 147.325 37.1514 147.054 36.9883C146.783 36.8252 146.349 36.7164 145.752 36.7164C145.156 36.7164 144.722 36.8252 144.396 37.0427C144.071 37.2601 143.908 37.5864 143.908 38.0213H142.823C142.823 37.532 142.932 37.1514 143.203 36.8252C143.42 36.4989 143.8 36.2271 144.233 36.064C144.667 35.9009 145.156 35.7921 145.698 35.7921C146.186 35.7921 146.674 35.8465 147.108 36.0096C147.542 36.1727 147.867 36.3902 148.084 36.7164C148.301 37.0427 148.464 37.4233 148.464 37.8582C148.464 37.967 148.464 38.0213 148.464 38.1301C148.464 38.2388 148.464 38.2932 148.464 38.4019V41.0661C148.464 41.2292 148.464 41.3379 148.464 41.4467C148.464 41.5554 148.518 41.7185 148.518 41.7729C148.572 41.8817 148.572 41.9904 148.627 42.0448C148.681 42.0991 148.681 42.1535 148.735 42.2079H147.705C147.705 42.2079 147.65 42.1535 147.596 42.0448C147.542 41.9904 147.542 41.8817 147.488 41.7729C147.433 41.7185 147.433 41.6098 147.433 41.4467C147.433 41.3379 147.433 41.1748 147.433 41.0661L147.596 41.1748C147.488 41.3923 147.271 41.5554 147.054 41.7185C146.837 41.8817 146.511 41.9904 146.186 42.0991C145.861 42.2623 145.481 42.3166 145.047 42.3166ZM145.21 41.3923C145.644 41.3923 145.969 41.3379 146.295 41.2292C146.62 41.1205 146.891 40.903 147.054 40.6855C147.217 40.468 147.325 40.1418 147.325 39.7612V38.5107L147.542 38.8913C147.271 39 147 39.0544 146.62 39.1087C146.24 39.1631 145.861 39.2175 145.427 39.2718C144.83 39.3262 144.396 39.435 144.071 39.5981C143.745 39.7612 143.637 40.033 143.637 40.3593C143.637 40.6855 143.745 40.9574 144.017 41.1205C144.288 41.2836 144.667 41.3923 145.21 41.3923Z" fill="#17688B"/>
<path d="M152.477 42.3166C152.097 42.3166 151.772 42.2623 151.446 42.2079C151.121 42.1535 150.85 41.9904 150.579 41.8273C150.307 41.6642 150.145 41.5011 150.036 41.2292C149.928 41.0117 149.819 40.7399 149.819 40.4136C149.819 40.3593 149.819 40.3593 149.819 40.3049C149.819 40.2505 149.819 40.2505 149.819 40.1962H150.85V40.2505V40.3049C150.85 40.6311 151.013 40.8486 151.284 41.0661C151.555 41.2292 151.989 41.3379 152.477 41.3379C152.802 41.3379 153.074 41.2836 153.345 41.2292C153.616 41.1748 153.779 41.0661 153.941 40.9573C154.104 40.8486 154.158 40.6855 154.158 40.468C154.158 40.1418 153.996 39.9243 153.724 39.7612C153.399 39.5981 152.965 39.4893 152.368 39.3806C152.043 39.3262 151.718 39.2719 151.446 39.1631C151.175 39.0544 150.904 38.9456 150.687 38.8369C150.47 38.7281 150.307 38.5107 150.145 38.2932C150.036 38.0757 149.928 37.8038 149.928 37.532C149.928 37.1514 150.036 36.8252 150.253 36.5533C150.47 36.2814 150.796 36.064 151.175 35.9552C151.555 35.7921 151.989 35.7377 152.477 35.7377C152.911 35.7377 153.345 35.7921 153.724 35.9552C154.104 36.1183 154.429 36.3358 154.646 36.6077C154.863 36.8795 155.026 37.2057 155.026 37.6407V37.6951V37.7495H153.996V37.6951C153.996 37.6951 153.996 37.6951 153.996 37.6407C153.996 37.4232 153.941 37.2057 153.779 37.097C153.616 36.9339 153.453 36.8252 153.182 36.7708C152.965 36.7164 152.694 36.662 152.423 36.662C152.152 36.662 151.935 36.662 151.663 36.7164C151.446 36.7708 151.229 36.8795 151.067 36.9883C150.904 37.097 150.85 37.2601 150.85 37.4776C150.85 37.6951 150.904 37.8582 151.067 37.9669C151.229 38.0757 151.446 38.1844 151.718 38.2932C151.989 38.3475 152.314 38.4563 152.694 38.5107C153.019 38.565 153.345 38.6194 153.616 38.7281C153.887 38.8369 154.158 38.9456 154.375 39.0544C154.592 39.2175 154.755 39.3806 154.918 39.5981C155.08 39.8156 155.135 40.0874 155.135 40.3593C155.135 40.6855 155.08 40.9573 154.918 41.1748C154.755 41.3923 154.592 41.6098 154.321 41.7729C154.05 41.936 153.779 42.0448 153.453 42.0991C153.182 42.2622 152.857 42.3166 152.477 42.3166Z" fill="#17688B"/>
<path d="M73.7245 53.6801V52.7558H78.6059L78.4432 53.0277V52.9733V52.9189C78.4432 52.5383 78.3889 52.2121 78.2262 51.9403C78.0635 51.614 77.8466 51.3966 77.5212 51.2334C77.1957 51.0703 76.8703 50.9616 76.3822 50.9616C75.9483 50.9616 75.5144 51.0703 75.1889 51.2334C74.8635 51.4509 74.5923 51.6684 74.3754 52.049C74.1584 52.3752 74.1042 52.8102 74.1042 53.2995C74.1042 53.7889 74.2127 54.2238 74.3754 54.5501C74.5381 54.8763 74.8093 55.1482 75.1347 55.3656C75.4601 55.5831 75.894 55.6375 76.3279 55.6375C76.6533 55.6375 76.9245 55.5831 77.1957 55.5288C77.4669 55.4744 77.6296 55.3656 77.7923 55.2569C77.9551 55.1482 78.0635 54.985 78.172 54.8763C78.2805 54.7132 78.2805 54.6045 78.3347 54.4413H79.3652C79.3652 54.7132 79.2567 54.9307 79.1483 55.2025C78.9856 55.4744 78.8228 55.6919 78.5517 55.9093C78.2805 56.1268 78.0093 56.2899 77.6296 56.3987C77.25 56.5074 76.8161 56.5618 76.3822 56.5618C75.7313 56.5618 75.1889 56.3987 74.7008 56.1268C74.2127 55.855 73.833 55.4744 73.5618 54.985C73.2906 54.4957 73.1279 53.952 73.1279 53.2995C73.1279 52.6471 73.2906 52.1034 73.5618 51.614C73.833 51.1247 74.2127 50.7441 74.7008 50.4723C75.1889 50.2004 75.7313 50.0373 76.3822 50.0373C77.033 50.0373 77.5754 50.2004 78.0635 50.4723C78.5517 50.7441 78.8771 51.1247 79.1483 51.614C79.4195 52.1034 79.5279 52.6471 79.5279 53.2452C79.5279 53.2995 79.5279 53.4083 79.5279 53.517C79.5279 53.6258 79.5279 53.6801 79.5279 53.7345H73.7245V53.6801Z" fill="#17688B"/>
<path d="M84.0293 56.4531V47.6993H85.0056V56.4531H84.0293Z" fill="#17688B"/>
<path d="M86.7959 56.4531V50.146H87.8264V56.4531H86.7959ZM91.3518 56.4531V53.4083C91.3518 53.2452 91.3518 53.0821 91.3518 52.9733C91.3518 52.8646 91.3518 52.7559 91.3518 52.6471C91.3518 52.3209 91.2976 52.049 91.1891 51.7772C91.0806 51.5053 90.9179 51.3422 90.6467 51.1791C90.3755 51.016 90.1044 50.9616 89.7247 50.9616C89.3993 50.9616 89.0739 51.0704 88.8027 51.2335C88.5315 51.3966 88.2603 51.6141 88.0976 51.9403C87.9349 52.2665 87.8264 52.5384 87.8264 52.919L87.2298 52.7015C87.2298 52.2121 87.3383 51.7772 87.6095 51.3422C87.8264 50.9616 88.1518 50.6354 88.5857 50.3635C88.9654 50.1461 89.4535 49.9829 89.8874 49.9829C90.3755 49.9829 90.8094 50.0917 91.1891 50.2548C91.5688 50.4179 91.84 50.6898 92.0569 51.0704C92.2739 51.3966 92.3823 51.8315 92.3823 52.3209C92.3823 52.484 92.3823 52.7015 92.3823 52.919C92.3823 53.1365 92.3823 53.2996 92.3823 53.5171V56.4531H91.3518Z" fill="#17688B"/>
<path d="M96.5043 56.5618C96.1246 56.5618 95.7992 56.5074 95.4738 56.4531C95.1484 56.3987 94.8772 56.2356 94.606 56.0725C94.3348 55.9094 94.1721 55.7463 94.0636 55.4744C93.9552 55.2569 93.8467 54.9851 93.8467 54.6588C93.8467 54.6045 93.8467 54.6045 93.8467 54.5501C93.8467 54.4957 93.8467 54.4957 93.8467 54.4414H94.8772V54.4957V54.5501C94.8772 54.8763 95.0399 55.0938 95.3111 55.3113C95.5823 55.4744 96.0162 55.5831 96.5043 55.5831C96.8297 55.5831 97.1009 55.5288 97.3721 55.4744C97.6433 55.42 97.806 55.3113 97.9687 55.2026C98.1314 55.0938 98.1857 54.9307 98.1857 54.7132C98.1857 54.387 98.0229 54.1695 97.7518 54.0064C97.4263 53.8433 96.9924 53.7345 96.3958 53.6258C96.0704 53.5714 95.745 53.517 95.4738 53.4083C95.2026 53.2996 94.9314 53.1908 94.7145 53.0821C94.4975 52.9733 94.3348 52.7559 94.1721 52.5384C94.0636 52.3209 93.9551 52.049 93.9551 51.7772C93.9551 51.3966 94.0636 51.0704 94.2806 50.7985C94.4975 50.5266 94.823 50.3092 95.2026 50.2004C95.5823 50.0373 96.0162 49.9829 96.5043 49.9829C96.9382 49.9829 97.3721 50.0373 97.7518 50.2004C98.1314 50.3635 98.4568 50.581 98.6738 50.8529C98.8907 51.1247 99.0534 51.451 99.0534 51.8859V51.9403V51.9947H98.0229V51.9403C98.0229 51.9403 98.0229 51.9403 98.0229 51.8859C98.0229 51.6684 97.9687 51.451 97.806 51.3422C97.6433 51.1791 97.4806 51.0704 97.2094 51.016C96.9924 50.9616 96.7212 50.9073 96.4501 50.9073C96.1789 50.9073 95.9619 50.9072 95.6907 50.9616C95.4738 51.016 95.2568 51.1247 95.0941 51.2335C94.9314 51.3422 94.8772 51.5053 94.8772 51.7228C94.8772 51.9403 94.9314 52.1034 95.0941 52.2122C95.2568 52.3209 95.4738 52.4296 95.745 52.5384C96.0162 52.5928 96.3416 52.7015 96.7212 52.7559C97.0467 52.8102 97.3721 52.8646 97.6433 52.9733C97.9145 53.0821 98.1857 53.1908 98.4026 53.2996C98.6196 53.4627 98.7823 53.6258 98.945 53.8433C99.1077 54.0608 99.1619 54.3326 99.1619 54.6045C99.1619 54.9307 99.1077 55.2025 98.945 55.42C98.7823 55.6375 98.6196 55.855 98.3484 56.0181C98.0772 56.1812 97.806 56.29 97.4806 56.3443C97.2094 56.5618 96.884 56.5618 96.5043 56.5618Z" fill="#17688B"/>
<path d="M103.121 56.5618C102.904 56.5618 102.742 56.5618 102.579 56.5074C102.416 56.4531 102.199 56.3987 102.091 56.2899C101.928 56.1812 101.82 56.0181 101.711 55.8006C101.603 55.5831 101.603 55.3113 101.603 54.985C101.603 54.8763 101.603 54.8219 101.603 54.7132C101.603 54.6045 101.603 54.5501 101.603 54.4413V51.0703H100.084V50.2004H101.06C101.169 50.2004 101.277 50.2004 101.386 50.2004C101.494 50.2004 101.494 50.146 101.548 50.146C101.603 50.0917 101.603 50.0373 101.603 49.9285C101.603 49.8198 101.603 49.7111 101.603 49.548V48.1343H102.633V50.2548H104.586V51.1247H102.633V54.1695C102.633 54.2782 102.633 54.3326 102.633 54.4413C102.633 54.5501 102.633 54.6044 102.633 54.6588C102.633 54.985 102.687 55.2569 102.742 55.4744C102.796 55.6375 103.013 55.7462 103.284 55.7462C103.392 55.7462 103.501 55.7462 103.609 55.6919C103.718 55.6919 103.772 55.6375 103.826 55.6375V56.5074C103.772 56.5074 103.664 56.5618 103.555 56.5618C103.447 56.5618 103.284 56.5618 103.121 56.5618Z" fill="#17688B"/>
<path d="M106.43 48.678C106.267 48.678 106.104 48.6237 105.942 48.5149C105.779 48.4062 105.725 48.2431 105.725 48.08C105.725 47.9168 105.779 47.7537 105.942 47.645C106.104 47.5363 106.213 47.4819 106.43 47.4819C106.592 47.4819 106.755 47.5363 106.918 47.645C107.081 47.7537 107.135 47.9168 107.135 48.08C107.135 48.2431 107.081 48.4062 106.918 48.5149C106.755 48.6237 106.592 48.678 106.43 48.678ZM105.887 56.4531V50.146H106.864V56.4531H105.887Z" fill="#17688B"/>
<path d="M111.257 56.5618C111.04 56.5618 110.877 56.5618 110.715 56.5074C110.552 56.4531 110.335 56.3987 110.226 56.2899C110.064 56.1812 109.955 56.0181 109.847 55.8006C109.738 55.5831 109.738 55.3113 109.738 54.985C109.738 54.8763 109.738 54.8219 109.738 54.7132C109.738 54.6045 109.738 54.5501 109.738 54.4413V51.0703H108.22V50.2004H109.196C109.304 50.2004 109.413 50.2004 109.521 50.2004C109.63 50.2004 109.63 50.146 109.684 50.146C109.738 50.0917 109.738 50.0373 109.738 49.9285C109.738 49.8198 109.738 49.7111 109.738 49.548V48.1343H110.769V50.2548H112.721V51.1247H110.769V54.1695C110.769 54.2782 110.769 54.3326 110.769 54.4413C110.769 54.5501 110.769 54.6044 110.769 54.6588C110.769 54.985 110.823 55.2569 110.877 55.4744C110.932 55.6375 111.149 55.7462 111.42 55.7462C111.528 55.7462 111.637 55.7462 111.745 55.6919C111.854 55.6919 111.908 55.6375 111.962 55.6375V56.5074C111.908 56.5074 111.799 56.5618 111.691 56.5618C111.582 56.5618 111.42 56.5618 111.257 56.5618Z" fill="#17688B"/>
<path d="M116.301 56.5618C115.867 56.5618 115.487 56.5074 115.162 56.3443C114.837 56.1812 114.62 55.9637 114.457 55.7462C114.294 55.4744 114.131 55.2025 114.077 54.9307C114.023 54.6588 113.969 54.3326 113.969 54.1151C113.969 53.952 113.969 53.7889 113.969 53.6258C113.969 53.4627 113.969 53.2995 113.969 53.1364V50.146H114.999V52.9733C114.999 53.1364 114.999 53.2452 114.999 53.4083C114.999 53.5714 114.999 53.6801 114.999 53.7889C114.999 54.1151 115.053 54.387 115.108 54.6588C115.162 54.9307 115.379 55.1482 115.596 55.3113C115.813 55.4744 116.138 55.5831 116.518 55.5831C116.898 55.5831 117.223 55.4744 117.494 55.2569C117.765 55.0394 117.982 54.7676 118.145 54.4413C118.308 54.1151 118.362 53.7889 118.362 53.4627L118.959 53.6801C118.959 54.0064 118.904 54.387 118.796 54.7132C118.687 55.0394 118.525 55.3656 118.254 55.6375C118.037 55.9093 117.765 56.1268 117.44 56.29C117.06 56.5074 116.735 56.5618 116.301 56.5618ZM118.362 56.4531V50.146H119.392V56.4531H118.362Z" fill="#17688B"/>
<path d="M121.67 48.678C121.507 48.678 121.345 48.6237 121.182 48.5149C121.019 48.4062 120.965 48.2431 120.965 48.08C120.965 47.9168 121.019 47.7537 121.182 47.645C121.345 47.5363 121.453 47.4819 121.67 47.4819C121.887 47.4819 121.995 47.5363 122.158 47.645C122.321 47.7537 122.375 47.9168 122.375 48.08C122.375 48.2431 122.321 48.4062 122.158 48.5149C121.995 48.6237 121.887 48.678 121.67 48.678ZM121.182 56.4531V50.146H122.158V56.4531H121.182Z" fill="#17688B"/>
<path d="M127.039 56.5618C126.443 56.5618 125.9 56.4531 125.412 56.1812C124.924 55.9093 124.544 55.5287 124.219 55.0394C123.948 54.5501 123.785 53.952 123.785 53.2995C123.785 52.6471 123.948 52.049 124.219 51.5597C124.49 51.0703 124.87 50.6897 125.412 50.4179C125.955 50.146 126.443 50.0373 127.039 50.0373C127.473 50.0373 127.907 50.0917 128.287 50.2548C128.667 50.4179 128.938 50.581 129.209 50.7985C129.48 51.016 129.643 51.2878 129.805 51.5597C129.914 51.8315 130.022 52.1034 130.022 52.3752H129.046V52.3209V52.2665C128.992 51.9946 128.938 51.7772 128.721 51.5597C128.558 51.3422 128.341 51.1791 128.07 51.0703C127.799 50.9616 127.473 50.9072 127.148 50.9072C126.768 50.9072 126.389 51.016 126.063 51.1791C125.738 51.3422 125.467 51.614 125.25 51.9403C125.033 52.2665 124.924 52.7015 124.924 53.2452C124.924 53.7889 125.033 54.2238 125.25 54.5501C125.467 54.8763 125.738 55.1481 126.063 55.3113C126.389 55.4744 126.768 55.5831 127.148 55.5831C127.582 55.5831 127.907 55.5287 128.178 55.3656C128.45 55.2025 128.667 55.0394 128.829 54.8219C128.992 54.6044 129.046 54.3326 129.046 54.1151H130.022C130.022 54.387 129.968 54.6588 129.86 54.985C129.751 55.3113 129.534 55.5288 129.317 55.7462C129.046 55.9637 128.775 56.1812 128.395 56.2899C127.961 56.5074 127.528 56.5618 127.039 56.5618ZM127.473 57.0511C127.582 57.0511 127.744 57.1055 127.853 57.1599C127.961 57.2143 128.07 57.323 128.178 57.4317C128.233 57.5405 128.287 57.7036 128.287 57.9211C128.287 58.1386 128.233 58.356 128.07 58.5192C127.961 58.6823 127.744 58.791 127.582 58.8454C127.365 58.8997 127.148 58.9541 126.931 58.9541C126.714 58.9541 126.497 58.9541 126.334 58.8997C126.117 58.8454 126.009 58.791 125.955 58.7366L126.172 58.3017C126.226 58.356 126.334 58.356 126.497 58.4648C126.66 58.5192 126.822 58.5735 127.039 58.5735C127.256 58.5735 127.473 58.5192 127.636 58.4104C127.799 58.3017 127.907 58.1386 127.907 57.9211C127.907 57.758 127.853 57.6492 127.799 57.5405C127.744 57.4317 127.582 57.4317 127.473 57.4317C127.365 57.4317 127.256 57.4317 127.148 57.4861C127.039 57.5405 126.985 57.5949 126.931 57.6492L126.497 57.4861L126.931 56.4531H127.473L127.094 57.4317L126.931 57.3774C126.985 57.2686 127.039 57.2143 127.202 57.1599C127.148 57.1055 127.311 57.0511 127.473 57.0511Z" fill="#17688B"/>
<path d="M134.525 56.5618C133.874 56.5618 133.332 56.3987 132.843 56.1268C132.355 55.855 131.976 55.4744 131.704 54.9851C131.433 54.4957 131.271 53.952 131.271 53.2996C131.271 52.6471 131.433 52.1034 131.704 51.6141C131.976 51.1247 132.355 50.7441 132.843 50.4723C133.332 50.2004 133.874 50.0373 134.525 50.0373C135.176 50.0373 135.718 50.2004 136.206 50.4723C136.694 50.7441 137.074 51.1247 137.345 51.6141C137.616 52.1034 137.779 52.6471 137.779 53.2996C137.779 53.952 137.616 54.4957 137.345 54.9851C137.074 55.4744 136.694 55.855 136.206 56.1268C135.718 56.3987 135.176 56.5618 134.525 56.5618ZM134.525 55.6375C134.959 55.6375 135.338 55.5288 135.664 55.3656C135.989 55.1482 136.26 54.8763 136.423 54.5501C136.586 54.2239 136.694 53.7889 136.694 53.2996C136.694 52.8102 136.586 52.4296 136.423 52.049C136.26 51.6684 135.989 51.4509 135.664 51.2334C135.338 51.0703 134.959 50.9616 134.525 50.9616C134.091 50.9616 133.711 51.0703 133.386 51.2334C133.06 51.3966 132.789 51.6684 132.626 52.049C132.464 52.3752 132.355 52.8102 132.355 53.2996C132.355 53.7889 132.464 54.1695 132.626 54.5501C132.789 54.8763 133.06 55.2025 133.386 55.3656C133.711 55.5288 134.091 55.6375 134.525 55.6375ZM136.206 47.8081C136.206 47.9168 136.152 48.0799 136.098 48.1887C136.043 48.3518 135.935 48.4605 135.772 48.5693C135.609 48.678 135.447 48.7324 135.23 48.7324C135.067 48.7324 134.904 48.678 134.742 48.6237C134.633 48.5693 134.471 48.4605 134.416 48.4062C134.308 48.3518 134.254 48.2974 134.145 48.243C134.037 48.1887 133.928 48.1343 133.82 48.1343C133.657 48.1343 133.548 48.1887 133.494 48.2974C133.44 48.4062 133.386 48.5149 133.386 48.5693H132.789C132.789 48.4605 132.843 48.2974 132.898 48.1343C132.952 47.9712 133.115 47.8625 133.223 47.7537C133.386 47.645 133.548 47.5906 133.765 47.5906C133.928 47.5906 134.091 47.645 134.199 47.6993C134.308 47.7537 134.416 47.8625 134.525 47.9168C134.633 47.9712 134.742 48.0799 134.796 48.1343C134.904 48.1887 135.013 48.243 135.121 48.243C135.284 48.243 135.393 48.1887 135.447 48.0799C135.501 47.9712 135.501 47.9168 135.555 47.8081H136.206Z" fill="#17688B"/>
<path d="M139.622 53.6801V52.7558H144.504L144.341 53.0277V52.9733V52.9189C144.341 52.5383 144.287 52.2121 144.124 51.9403C143.961 51.614 143.744 51.3966 143.419 51.2334C143.094 51.0703 142.768 50.9616 142.28 50.9616C141.846 50.9616 141.467 51.0703 141.087 51.2334C140.761 51.4509 140.49 51.6684 140.273 52.049C140.056 52.3752 140.002 52.8102 140.002 53.2995C140.002 53.7889 140.111 54.2238 140.273 54.5501C140.436 54.8763 140.707 55.1482 141.087 55.3656C141.412 55.5831 141.846 55.6375 142.28 55.6375C142.606 55.6375 142.877 55.5831 143.148 55.5288C143.419 55.4744 143.582 55.3656 143.745 55.2569C143.907 55.1482 144.016 54.985 144.124 54.8763C144.233 54.7132 144.233 54.6045 144.287 54.4413H145.317C145.317 54.7132 145.209 54.9307 145.1 55.2025C144.938 55.4744 144.775 55.6919 144.504 55.9093C144.233 56.1268 143.961 56.2899 143.582 56.3987C143.202 56.5074 142.768 56.5618 142.334 56.5618C141.683 56.5618 141.141 56.3987 140.653 56.1268C140.165 55.855 139.785 55.4744 139.514 54.985C139.243 54.4957 139.08 53.952 139.08 53.2995C139.08 52.6471 139.243 52.1034 139.514 51.614C139.785 51.1247 140.165 50.7441 140.653 50.4723C141.141 50.2004 141.683 50.0373 142.334 50.0373C142.985 50.0373 143.528 50.2004 144.016 50.4723C144.504 50.7441 144.829 51.1247 145.1 51.614C145.372 52.1034 145.48 52.6471 145.48 53.2452C145.48 53.2995 145.48 53.4083 145.48 53.517C145.48 53.6258 145.48 53.6801 145.48 53.7345H139.622V53.6801Z" fill="#17688B"/>
<path d="M149.385 56.5618C149.005 56.5618 148.68 56.5074 148.355 56.4531C148.029 56.3987 147.758 56.2356 147.487 56.0725C147.216 55.9094 147.053 55.7463 146.944 55.4744C146.836 55.2569 146.728 54.9851 146.728 54.6588C146.728 54.6045 146.728 54.6045 146.728 54.5501C146.728 54.4957 146.728 54.4957 146.728 54.4414H147.758V54.4957V54.5501C147.758 54.8763 147.921 55.0938 148.192 55.3113C148.463 55.4744 148.897 55.5831 149.385 55.5831C149.711 55.5831 149.982 55.5288 150.253 55.4744C150.524 55.42 150.687 55.3113 150.85 55.2026C151.012 55.0938 151.067 54.9307 151.067 54.7132C151.067 54.387 150.904 54.1695 150.633 54.0064C150.307 53.8433 149.873 53.7345 149.277 53.6258C148.951 53.5714 148.626 53.517 148.355 53.4083C148.083 53.2996 147.812 53.1908 147.595 53.0821C147.378 52.9733 147.216 52.7559 147.053 52.5384C146.944 52.3209 146.836 52.049 146.836 51.7772C146.836 51.3966 146.944 51.0704 147.161 50.7985C147.378 50.5266 147.704 50.3092 148.083 50.2004C148.463 50.0373 148.897 49.9829 149.385 49.9829C149.819 49.9829 150.253 50.0373 150.633 50.2004C151.012 50.3635 151.338 50.581 151.555 50.8529C151.772 51.1247 151.934 51.451 151.934 51.8859V51.9403V51.9947H150.958V51.9403C150.958 51.9403 150.958 51.9403 150.958 51.8859C150.958 51.6684 150.904 51.451 150.741 51.3422C150.578 51.1791 150.416 51.0704 150.144 51.016C149.928 50.9616 149.656 50.9073 149.385 50.9073C149.114 50.9073 148.897 50.9072 148.626 50.9616C148.409 51.016 148.192 51.1247 148.029 51.2335C147.867 51.3422 147.812 51.5053 147.812 51.7228C147.812 51.9403 147.867 52.1034 148.029 52.2122C148.192 52.3209 148.409 52.4296 148.68 52.5384C148.951 52.5928 149.277 52.7015 149.656 52.7559C149.982 52.8102 150.307 52.8646 150.578 52.9733C150.85 53.0821 151.121 53.1908 151.338 53.2996C151.555 53.4627 151.717 53.6258 151.88 53.8433C152.043 54.0608 152.097 54.3326 152.097 54.6045C152.097 54.9307 152.043 55.2025 151.88 55.42C151.717 55.6375 151.555 55.855 151.283 56.0181C151.012 56.1812 150.741 56.29 150.416 56.3443C150.09 56.5618 149.765 56.5618 149.385 56.5618Z" fill="#17688B"/>
<path d="M47.2575 44.5458H11.5693V33.1823H52.0304V39.7068C52.0304 42.371 49.9151 44.5458 47.2575 44.5458Z" fill="#0B2130"/>
<path d="M27.1886 40.903C28.0873 40.903 28.8158 40.1727 28.8158 39.2718C28.8158 38.371 28.0873 37.6407 27.1886 37.6407C26.29 37.6407 25.5615 38.371 25.5615 39.2718C25.5615 40.1727 26.29 40.903 27.1886 40.903Z" fill="white"/>
<path d="M31.6359 40.903C32.5345 40.903 33.263 40.1727 33.263 39.2718C33.263 38.371 32.5345 37.6407 31.6359 37.6407C30.7373 37.6407 30.0088 38.371 30.0088 39.2718C30.0088 40.1727 30.7373 40.903 31.6359 40.903Z" fill="white"/>
<path d="M36.0832 40.903C36.9818 40.903 37.7103 40.1727 37.7103 39.2718C37.7103 38.371 36.9818 37.6407 36.0832 37.6407C35.1845 37.6407 34.4561 38.371 34.4561 39.2718C34.4561 40.1727 35.1845 40.903 36.0832 40.903Z" fill="white"/>
<path d="M73.7793 77.1684V70.9157H75.6234C76.8708 70.9157 77.6301 71.5138 77.6301 72.6012C77.6301 73.6886 76.8708 74.2867 75.6234 74.2867H74.3759V77.2227H73.7793V77.1684ZM74.4301 73.6886H75.5149C76.4369 73.6886 76.9793 73.308 76.9793 72.6012C76.9793 71.84 76.3827 71.5138 75.5149 71.5138H74.4301V73.6886Z" fill="#9D9D9C"/>
<path d="M78.8232 77.1684V70.9157H80.7758C82.0232 70.9157 82.7826 71.5138 82.7826 72.6012C82.7826 73.4711 82.2402 74.1236 81.2097 74.2323L82.9995 77.2227H82.2402L80.5046 74.2867H79.4199V77.2227H78.8232V77.1684ZM80.6673 73.6886C81.5893 73.6886 82.1317 73.308 82.1317 72.6012C82.1317 71.8944 81.5893 71.5138 80.6673 71.5138H79.4741V73.6886H80.6673Z" fill="#9D9D9C"/>
<path d="M90.1589 74.0149C90.1589 75.9179 88.7487 77.3315 86.9046 77.3315C85.0606 77.3315 83.6504 75.9179 83.6504 74.0149C83.6504 72.1119 85.0606 70.6982 86.9046 70.6982C88.8029 70.7526 90.1589 72.1663 90.1589 74.0149ZM86.9046 76.7334C88.4233 76.7334 89.4538 75.5373 89.4538 74.0149C89.4538 72.4925 88.4233 71.2963 86.8504 71.2963C85.3317 71.2963 84.3012 72.4925 84.3012 74.0149C84.3012 75.5373 85.386 76.7334 86.9046 76.7334Z" fill="#9D9D9C"/>
<path d="M94.0639 75.4829C94.0639 76.4615 93.4673 77.3315 92.3283 77.3315C91.4605 77.3315 90.8639 76.8965 90.7012 76.0266L91.352 75.9178C91.4605 76.4616 91.7859 76.7878 92.3283 76.7878C93.0876 76.7878 93.413 76.2441 93.413 75.2654V70.9157H94.0639V75.4829Z" fill="#9D9D9C"/>
<path d="M95.6914 70.9157H99.5423V71.5138H96.288V73.6343H99.3253V74.2323H96.288V76.6247H99.6507V77.2227H95.6914V70.9157Z" fill="#9D9D9C"/>
<path d="M100.193 70.9157H105.02V71.5138H102.905V77.2227H102.254V71.5138H100.139V70.9157H100.193Z" fill="#9D9D9C"/>
<path d="M112.071 74.0149C112.071 75.9179 110.661 77.3315 108.817 77.3315C106.973 77.3315 105.562 75.9179 105.562 74.0149C105.562 72.1119 106.973 70.6982 108.817 70.6982C110.715 70.7526 112.071 72.1663 112.071 74.0149ZM108.817 76.7334C110.335 76.7334 111.366 75.5373 111.366 74.0149C111.366 72.4925 110.335 71.2963 108.763 71.2963C107.244 71.2963 106.213 72.4925 106.213 74.0149C106.213 75.5373 107.298 76.7334 108.817 76.7334Z" fill="#9D9D9C"/>
<path d="M151.556 71.7313C150.905 71.0788 150.146 70.6982 149.224 70.6982C148.247 70.6982 147.434 71.0245 146.783 71.7313C146.132 72.4381 145.807 73.2537 145.807 74.178C145.807 75.1023 146.132 75.9178 146.783 76.5703C147.434 77.2227 148.247 77.549 149.169 77.549C149.874 77.549 150.471 77.3315 151.068 76.9509C151.502 76.6247 151.881 76.2984 152.098 75.8635C152.098 75.8091 152.152 75.8091 152.152 75.7547C152.152 75.5916 152.044 75.4829 151.881 75.4829H150.688C150.634 75.4829 150.58 75.5373 150.525 75.5373C150.525 75.5373 150.525 75.5373 150.471 75.5373C150.308 75.646 150.146 75.7547 149.929 75.8635C149.657 75.9722 149.386 76.0266 149.115 76.0266C148.735 76.0266 148.356 75.9178 148.085 75.7004C147.759 75.4829 147.542 75.1567 147.434 74.7761H152.152H152.207C152.369 74.7761 152.478 74.6673 152.478 74.5042C152.478 74.3955 152.478 74.3955 152.478 74.3411C152.478 74.2323 152.478 74.1236 152.478 74.0692C152.478 73.1993 152.152 72.4381 151.556 71.7313ZM147.38 73.4712C147.488 73.1449 147.705 72.8187 148.03 72.6012C148.356 72.3837 148.681 72.275 149.061 72.2206H149.115H149.169C149.549 72.2206 149.929 72.3294 150.254 72.5468C150.58 72.7643 150.796 73.0362 150.905 73.4168H147.38V73.4712Z" fill="#6CA6DA"/>
<path d="M157.142 74.0149C156.708 73.743 156.274 73.5799 155.732 73.4168C155.678 73.4168 155.623 73.3624 155.569 73.3624C155.515 73.3624 155.461 73.308 155.406 73.308C155.298 73.2537 155.135 73.1993 155.027 73.0906C154.918 73.0362 154.864 72.8731 154.864 72.7643C154.864 72.6012 154.918 72.4381 155.027 72.3837C155.135 72.275 155.298 72.275 155.461 72.275C155.623 72.275 155.732 72.3294 155.84 72.3837C155.894 72.4381 155.949 72.4925 156.003 72.5468C156.057 72.6556 156.111 72.71 156.22 72.71H157.25C157.413 72.71 157.522 72.6012 157.522 72.4381V72.3837C157.467 71.9488 157.25 71.6226 156.925 71.2963C156.491 70.9157 156.003 70.6982 155.461 70.6982C154.918 70.6982 154.376 70.8614 153.942 71.242C153.508 71.6225 153.291 72.1119 153.291 72.71C153.291 72.9818 153.345 73.2537 153.454 73.4712C153.562 73.6886 153.725 73.9061 153.942 74.0692C153.996 74.1236 154.105 74.178 154.159 74.2324C154.213 74.2867 154.267 74.2867 154.376 74.3411C154.43 74.3955 154.539 74.3955 154.593 74.4498C154.647 74.5042 154.755 74.5042 154.81 74.5586C154.864 74.5586 154.918 74.6129 154.972 74.6129C155.027 74.6129 155.081 74.6673 155.135 74.6673C155.189 74.6673 155.244 74.7217 155.352 74.7217C155.406 74.7217 155.461 74.7761 155.569 74.7761C155.732 74.8304 155.895 74.9392 156.057 75.0479C156.22 75.1567 156.274 75.3198 156.274 75.4829C156.274 75.7004 156.22 75.8635 156.057 75.9179C155.895 76.0266 155.732 76.081 155.569 76.081C155.352 76.081 155.189 76.0266 155.027 75.8635C154.918 75.7547 154.864 75.646 154.81 75.5373C154.755 75.4285 154.701 75.3741 154.593 75.3741C154.593 75.3741 154.593 75.3741 154.539 75.3741H153.508C153.508 75.3741 153.508 75.3741 153.454 75.3741C153.291 75.3741 153.183 75.4829 153.183 75.646V75.7004C153.237 76.2441 153.454 76.679 153.833 77.0053C154.267 77.4402 154.81 77.6033 155.461 77.6033C155.515 77.6033 155.569 77.6033 155.623 77.6033C155.678 77.6033 155.732 77.6033 155.786 77.6033C156.003 77.549 156.274 77.4946 156.491 77.3859C156.708 77.2771 156.925 77.1684 157.088 77.0053C157.305 76.7878 157.467 76.5703 157.576 76.2984C157.684 76.0266 157.739 75.7547 157.739 75.4285C157.739 74.7217 157.522 74.2867 157.142 74.0149Z" fill="#6CA6DA"/>
<path d="M145.59 76.9509L143.203 74.0692L145.21 71.3507C145.264 71.2963 145.264 71.242 145.264 71.1876C145.264 71.0245 145.156 70.9157 144.993 70.9157H143.8C143.691 70.9157 143.637 70.9701 143.583 71.0245L141.63 73.9061V68.9584C141.63 68.7953 141.522 68.6865 141.359 68.6865H140.329C140.166 68.6865 140.058 68.7953 140.058 68.9584V77.0596C140.058 77.2228 140.166 77.3315 140.329 77.3315H141.359C141.522 77.3315 141.63 77.2228 141.63 77.0596V74.2867L143.746 77.1684C143.8 77.2228 143.854 77.2771 143.963 77.2771H145.373C145.536 77.2771 145.644 77.1684 145.644 77.0053C145.644 77.0597 145.59 77.0053 145.59 76.9509Z" fill="#6CA6DA"/>
<path d="M138.701 70.9157H137.779C137.617 70.9157 137.508 71.0245 137.508 71.1876V71.84C137.237 71.4594 136.966 71.1876 136.586 71.0245C136.206 70.8614 135.827 70.7526 135.393 70.7526C134.905 70.7526 134.471 70.8614 134.091 71.0245C133.712 71.1876 133.332 71.5138 133.006 71.8944C132.735 72.2206 132.518 72.6012 132.356 72.9818C132.247 73.3624 132.139 73.7974 132.139 74.2324C132.139 74.6673 132.193 75.1023 132.356 75.5373C132.518 75.9179 132.681 76.2985 132.952 76.6247C133.223 76.9509 133.549 77.2228 133.983 77.3859C134.362 77.549 134.851 77.6577 135.339 77.6577C135.393 77.6577 135.501 77.6577 135.556 77.6577C135.61 77.6577 135.718 77.6577 135.773 77.6577C136.098 77.6034 136.423 77.4946 136.749 77.2771C137.074 77.114 137.345 76.8965 137.508 76.5703V77.1684C137.508 77.3315 137.617 77.4402 137.779 77.4402H138.701C138.864 77.4402 138.973 77.3315 138.973 77.1684V71.242C138.973 71.0245 138.864 70.9157 138.701 70.9157ZM137.508 74.178C137.508 74.7217 137.345 75.211 136.966 75.5373C136.64 75.9179 136.152 76.081 135.61 76.081C135.067 76.081 134.634 75.9179 134.254 75.5373C133.874 75.1567 133.712 74.7217 133.712 74.2324C133.712 73.6887 133.874 73.1993 134.254 72.8187C134.634 72.4381 135.067 72.275 135.664 72.275C136.206 72.275 136.64 72.4381 137.02 72.8187C137.291 73.1449 137.508 73.6343 137.508 74.178Z" fill="#6CA6DA"/>
<path d="M124.166 69.5021C124.166 69.8827 123.841 70.2089 123.461 70.2089C123.081 70.2089 122.756 69.8827 122.756 69.5021C122.756 69.1215 123.081 68.7953 123.461 68.7953C123.841 68.7953 124.166 69.1215 124.166 69.5021Z" fill="#6CA6DA"/>
<path d="M131.108 72.8187C131.054 72.4381 130.891 72.0575 130.674 71.6769C130.674 71.6225 130.62 71.6226 130.62 71.5682C130.566 71.5682 130.566 71.5138 130.511 71.4594C130.294 71.2419 130.077 71.0788 129.752 70.9157C129.481 70.7526 129.155 70.6982 128.83 70.6982C128.776 70.6982 128.776 70.6982 128.722 70.6982C128.667 70.6982 128.667 70.6982 128.613 70.6982H128.559H128.505C128.179 70.6982 127.908 70.807 127.583 70.9157C127.311 71.0245 127.04 71.2419 126.877 71.4594V71.1332C126.877 70.9701 126.769 70.8613 126.606 70.8613H125.684C125.522 70.8613 125.413 70.9701 125.413 71.1332V77.0596C125.413 77.2227 125.522 77.3315 125.684 77.3315H126.715C126.877 77.3315 126.986 77.2227 126.986 77.0596V74.3955V74.3411V74.2867C126.986 74.178 126.986 74.1236 126.986 74.0149C126.986 73.9061 126.986 73.7974 126.986 73.6886C126.986 73.5255 127.04 73.3624 127.04 73.1993C127.094 73.0362 127.149 72.8731 127.203 72.7643C127.311 72.6012 127.42 72.4925 127.583 72.3837C127.745 72.275 127.908 72.2206 128.125 72.2206C128.179 72.2206 128.179 72.2206 128.233 72.2206H128.288H128.342C128.342 72.2206 128.342 72.2206 128.396 72.2206C128.559 72.2206 128.776 72.275 128.939 72.3837C129.101 72.4925 129.264 72.6012 129.372 72.7643C129.427 72.8731 129.481 73.0362 129.535 73.1993C129.589 73.3624 129.589 73.5255 129.589 73.6886C129.589 73.7974 129.589 73.9061 129.589 74.0149C129.589 74.1236 129.589 74.2323 129.589 74.3411V77.114C129.589 77.2771 129.698 77.3859 129.861 77.3859H130.891C131.054 77.3859 131.162 77.2771 131.162 77.114V74.0149C131.216 73.6343 131.162 73.2537 131.108 72.8187Z" fill="#6CA6DA"/>
<path d="M124.003 70.9157H122.972C122.81 70.9157 122.701 71.0245 122.701 71.1876V77.114C122.701 77.2771 122.81 77.3859 122.972 77.3859H124.003C124.166 77.3859 124.274 77.2771 124.274 77.114V71.1876C124.22 71.0245 124.111 70.9157 124.003 70.9157Z" fill="#6CA6DA"/>
<path d="M121.4 70.2089C121.183 69.8283 120.911 69.5021 120.586 69.2846C120.261 69.0671 119.881 68.904 119.555 68.904C119.176 68.8496 118.85 68.8496 118.471 68.8496H118.416H118.362H116.627C116.464 68.8496 116.355 68.9584 116.355 69.1215V77.0596C116.355 77.2227 116.464 77.3315 116.627 77.3315H117.657C117.82 77.3315 117.928 77.2227 117.928 77.0596V77.0053V74.1236H118.254C118.308 74.1236 118.308 74.1236 118.362 74.1236C118.416 74.1236 118.416 74.1236 118.471 74.1236C118.579 74.1236 118.688 74.1236 118.796 74.1236C118.905 74.1236 119.013 74.1236 119.176 74.1236C119.447 74.1236 119.772 74.0692 120.044 74.0149C120.315 73.9605 120.586 73.7974 120.803 73.6343C121.128 73.3624 121.4 73.0362 121.562 72.6556C121.725 72.275 121.833 71.8944 121.833 71.4594C121.725 71.0245 121.616 70.5895 121.4 70.2089ZM119.935 72.1119C119.772 72.275 119.61 72.4381 119.393 72.4925C119.284 72.5469 119.176 72.5469 119.067 72.5469C118.959 72.5469 118.85 72.5469 118.742 72.6012C118.688 72.6012 118.633 72.6012 118.579 72.6012C118.525 72.6012 118.471 72.6012 118.416 72.6012C118.362 72.6012 118.362 72.6012 118.308 72.6012C118.254 72.6012 118.254 72.6012 118.2 72.6012H117.874V70.372H118.145C118.2 70.372 118.2 70.372 118.254 70.372C118.308 70.372 118.308 70.372 118.362 70.372C118.416 70.372 118.471 70.372 118.579 70.372C118.688 70.372 118.742 70.372 118.796 70.372C118.905 70.372 119.013 70.372 119.122 70.372C119.23 70.372 119.339 70.4264 119.393 70.4264C119.61 70.4808 119.827 70.5895 119.989 70.807C120.152 70.9701 120.206 71.1876 120.206 71.4594C120.152 71.6769 120.044 71.8944 119.935 72.1119Z" fill="#6CA6DA"/>
<path d="M72.5322 64.3369H160.125" stroke="#C6C6C6" stroke-miterlimit="10"/>
</svg>
