<svg width="478" height="110" viewBox="0 0 478 110" fill="none" xmlns="http://www.w3.org/2000/svg">
<path d="M248.26 79.1612C248.154 80.0635 247.82 80.7608 247.258 81.253C246.699 81.7413 245.955 81.9854 245.025 81.9854C244.017 81.9854 243.209 81.6241 242.599 80.9014C241.994 80.1788 241.691 79.212 241.691 78.001V77.1807C241.691 76.3878 241.832 75.6905 242.113 75.0889C242.398 74.4874 242.801 74.0264 243.32 73.7061C243.84 73.3819 244.441 73.2198 245.125 73.2198C246.031 73.2198 246.758 73.4737 247.305 73.9815C247.851 74.4854 248.17 75.1846 248.26 76.0792H247.129C247.031 75.3995 246.818 74.9073 246.49 74.6026C246.166 74.2979 245.711 74.1456 245.125 74.1456C244.406 74.1456 243.842 74.4112 243.432 74.9424C243.025 75.4737 242.822 76.2296 242.822 77.21V78.0362C242.822 78.962 243.016 79.6983 243.402 80.2452C243.789 80.7921 244.33 81.0655 245.025 81.0655C245.65 81.0655 246.129 80.9249 246.461 80.6436C246.797 80.3585 247.019 79.8643 247.129 79.1612H248.26ZM253.545 81.8682C253.482 81.7432 253.432 81.5206 253.392 81.2003C252.889 81.7237 252.287 81.9854 251.588 81.9854C250.963 81.9854 250.449 81.8096 250.047 81.4581C249.648 81.1026 249.449 80.6534 249.449 80.1104C249.449 79.4503 249.699 78.9385 250.199 78.5753C250.703 78.2081 251.41 78.0245 252.32 78.0245H253.375V77.5264C253.375 77.1475 253.262 76.8467 253.035 76.6241C252.808 76.3975 252.474 76.2842 252.033 76.2842C251.646 76.2842 251.322 76.3819 251.06 76.5772C250.799 76.7725 250.668 77.0089 250.668 77.2862H249.578C249.578 76.9698 249.689 76.6651 249.912 76.3721C250.139 76.0753 250.443 75.8409 250.826 75.669C251.213 75.4971 251.637 75.4112 252.098 75.4112C252.828 75.4112 253.4 75.5948 253.814 75.962C254.228 76.3253 254.443 76.8272 254.459 77.4678V80.3858C254.459 80.9678 254.533 81.4307 254.682 81.7745V81.8682H253.545ZM251.746 81.0421C252.086 81.0421 252.408 80.9542 252.713 80.7784C253.017 80.6026 253.238 80.3741 253.375 80.0928V78.7921H252.525C251.197 78.7921 250.533 79.1807 250.533 79.9581C250.533 80.2979 250.646 80.5635 250.873 80.7549C251.099 80.9464 251.391 81.0421 251.746 81.0421ZM257.629 73.9932V75.5284H258.812V76.3663H257.629V80.2979C257.629 80.5518 257.682 80.7432 257.787 80.8721C257.892 80.9971 258.072 81.0596 258.326 81.0596C258.451 81.0596 258.623 81.0362 258.842 80.9893V81.8682C258.557 81.9464 258.279 81.9854 258.01 81.9854C257.525 81.9854 257.16 81.8389 256.914 81.546C256.668 81.253 256.545 80.837 256.545 80.2979V76.3663H255.391V75.5284H256.545V73.9932H257.629ZM263.998 81.8682C263.935 81.7432 263.885 81.5206 263.846 81.2003C263.342 81.7237 262.74 81.9854 262.041 81.9854C261.416 81.9854 260.902 81.8096 260.5 81.4581C260.101 81.1026 259.902 80.6534 259.902 80.1104C259.902 79.4503 260.152 78.9385 260.652 78.5753C261.156 78.2081 261.863 78.0245 262.773 78.0245H263.828V77.5264C263.828 77.1475 263.715 76.8467 263.488 76.6241C263.262 76.3975 262.928 76.2842 262.486 76.2842C262.099 76.2842 261.775 76.3819 261.514 76.5772C261.252 76.7725 261.121 77.0089 261.121 77.2862H260.031C260.031 76.9698 260.142 76.6651 260.365 76.3721C260.592 76.0753 260.896 75.8409 261.279 75.669C261.666 75.4971 262.09 75.4112 262.551 75.4112C263.281 75.4112 263.853 75.5948 264.267 75.962C264.682 76.3253 264.896 76.8272 264.912 77.4678V80.3858C264.912 80.9678 264.986 81.4307 265.135 81.7745V81.8682H263.998ZM262.199 81.0421C262.539 81.0421 262.861 80.9542 263.166 80.7784C263.471 80.6026 263.691 80.3741 263.828 80.0928V78.7921H262.978C261.65 78.7921 260.986 79.1807 260.986 79.9581C260.986 80.2979 261.099 80.5635 261.326 80.7549C261.553 80.9464 261.844 81.0421 262.199 81.0421ZM263.201 72.8682H264.514L262.943 74.5909H262.07L263.201 72.8682ZM267.789 81.8682H266.705V72.8682H267.789V81.8682ZM269.242 78.6397C269.242 78.0186 269.363 77.46 269.605 76.9639C269.851 76.4678 270.191 76.085 270.625 75.8155C271.062 75.546 271.56 75.4112 272.119 75.4112C272.982 75.4112 273.68 75.71 274.211 76.3077C274.746 76.9053 275.014 77.7003 275.014 78.6924V78.7686C275.014 79.3858 274.894 79.9405 274.656 80.4327C274.422 80.921 274.084 81.3018 273.642 81.5753C273.205 81.8487 272.701 81.9854 272.131 81.9854C271.271 81.9854 270.574 81.6866 270.039 81.0889C269.508 80.4913 269.242 79.7003 269.242 78.7159V78.6397ZM270.332 78.7686C270.332 79.4717 270.494 80.0362 270.818 80.462C271.146 80.8878 271.584 81.1006 272.131 81.1006C272.682 81.1006 273.119 80.8858 273.443 80.4561C273.767 80.0225 273.93 79.4171 273.93 78.6397C273.93 77.9444 273.764 77.3819 273.432 76.9522C273.103 76.5186 272.666 76.3018 272.119 76.3018C271.584 76.3018 271.152 76.5147 270.824 76.9405C270.496 77.3663 270.332 77.9756 270.332 78.7686ZM276.115 78.6456C276.115 77.6573 276.344 76.8721 276.801 76.2901C277.258 75.7042 277.863 75.4112 278.617 75.4112C279.391 75.4112 279.994 75.6846 280.428 76.2315L280.48 75.5284H281.471V81.7159C281.471 82.5362 281.226 83.1827 280.738 83.6553C280.254 84.128 279.601 84.3643 278.781 84.3643C278.324 84.3643 277.877 84.2667 277.439 84.0714C277.002 83.876 276.668 83.6085 276.437 83.2686L277 82.6182C277.465 83.1924 278.033 83.4796 278.705 83.4796C279.232 83.4796 279.642 83.3311 279.935 83.0342C280.232 82.7374 280.381 82.3194 280.381 81.7803V81.2354C279.947 81.7354 279.355 81.9854 278.605 81.9854C277.863 81.9854 277.262 81.6866 276.801 81.0889C276.344 80.4913 276.115 79.6768 276.115 78.6456ZM277.205 78.7686C277.205 79.4835 277.351 80.046 277.644 80.4561C277.937 80.8624 278.348 81.0655 278.875 81.0655C279.558 81.0655 280.06 80.7549 280.381 80.1339V77.2393C280.049 76.6339 279.551 76.3311 278.887 76.3311C278.359 76.3311 277.947 76.5362 277.65 76.9464C277.353 77.3565 277.205 77.9639 277.205 78.7686ZM282.824 78.6397C282.824 78.0186 282.945 77.46 283.187 76.9639C283.433 76.4678 283.773 76.085 284.207 75.8155C284.644 75.546 285.142 75.4112 285.701 75.4112C286.564 75.4112 287.262 75.71 287.793 76.3077C288.328 76.9053 288.596 77.7003 288.596 78.6924V78.7686C288.596 79.3858 288.476 79.9405 288.238 80.4327C288.004 80.921 287.666 81.3018 287.224 81.5753C286.787 81.8487 286.283 81.9854 285.713 81.9854C284.853 81.9854 284.156 81.6866 283.621 81.0889C283.09 80.4913 282.824 79.7003 282.824 78.7159V78.6397ZM283.914 78.7686C283.914 79.4717 284.076 80.0362 284.4 80.462C284.728 80.8878 285.166 81.1006 285.713 81.1006C286.264 81.1006 286.701 80.8858 287.025 80.4561C287.349 80.0225 287.512 79.4171 287.512 78.6397C287.512 77.9444 287.346 77.3819 287.014 76.9522C286.685 76.5186 286.248 76.3018 285.701 76.3018C285.166 76.3018 284.734 76.5147 284.406 76.9405C284.078 77.3663 283.914 77.9756 283.914 78.7686ZM294.308 81.8682H293.183V73.337H294.308V81.8682ZM297.226 75.5284L297.262 76.3253C297.746 75.7159 298.379 75.4112 299.16 75.4112C300.5 75.4112 301.176 76.1671 301.187 77.6788V81.8682H300.103V77.6729C300.099 77.2159 299.994 76.878 299.787 76.6592C299.584 76.4405 299.266 76.3311 298.832 76.3311C298.48 76.3311 298.172 76.4249 297.906 76.6124C297.641 76.7999 297.433 77.046 297.285 77.3506V81.8682H296.201V75.5284H297.226ZM304.293 73.9932V75.5284H305.476V76.3663H304.293V80.2979C304.293 80.5518 304.346 80.7432 304.451 80.8721C304.557 80.9971 304.736 81.0596 304.99 81.0596C305.115 81.0596 305.287 81.0362 305.506 80.9893V81.8682C305.221 81.9464 304.943 81.9854 304.674 81.9854C304.189 81.9854 303.824 81.8389 303.578 81.546C303.332 81.253 303.209 80.837 303.209 80.2979V76.3663H302.055V75.5284H303.209V73.9932H304.293ZM309.379 81.9854C308.519 81.9854 307.82 81.7042 307.281 81.1417C306.742 80.5753 306.473 79.8194 306.473 78.8741V78.6749C306.473 78.046 306.592 77.4854 306.83 76.9932C307.072 76.4971 307.408 76.1104 307.838 75.8331C308.271 75.5518 308.74 75.4112 309.244 75.4112C310.068 75.4112 310.709 75.6827 311.166 76.2256C311.623 76.7686 311.851 77.546 311.851 78.5577V79.0089H307.557C307.572 79.6339 307.754 80.1397 308.101 80.5264C308.453 80.9092 308.898 81.1006 309.437 81.1006C309.82 81.1006 310.144 81.0225 310.41 80.8663C310.676 80.71 310.908 80.503 311.107 80.2452L311.769 80.7608C311.238 81.5772 310.441 81.9854 309.379 81.9854ZM309.244 76.3018C308.807 76.3018 308.439 76.462 308.142 76.7823C307.846 77.0987 307.662 77.544 307.592 78.1182H310.767V78.0362C310.736 77.4854 310.588 77.0596 310.322 76.7589C310.057 76.4542 309.697 76.3018 309.244 76.3018ZM312.853 78.6456C312.853 77.6573 313.082 76.8721 313.539 76.2901C313.996 75.7042 314.601 75.4112 315.355 75.4112C316.129 75.4112 316.732 75.6846 317.166 76.2315L317.219 75.5284H318.209V81.7159C318.209 82.5362 317.965 83.1827 317.476 83.6553C316.992 84.128 316.34 84.3643 315.519 84.3643C315.062 84.3643 314.615 84.2667 314.178 84.0714C313.74 83.876 313.406 83.6085 313.176 83.2686L313.738 82.6182C314.203 83.1924 314.771 83.4796 315.443 83.4796C315.971 83.4796 316.381 83.3311 316.674 83.0342C316.971 82.7374 317.119 82.3194 317.119 81.7803V81.2354C316.685 81.7354 316.094 81.9854 315.344 81.9854C314.601 81.9854 314 81.6866 313.539 81.0889C313.082 80.4913 312.853 79.6768 312.853 78.6456ZM313.943 78.7686C313.943 79.4835 314.09 80.046 314.383 80.4561C314.676 80.8624 315.086 81.0655 315.613 81.0655C316.297 81.0655 316.799 80.7549 317.119 80.1339V77.2393C316.787 76.6339 316.289 76.3311 315.625 76.3311C315.098 76.3311 314.685 76.5362 314.389 76.9464C314.092 77.3565 313.943 77.9639 313.943 78.7686ZM322.914 76.501C322.75 76.4737 322.572 76.46 322.381 76.46C321.67 76.46 321.187 76.7628 320.933 77.3682V81.8682H319.849V75.5284H320.904L320.922 76.2608C321.277 75.6944 321.781 75.4112 322.433 75.4112C322.644 75.4112 322.805 75.4385 322.914 75.4932V76.501ZM327.596 81.8682C327.533 81.7432 327.482 81.5206 327.443 81.2003C326.939 81.7237 326.338 81.9854 325.639 81.9854C325.014 81.9854 324.5 81.8096 324.098 81.4581C323.699 81.1026 323.5 80.6534 323.5 80.1104C323.5 79.4503 323.75 78.9385 324.25 78.5753C324.754 78.2081 325.461 78.0245 326.371 78.0245H327.426V77.5264C327.426 77.1475 327.312 76.8467 327.086 76.6241C326.859 76.3975 326.525 76.2842 326.084 76.2842C325.697 76.2842 325.373 76.3819 325.111 76.5772C324.849 76.7725 324.719 77.0089 324.719 77.2862H323.629C323.629 76.9698 323.74 76.6651 323.963 76.3721C324.189 76.0753 324.494 75.8409 324.877 75.669C325.264 75.4971 325.687 75.4112 326.148 75.4112C326.879 75.4112 327.451 75.5948 327.865 75.962C328.279 76.3253 328.494 76.8272 328.51 77.4678V80.3858C328.51 80.9678 328.584 81.4307 328.732 81.7745V81.8682H327.596ZM325.797 81.0421C326.137 81.0421 326.459 80.9542 326.764 80.7784C327.068 80.6026 327.289 80.3741 327.426 80.0928V78.7921H326.576C325.248 78.7921 324.584 79.1807 324.584 79.9581C324.584 80.2979 324.697 80.5635 324.924 80.7549C325.15 80.9464 325.441 81.0421 325.797 81.0421ZM329.945 78.6456C329.945 77.6729 330.176 76.8917 330.637 76.3018C331.098 75.7081 331.701 75.4112 332.447 75.4112C333.189 75.4112 333.777 75.6651 334.211 76.1729V72.8682H335.295V81.8682H334.299L334.246 81.1885C333.812 81.7198 333.209 81.9854 332.435 81.9854C331.701 81.9854 331.101 81.6846 330.637 81.0831C330.176 80.4815 329.945 79.6964 329.945 78.7276V78.6456ZM331.029 78.7686C331.029 79.4874 331.178 80.0499 331.474 80.4561C331.771 80.8624 332.182 81.0655 332.705 81.0655C333.392 81.0655 333.894 80.7569 334.211 80.1397V77.2276C333.887 76.6299 333.389 76.3311 332.717 76.3311C332.185 76.3311 331.771 76.5362 331.474 76.9464C331.178 77.3565 331.029 77.9639 331.029 78.7686ZM336.695 78.6397C336.695 78.0186 336.816 77.46 337.058 76.9639C337.305 76.4678 337.644 76.085 338.078 75.8155C338.516 75.546 339.014 75.4112 339.572 75.4112C340.435 75.4112 341.133 75.71 341.664 76.3077C342.199 76.9053 342.467 77.7003 342.467 78.6924V78.7686C342.467 79.3858 342.348 79.9405 342.109 80.4327C341.875 80.921 341.537 81.3018 341.096 81.5753C340.658 81.8487 340.154 81.9854 339.584 81.9854C338.724 81.9854 338.027 81.6866 337.492 81.0889C336.961 80.4913 336.695 79.7003 336.695 78.7159V78.6397ZM337.785 78.7686C337.785 79.4717 337.947 80.0362 338.271 80.462C338.599 80.8878 339.037 81.1006 339.584 81.1006C340.135 81.1006 340.572 80.8858 340.896 80.4561C341.221 80.0225 341.383 79.4171 341.383 78.6397C341.383 77.9444 341.217 77.3819 340.885 76.9522C340.557 76.5186 340.119 76.3018 339.572 76.3018C339.037 76.3018 338.605 76.5147 338.277 76.9405C337.949 77.3663 337.785 77.9756 337.785 78.7686ZM346.973 81.8682V73.337H349.762C350.687 73.337 351.383 73.5284 351.848 73.9112C352.316 74.294 352.551 74.8604 352.551 75.6104C352.551 76.0089 352.437 76.3624 352.211 76.671C351.984 76.9756 351.676 77.212 351.285 77.3799C351.746 77.5089 352.109 77.7549 352.375 78.1182C352.644 78.4776 352.779 78.9073 352.779 79.4073C352.779 80.1729 352.531 80.7745 352.035 81.212C351.539 81.6495 350.838 81.8682 349.932 81.8682H346.973ZM348.098 77.878V80.9483H349.955C350.478 80.9483 350.891 80.8135 351.191 80.544C351.496 80.2706 351.648 79.8956 351.648 79.419C351.648 78.3917 351.09 77.878 349.973 77.878H348.098ZM348.098 76.9756H349.797C350.289 76.9756 350.682 76.8526 350.974 76.6065C351.271 76.3604 351.42 76.0264 351.42 75.6046C351.42 75.1358 351.283 74.796 351.01 74.585C350.736 74.3702 350.32 74.2628 349.762 74.2628H348.098V76.9756ZM357.344 76.501C357.18 76.4737 357.002 76.46 356.81 76.46C356.099 76.46 355.617 76.7628 355.363 77.3682V81.8682H354.279V75.5284H355.334L355.351 76.2608C355.707 75.6944 356.211 75.4112 356.863 75.4112C357.074 75.4112 357.234 75.4385 357.344 75.4932V76.501ZM362.025 81.8682C361.963 81.7432 361.912 81.5206 361.873 81.2003C361.369 81.7237 360.767 81.9854 360.068 81.9854C359.443 81.9854 358.93 81.8096 358.527 81.4581C358.129 81.1026 357.93 80.6534 357.93 80.1104C357.93 79.4503 358.18 78.9385 358.68 78.5753C359.183 78.2081 359.891 78.0245 360.801 78.0245H361.855V77.5264C361.855 77.1475 361.742 76.8467 361.516 76.6241C361.289 76.3975 360.955 76.2842 360.514 76.2842C360.127 76.2842 359.803 76.3819 359.541 76.5772C359.279 76.7725 359.148 77.0089 359.148 77.2862H358.058C358.058 76.9698 358.17 76.6651 358.392 76.3721C358.619 76.0753 358.924 75.8409 359.307 75.669C359.693 75.4971 360.117 75.4112 360.578 75.4112C361.308 75.4112 361.881 75.5948 362.295 75.962C362.709 76.3253 362.924 76.8272 362.939 77.4678V80.3858C362.939 80.9678 363.014 81.4307 363.162 81.7745V81.8682H362.025ZM360.226 81.0421C360.566 81.0421 360.889 80.9542 361.193 80.7784C361.498 80.6026 361.719 80.3741 361.855 80.0928V78.7921H361.006C359.678 78.7921 359.014 79.1807 359.014 79.9581C359.014 80.2979 359.127 80.5635 359.353 80.7549C359.58 80.9464 359.871 81.0421 360.226 81.0421ZM368.33 80.1866C368.33 79.8936 368.219 79.6671 367.996 79.5069C367.777 79.3428 367.392 79.2022 366.842 79.085C366.295 78.9678 365.859 78.8272 365.535 78.6631C365.215 78.4991 364.976 78.3038 364.82 78.0772C364.668 77.8506 364.592 77.5811 364.592 77.2686C364.592 76.7491 364.81 76.3096 365.248 75.9503C365.689 75.5909 366.252 75.4112 366.935 75.4112C367.654 75.4112 368.236 75.5967 368.682 75.9678C369.131 76.3389 369.355 76.8135 369.355 77.3917H368.266C368.266 77.0948 368.139 76.8389 367.885 76.6241C367.635 76.4092 367.318 76.3018 366.935 76.3018C366.541 76.3018 366.232 76.3878 366.01 76.5596C365.787 76.7315 365.676 76.9561 365.676 77.2335C365.676 77.4952 365.779 77.6924 365.986 77.8253C366.193 77.9581 366.566 78.085 367.105 78.2061C367.648 78.3272 368.088 78.4717 368.424 78.6397C368.76 78.8077 369.008 79.0108 369.168 79.2491C369.332 79.4835 369.414 79.7706 369.414 80.1104C369.414 80.6768 369.187 81.1319 368.734 81.4756C368.281 81.8155 367.693 81.9854 366.971 81.9854C366.463 81.9854 366.014 81.8956 365.623 81.7159C365.232 81.5362 364.926 81.2862 364.703 80.9659C364.484 80.6417 364.375 80.2921 364.375 79.9171H365.459C365.478 80.2803 365.623 80.5694 365.892 80.7842C366.166 80.9952 366.525 81.1006 366.971 81.1006C367.381 81.1006 367.709 81.0186 367.955 80.8546C368.205 80.6866 368.33 80.4639 368.33 80.1866ZM372.004 81.8682H370.92V75.5284H372.004V81.8682ZM370.832 73.8467C370.832 73.671 370.885 73.5225 370.99 73.4014C371.099 73.2803 371.26 73.2198 371.471 73.2198C371.682 73.2198 371.842 73.2803 371.951 73.4014C372.06 73.5225 372.115 73.671 372.115 73.8467C372.115 74.0225 372.06 74.169 371.951 74.2862C371.842 74.4034 371.682 74.462 371.471 74.462C371.26 74.462 371.099 74.4034 370.99 74.2862C370.885 74.169 370.832 74.0225 370.832 73.8467ZM374.922 81.8682H373.838V72.8682H374.922V81.8682ZM379.293 81.9854C378.433 81.9854 377.734 81.7042 377.195 81.1417C376.656 80.5753 376.387 79.8194 376.387 78.8741V78.6749C376.387 78.046 376.506 77.4854 376.744 76.9932C376.986 76.4971 377.322 76.1104 377.752 75.8331C378.185 75.5518 378.654 75.4112 379.158 75.4112C379.982 75.4112 380.623 75.6827 381.08 76.2256C381.537 76.7686 381.766 77.546 381.766 78.5577V79.0089H377.471C377.486 79.6339 377.668 80.1397 378.016 80.5264C378.367 80.9092 378.812 81.1006 379.351 81.1006C379.734 81.1006 380.058 81.0225 380.324 80.8663C380.59 80.71 380.822 80.503 381.021 80.2452L381.683 80.7608C381.152 81.5772 380.355 81.9854 379.293 81.9854ZM379.158 76.3018C378.721 76.3018 378.353 76.462 378.057 76.7823C377.76 77.0987 377.576 77.544 377.506 78.1182H380.682V78.0362C380.65 77.4854 380.502 77.0596 380.236 76.7589C379.971 76.4542 379.611 76.3018 379.158 76.3018ZM384.203 81.8682H383.119V75.5284H384.203V81.8682ZM383.031 73.8467C383.031 73.671 383.084 73.5225 383.189 73.4014C383.299 73.2803 383.459 73.2198 383.67 73.2198C383.881 73.2198 384.041 73.2803 384.15 73.4014C384.26 73.5225 384.314 73.671 384.314 73.8467C384.314 74.0225 384.26 74.169 384.15 74.2862C384.041 74.4034 383.881 74.462 383.67 74.462C383.459 74.462 383.299 74.4034 383.189 74.2862C383.084 74.169 383.031 74.0225 383.031 73.8467ZM389.008 76.501C388.844 76.4737 388.666 76.46 388.474 76.46C387.764 76.46 387.281 76.7628 387.027 77.3682V81.8682H385.943V75.5284H386.998L387.016 76.2608C387.371 75.6944 387.875 75.4112 388.527 75.4112C388.738 75.4112 388.898 75.4385 389.008 75.4932V76.501ZM389.605 78.6397C389.605 78.0186 389.726 77.46 389.969 76.9639C390.215 76.4678 390.555 76.085 390.988 75.8155C391.426 75.546 391.924 75.4112 392.482 75.4112C393.346 75.4112 394.043 75.71 394.574 76.3077C395.109 76.9053 395.377 77.7003 395.377 78.6924V78.7686C395.377 79.3858 395.258 79.9405 395.019 80.4327C394.785 80.921 394.447 81.3018 394.006 81.5753C393.568 81.8487 393.064 81.9854 392.494 81.9854C391.635 81.9854 390.937 81.6866 390.402 81.0889C389.871 80.4913 389.605 79.7003 389.605 78.7159V78.6397ZM390.695 78.7686C390.695 79.4717 390.857 80.0362 391.182 80.462C391.51 80.8878 391.947 81.1006 392.494 81.1006C393.045 81.1006 393.482 80.8858 393.807 80.4561C394.131 80.0225 394.293 79.4171 394.293 78.6397C394.293 77.9444 394.127 77.3819 393.795 76.9522C393.467 76.5186 393.029 76.3018 392.482 76.3018C391.947 76.3018 391.516 76.5147 391.187 76.9405C390.859 77.3663 390.695 77.9756 390.695 78.7686ZM399.449 78.6456C399.449 77.6729 399.68 76.8917 400.141 76.3018C400.601 75.7081 401.205 75.4112 401.951 75.4112C402.693 75.4112 403.281 75.6651 403.715 76.1729V72.8682H404.799V81.8682H403.803L403.75 81.1885C403.316 81.7198 402.713 81.9854 401.939 81.9854C401.205 81.9854 400.605 81.6846 400.141 81.0831C399.68 80.4815 399.449 79.6964 399.449 78.7276V78.6456ZM400.533 78.7686C400.533 79.4874 400.682 80.0499 400.978 80.4561C401.275 80.8624 401.685 81.0655 402.209 81.0655C402.896 81.0655 403.398 80.7569 403.715 80.1397V77.2276C403.391 76.6299 402.892 76.3311 402.221 76.3311C401.689 76.3311 401.275 76.5362 400.978 76.9464C400.682 77.3565 400.533 77.9639 400.533 78.7686ZM409.117 81.9854C408.258 81.9854 407.558 81.7042 407.019 81.1417C406.48 80.5753 406.211 79.8194 406.211 78.8741V78.6749C406.211 78.046 406.33 77.4854 406.568 76.9932C406.81 76.4971 407.146 76.1104 407.576 75.8331C408.01 75.5518 408.478 75.4112 408.982 75.4112C409.807 75.4112 410.447 75.6827 410.904 76.2256C411.361 76.7686 411.59 77.546 411.59 78.5577V79.0089H407.295C407.31 79.6339 407.492 80.1397 407.84 80.5264C408.191 80.9092 408.637 81.1006 409.176 81.1006C409.558 81.1006 409.883 81.0225 410.148 80.8663C410.414 80.71 410.646 80.503 410.846 80.2452L411.508 80.7608C410.976 81.5772 410.18 81.9854 409.117 81.9854ZM408.982 76.3018C408.545 76.3018 408.178 76.462 407.881 76.7823C407.584 77.0987 407.4 77.544 407.33 78.1182H410.506V78.0362C410.474 77.4854 410.326 77.0596 410.06 76.7589C409.795 76.4542 409.435 76.3018 408.982 76.3018ZM419.125 78.4171H417.121V81.8682H415.99V73.337H418.814C419.775 73.337 420.514 73.5557 421.029 73.9932C421.549 74.4307 421.808 75.0674 421.808 75.9034C421.808 76.4346 421.664 76.8975 421.375 77.2921C421.09 77.6866 420.691 77.9815 420.18 78.1768L422.183 81.7979V81.8682H420.976L419.125 78.4171ZM417.121 77.4971H418.849C419.408 77.4971 419.851 77.3526 420.18 77.0635C420.512 76.7745 420.678 76.3878 420.678 75.9034C420.678 75.376 420.519 74.9717 420.203 74.6905C419.891 74.4092 419.437 74.2667 418.844 74.2628H417.121V77.4971ZM425.851 81.9854C424.992 81.9854 424.293 81.7042 423.754 81.1417C423.215 80.5753 422.945 79.8194 422.945 78.8741V78.6749C422.945 78.046 423.064 77.4854 423.303 76.9932C423.545 76.4971 423.881 76.1104 424.31 75.8331C424.744 75.5518 425.213 75.4112 425.717 75.4112C426.541 75.4112 427.182 75.6827 427.639 76.2256C428.096 76.7686 428.324 77.546 428.324 78.5577V79.0089H424.029C424.045 79.6339 424.226 80.1397 424.574 80.5264C424.926 80.9092 425.371 81.1006 425.91 81.1006C426.293 81.1006 426.617 81.0225 426.883 80.8663C427.148 80.71 427.381 80.503 427.58 80.2452L428.242 80.7608C427.711 81.5772 426.914 81.9854 425.851 81.9854ZM425.717 76.3018C425.279 76.3018 424.912 76.462 424.615 76.7823C424.318 77.0987 424.135 77.544 424.064 78.1182H427.24V78.0362C427.209 77.4854 427.06 77.0596 426.795 76.7589C426.529 76.4542 426.17 76.3018 425.717 76.3018ZM429.326 78.6456C429.326 77.6573 429.555 76.8721 430.012 76.2901C430.469 75.7042 431.074 75.4112 431.828 75.4112C432.601 75.4112 433.205 75.6846 433.639 76.2315L433.691 75.5284H434.682V81.7159C434.682 82.5362 434.437 83.1827 433.949 83.6553C433.465 84.128 432.812 84.3643 431.992 84.3643C431.535 84.3643 431.088 84.2667 430.65 84.0714C430.213 83.876 429.879 83.6085 429.648 83.2686L430.211 82.6182C430.676 83.1924 431.244 83.4796 431.916 83.4796C432.443 83.4796 432.853 83.3311 433.146 83.0342C433.443 82.7374 433.592 82.3194 433.592 81.7803V81.2354C433.158 81.7354 432.566 81.9854 431.816 81.9854C431.074 81.9854 430.473 81.6866 430.012 81.0889C429.555 80.4913 429.326 79.6768 429.326 78.6456ZM430.416 78.7686C430.416 79.4835 430.562 80.046 430.855 80.4561C431.148 80.8624 431.558 81.0655 432.086 81.0655C432.769 81.0655 433.271 80.7549 433.592 80.1339V77.2393C433.26 76.6339 432.762 76.3311 432.098 76.3311C431.57 76.3311 431.158 76.5362 430.861 76.9464C430.564 77.3565 430.416 77.9639 430.416 78.7686ZM437.5 81.8682H436.416V75.5284H437.5V81.8682ZM436.328 73.8467C436.328 73.671 436.381 73.5225 436.486 73.4014C436.596 73.2803 436.756 73.2198 436.967 73.2198C437.178 73.2198 437.338 73.2803 437.447 73.4014C437.557 73.5225 437.611 73.671 437.611 73.8467C437.611 74.0225 437.557 74.169 437.447 74.2862C437.338 74.4034 437.178 74.462 436.967 74.462C436.756 74.462 436.596 74.4034 436.486 74.2862C436.381 74.169 436.328 74.0225 436.328 73.8467ZM442.932 80.1866C442.932 79.8936 442.82 79.6671 442.598 79.5069C442.379 79.3428 441.994 79.2022 441.443 79.085C440.896 78.9678 440.461 78.8272 440.137 78.6631C439.816 78.4991 439.578 78.3038 439.422 78.0772C439.269 77.8506 439.193 77.5811 439.193 77.2686C439.193 76.7491 439.412 76.3096 439.849 75.9503C440.291 75.5909 440.853 75.4112 441.537 75.4112C442.256 75.4112 442.838 75.5967 443.283 75.9678C443.732 76.3389 443.957 76.8135 443.957 77.3917H442.867C442.867 77.0948 442.74 76.8389 442.486 76.6241C442.236 76.4092 441.92 76.3018 441.537 76.3018C441.142 76.3018 440.834 76.3878 440.611 76.5596C440.389 76.7315 440.277 76.9561 440.277 77.2335C440.277 77.4952 440.381 77.6924 440.588 77.8253C440.795 77.9581 441.168 78.085 441.707 78.2061C442.25 78.3272 442.689 78.4717 443.025 78.6397C443.361 78.8077 443.609 79.0108 443.769 79.2491C443.933 79.4835 444.016 79.7706 444.016 80.1104C444.016 80.6768 443.789 81.1319 443.336 81.4756C442.883 81.8155 442.295 81.9854 441.572 81.9854C441.064 81.9854 440.615 81.8956 440.224 81.7159C439.834 81.5362 439.527 81.2862 439.305 80.9659C439.086 80.6417 438.976 80.2921 438.976 79.9171H440.06C440.08 80.2803 440.224 80.5694 440.494 80.7842C440.767 80.9952 441.127 81.1006 441.572 81.1006C441.982 81.1006 442.31 81.0186 442.557 80.8546C442.807 80.6866 442.932 80.4639 442.932 80.1866ZM446.898 73.9932V75.5284H448.082V76.3663H446.898V80.2979C446.898 80.5518 446.951 80.7432 447.057 80.8721C447.162 80.9971 447.342 81.0596 447.596 81.0596C447.721 81.0596 447.892 81.0362 448.111 80.9893V81.8682C447.826 81.9464 447.549 81.9854 447.279 81.9854C446.795 81.9854 446.43 81.8389 446.183 81.546C445.937 81.253 445.814 80.837 445.814 80.2979V76.3663H444.66V75.5284H445.814V73.9932H446.898ZM452.418 76.501C452.254 76.4737 452.076 76.46 451.885 76.46C451.174 76.46 450.691 76.7628 450.437 77.3682V81.8682H449.353V75.5284H450.408L450.426 76.2608C450.781 75.6944 451.285 75.4112 451.937 75.4112C452.148 75.4112 452.308 75.4385 452.418 75.4932V76.501ZM453.016 78.6397C453.016 78.0186 453.137 77.46 453.379 76.9639C453.625 76.4678 453.965 76.085 454.398 75.8155C454.836 75.546 455.334 75.4112 455.892 75.4112C456.756 75.4112 457.453 75.71 457.984 76.3077C458.519 76.9053 458.787 77.7003 458.787 78.6924V78.7686C458.787 79.3858 458.668 79.9405 458.43 80.4327C458.195 80.921 457.857 81.3018 457.416 81.5753C456.978 81.8487 456.474 81.9854 455.904 81.9854C455.045 81.9854 454.348 81.6866 453.812 81.0889C453.281 80.4913 453.016 79.7003 453.016 78.7159V78.6397ZM454.105 78.7686C454.105 79.4717 454.267 80.0362 454.592 80.462C454.92 80.8878 455.357 81.1006 455.904 81.1006C456.455 81.1006 456.892 80.8858 457.217 80.4561C457.541 80.0225 457.703 79.4171 457.703 78.6397C457.703 77.9444 457.537 77.3819 457.205 76.9522C456.877 76.5186 456.439 76.3018 455.892 76.3018C455.357 76.3018 454.926 76.5147 454.598 76.9405C454.269 77.3663 454.105 77.9756 454.105 78.7686ZM463.838 80.1866C463.838 79.8936 463.726 79.6671 463.504 79.5069C463.285 79.3428 462.9 79.2022 462.349 79.085C461.803 78.9678 461.367 78.8272 461.043 78.6631C460.723 78.4991 460.484 78.3038 460.328 78.0772C460.176 77.8506 460.099 77.5811 460.099 77.2686C460.099 76.7491 460.318 76.3096 460.756 75.9503C461.197 75.5909 461.76 75.4112 462.443 75.4112C463.162 75.4112 463.744 75.5967 464.189 75.9678C464.639 76.3389 464.863 76.8135 464.863 77.3917H463.773C463.773 77.0948 463.646 76.8389 463.392 76.6241C463.142 76.4092 462.826 76.3018 462.443 76.3018C462.049 76.3018 461.74 76.3878 461.517 76.5596C461.295 76.7315 461.183 76.9561 461.183 77.2335C461.183 77.4952 461.287 77.6924 461.494 77.8253C461.701 77.9581 462.074 78.085 462.613 78.2061C463.156 78.3272 463.596 78.4717 463.932 78.6397C464.267 78.8077 464.516 79.0108 464.676 79.2491C464.84 79.4835 464.922 79.7706 464.922 80.1104C464.922 80.6768 464.695 81.1319 464.242 81.4756C463.789 81.8155 463.201 81.9854 462.478 81.9854C461.971 81.9854 461.521 81.8956 461.131 81.7159C460.74 81.5362 460.433 81.2862 460.211 80.9659C459.992 80.6417 459.883 80.2921 459.883 79.9171H460.967C460.986 80.2803 461.131 80.5694 461.4 80.7842C461.674 80.9952 462.033 81.1006 462.478 81.1006C462.889 81.1006 463.217 81.0186 463.463 80.8546C463.713 80.6866 463.838 80.4639 463.838 80.1866ZM241.984 95.8682V87.337H244.773C245.699 87.337 246.394 87.5284 246.859 87.9112C247.328 88.294 247.562 88.8604 247.562 89.6104C247.562 90.0089 247.449 90.3624 247.223 90.671C246.996 90.9756 246.687 91.212 246.297 91.3799C246.758 91.5089 247.121 91.7549 247.387 92.1182C247.656 92.4776 247.791 92.9073 247.791 93.4073C247.791 94.1729 247.543 94.7745 247.047 95.212C246.551 95.6495 245.849 95.8682 244.943 95.8682H241.984ZM243.109 91.878V94.9483H244.967C245.49 94.9483 245.902 94.8135 246.203 94.544C246.508 94.2706 246.66 93.8956 246.66 93.419C246.66 92.3917 246.101 91.878 244.984 91.878H243.109ZM243.109 90.9756H244.808C245.301 90.9756 245.693 90.8526 245.986 90.6065C246.283 90.3604 246.432 90.0264 246.432 89.6046C246.432 89.1358 246.295 88.796 246.021 88.585C245.748 88.3702 245.332 88.2628 244.773 88.2628H243.109V90.9756ZM250.469 95.8682H249.385V89.5284H250.469V95.8682ZM249.297 87.8467C249.297 87.671 249.349 87.5225 249.455 87.4014C249.564 87.2803 249.724 87.2198 249.935 87.2198C250.146 87.2198 250.307 87.2803 250.416 87.4014C250.525 87.5225 250.58 87.671 250.58 87.8467C250.58 88.0225 250.525 88.169 250.416 88.2862C250.307 88.4034 250.146 88.462 249.935 88.462C249.724 88.462 249.564 88.4034 249.455 88.2862C249.349 88.169 249.297 88.0225 249.297 87.8467ZM257.576 92.7686C257.576 93.7374 257.353 94.5167 256.908 95.1065C256.463 95.6924 255.865 95.9854 255.115 95.9854C254.314 95.9854 253.695 95.7022 253.258 95.1358L253.205 95.8682H252.209V86.8682H253.293V90.2256C253.73 89.6827 254.334 89.4112 255.103 89.4112C255.873 89.4112 256.476 89.7022 256.914 90.2842C257.355 90.8663 257.576 91.6631 257.576 92.6749V92.7686ZM256.492 92.6456C256.492 91.9073 256.349 91.337 256.064 90.9346C255.779 90.5323 255.369 90.3311 254.834 90.3311C254.119 90.3311 253.605 90.6631 253.293 91.3272V94.0694C253.625 94.7335 254.142 95.0655 254.846 95.0655C255.365 95.0655 255.769 94.8643 256.058 94.462C256.348 94.0596 256.492 93.4542 256.492 92.6456ZM260.125 95.8682H259.041V86.8682H260.125V95.8682ZM263.043 95.8682H261.959V89.5284H263.043V95.8682ZM261.871 87.8467C261.871 87.671 261.924 87.5225 262.029 87.4014C262.139 87.2803 262.299 87.2198 262.51 87.2198C262.721 87.2198 262.881 87.2803 262.99 87.4014C263.099 87.5225 263.154 87.671 263.154 87.8467C263.154 88.0225 263.099 88.169 262.99 88.2862C262.881 88.4034 262.721 88.462 262.51 88.462C262.299 88.462 262.139 88.4034 262.029 88.2862C261.924 88.169 261.871 88.0225 261.871 87.8467ZM264.496 92.6397C264.496 92.0186 264.617 91.46 264.859 90.9639C265.105 90.4678 265.445 90.085 265.879 89.8155C266.316 89.546 266.814 89.4112 267.373 89.4112C268.236 89.4112 268.933 89.71 269.465 90.3077C270 90.9053 270.267 91.7003 270.267 92.6924V92.7686C270.267 93.3858 270.148 93.9405 269.91 94.4327C269.676 94.921 269.338 95.3018 268.896 95.5753C268.459 95.8487 267.955 95.9854 267.385 95.9854C266.525 95.9854 265.828 95.6866 265.293 95.0889C264.762 94.4913 264.496 93.7003 264.496 92.7159V92.6397ZM265.586 92.7686C265.586 93.4717 265.748 94.0362 266.072 94.462C266.4 94.8878 266.838 95.1006 267.385 95.1006C267.935 95.1006 268.373 94.8858 268.697 94.4561C269.021 94.0225 269.183 93.4171 269.183 92.6397C269.183 91.9444 269.017 91.3819 268.685 90.9522C268.357 90.5186 267.92 90.3018 267.373 90.3018C266.838 90.3018 266.406 90.5147 266.078 90.9405C265.75 91.3663 265.586 91.9756 265.586 92.7686ZM271.369 92.6456C271.369 91.6573 271.598 90.8721 272.055 90.2901C272.512 89.7042 273.117 89.4112 273.871 89.4112C274.644 89.4112 275.248 89.6846 275.682 90.2315L275.734 89.5284H276.724V95.7159C276.724 96.5362 276.48 97.1827 275.992 97.6553C275.508 98.128 274.855 98.3643 274.035 98.3643C273.578 98.3643 273.131 98.2667 272.693 98.0714C272.256 97.876 271.922 97.6085 271.691 97.2686L272.254 96.6182C272.719 97.1924 273.287 97.4796 273.959 97.4796C274.486 97.4796 274.896 97.3311 275.189 97.0342C275.486 96.7374 275.635 96.3194 275.635 95.7803V95.2354C275.201 95.7354 274.609 95.9854 273.859 95.9854C273.117 95.9854 272.516 95.6866 272.055 95.0889C271.598 94.4913 271.369 93.6768 271.369 92.6456ZM272.459 92.7686C272.459 93.4835 272.605 94.046 272.898 94.4561C273.191 94.8624 273.601 95.0655 274.129 95.0655C274.812 95.0655 275.314 94.7549 275.635 94.1339V91.2393C275.303 90.6339 274.805 90.3311 274.141 90.3311C273.613 90.3311 273.201 90.5362 272.904 90.9464C272.607 91.3565 272.459 91.9639 272.459 92.7686ZM281.43 90.501C281.266 90.4737 281.088 90.46 280.896 90.46C280.185 90.46 279.703 90.7628 279.449 91.3682V95.8682H278.365V89.5284H279.42L279.437 90.2608C279.793 89.6944 280.297 89.4112 280.949 89.4112C281.16 89.4112 281.32 89.4385 281.43 89.4932V90.501ZM286.111 95.8682C286.049 95.7432 285.998 95.5206 285.959 95.2003C285.455 95.7237 284.853 95.9854 284.154 95.9854C283.529 95.9854 283.016 95.8096 282.613 95.4581C282.215 95.1026 282.016 94.6534 282.016 94.1104C282.016 93.4503 282.266 92.9385 282.766 92.5753C283.269 92.2081 283.976 92.0245 284.887 92.0245H285.941V91.5264C285.941 91.1475 285.828 90.8467 285.601 90.6241C285.375 90.3975 285.041 90.2842 284.599 90.2842C284.213 90.2842 283.889 90.3819 283.627 90.5772C283.365 90.7725 283.234 91.0089 283.234 91.2862H282.144C282.144 90.9698 282.256 90.6651 282.478 90.3721C282.705 90.0753 283.01 89.8409 283.392 89.669C283.779 89.4971 284.203 89.4112 284.664 89.4112C285.394 89.4112 285.967 89.5948 286.381 89.962C286.795 90.3253 287.01 90.8272 287.025 91.4678V94.3858C287.025 94.9678 287.099 95.4307 287.248 95.7745V95.8682H286.111ZM284.312 95.0421C284.652 95.0421 284.974 94.9542 285.279 94.7784C285.584 94.6026 285.805 94.3741 285.941 94.0928V92.7921H285.092C283.764 92.7921 283.099 93.1807 283.099 93.9581C283.099 94.2979 283.213 94.5635 283.439 94.7549C283.666 94.9464 283.957 95.0421 284.312 95.0421ZM285.314 86.8682H286.627L285.057 88.5909H284.183L285.314 86.8682ZM289.088 95.8682V90.3663H288.086V89.5284H289.088V88.9893C289.088 88.2823 289.289 87.7315 289.691 87.337C290.098 86.9424 290.67 86.7452 291.408 86.7452C291.846 86.7452 292.398 86.8643 293.066 87.1026L292.885 88.0167C292.396 87.8214 291.932 87.7237 291.49 87.7237C291.025 87.7237 290.689 87.8292 290.482 88.0401C290.279 88.2471 290.178 88.5596 290.178 88.9776V89.5284H291.473V90.3663H290.178V95.8682H289.088ZM293.605 95.8682H292.516V89.5284H293.605V95.8682ZM297.912 95.1006C298.299 95.1006 298.637 94.9835 298.926 94.7491C299.215 94.5147 299.375 94.2217 299.406 93.8702H300.432C300.412 94.2335 300.287 94.5792 300.057 94.9073C299.826 95.2354 299.517 95.4971 299.131 95.6924C298.748 95.8878 298.342 95.9854 297.912 95.9854C297.049 95.9854 296.361 95.6983 295.849 95.1241C295.342 94.546 295.088 93.7569 295.088 92.7569V92.5753C295.088 91.9581 295.201 91.4092 295.428 90.9288C295.654 90.4483 295.978 90.0753 296.4 89.8096C296.826 89.544 297.328 89.4112 297.906 89.4112C298.617 89.4112 299.207 89.6241 299.676 90.0499C300.148 90.4756 300.4 91.0284 300.432 91.7081H299.406C299.375 91.2979 299.219 90.962 298.937 90.7003C298.66 90.4346 298.316 90.3018 297.906 90.3018C297.355 90.3018 296.928 90.501 296.623 90.8995C296.322 91.294 296.172 91.8663 296.172 92.6163V92.8214C296.172 93.5518 296.322 94.1143 296.623 94.5089C296.924 94.9034 297.353 95.1006 297.912 95.1006ZM301.363 92.6397C301.363 92.0186 301.484 91.46 301.726 90.9639C301.973 90.4678 302.312 90.085 302.746 89.8155C303.183 89.546 303.682 89.4112 304.24 89.4112C305.103 89.4112 305.801 89.71 306.332 90.3077C306.867 90.9053 307.135 91.7003 307.135 92.6924V92.7686C307.135 93.3858 307.016 93.9405 306.777 94.4327C306.543 94.921 306.205 95.3018 305.764 95.5753C305.326 95.8487 304.822 95.9854 304.252 95.9854C303.392 95.9854 302.695 95.6866 302.16 95.0889C301.629 94.4913 301.363 93.7003 301.363 92.7159V92.6397ZM302.453 92.7686C302.453 93.4717 302.615 94.0362 302.939 94.462C303.267 94.8878 303.705 95.1006 304.252 95.1006C304.803 95.1006 305.24 94.8858 305.564 94.4561C305.889 94.0225 306.051 93.4171 306.051 92.6397C306.051 91.9444 305.885 91.3819 305.553 90.9522C305.224 90.5186 304.787 90.3018 304.24 90.3018C303.705 90.3018 303.273 90.5147 302.945 90.9405C302.617 91.3663 302.453 91.9756 302.453 92.7686ZM312.185 94.1866C312.185 93.8936 312.074 93.6671 311.851 93.5069C311.633 93.3428 311.248 93.2022 310.697 93.085C310.15 92.9678 309.715 92.8272 309.391 92.6631C309.07 92.4991 308.832 92.3038 308.676 92.0772C308.523 91.8506 308.447 91.5811 308.447 91.2686C308.447 90.7491 308.666 90.3096 309.103 89.9503C309.545 89.5909 310.107 89.4112 310.791 89.4112C311.51 89.4112 312.092 89.5967 312.537 89.9678C312.986 90.3389 313.211 90.8135 313.211 91.3917H312.121C312.121 91.0948 311.994 90.8389 311.74 90.6241C311.49 90.4092 311.174 90.3018 310.791 90.3018C310.396 90.3018 310.088 90.3878 309.865 90.5596C309.642 90.7315 309.531 90.9561 309.531 91.2335C309.531 91.4952 309.635 91.6924 309.842 91.8253C310.049 91.9581 310.422 92.085 310.961 92.2061C311.504 92.3272 311.943 92.4717 312.279 92.6397C312.615 92.8077 312.863 93.0108 313.023 93.2491C313.187 93.4835 313.269 93.7706 313.269 94.1104C313.269 94.6768 313.043 95.1319 312.59 95.4756C312.137 95.8155 311.549 95.9854 310.826 95.9854C310.318 95.9854 309.869 95.8956 309.478 95.7159C309.088 95.5362 308.781 95.2862 308.558 94.9659C308.34 94.6417 308.23 94.2921 308.23 93.9171H309.314C309.334 94.2803 309.478 94.5694 309.748 94.7842C310.021 94.9952 310.381 95.1006 310.826 95.1006C311.236 95.1006 311.564 95.0186 311.81 94.8546C312.06 94.6866 312.185 94.4639 312.185 94.1866Z" fill="#939598"/>
<path d="M441.709 29.6481C438.069 25.7961 433.619 23.8715 428.368 23.8715C422.896 23.8715 418.282 25.8151 414.53 29.6956C410.78 33.582 408.902 38.237 408.902 43.6665C408.902 49.0091 410.789 53.5436 414.563 57.2721C418.338 61.0029 422.896 62.8675 428.236 62.8675C432.119 62.8675 435.75 61.7299 439.127 59.4575C441.731 57.7032 443.66 55.6406 444.911 53.271C444.916 53.2623 444.916 53.2535 444.922 53.2448C445.04 53.0343 445.117 52.7947 445.117 52.5353C445.117 51.7425 444.472 51.1003 443.683 51.1003C443.679 51.1003 443.679 51.1003 443.679 51.1003C443.679 51.0937 443.679 51.0864 443.683 51.082L436.781 51.1492C436.776 51.1507 436.773 51.1558 436.769 51.1587C436.365 51.1624 436.004 51.3333 435.744 51.6037C435.679 51.6358 435.617 51.6665 435.584 51.6979C434.809 52.4162 433.825 53.0058 432.639 53.4669C431.158 54.0397 429.582 54.3261 427.905 54.3261C425.698 54.3261 423.704 53.6868 421.913 52.4052C420.127 51.128 418.899 49.4059 418.239 47.2424H445.188C445.282 47.2614 445.376 47.2709 445.478 47.2709C446.257 47.2709 446.893 46.6469 446.91 45.8644C446.911 45.8563 446.926 45.8439 446.928 45.8366C447.016 45.3091 447.005 45.3186 447.072 44.7654C447.139 44.2153 447.171 43.6563 447.171 43.082C447.171 37.9784 445.349 33.4979 441.709 29.6481ZM418.106 39.4287C418.723 37.4194 419.96 35.7908 421.811 34.5428C423.667 33.2999 425.654 32.6102 427.77 32.478C427.86 32.478 427.947 32.478 428.035 32.478C428.122 32.478 428.212 32.478 428.301 32.478C430.552 32.478 432.603 33.0975 434.458 34.3309C436.309 35.5657 437.592 37.2674 438.297 39.4287H418.106Z" fill="#62A3D7"/>
<path d="M473.587 42.6414C471.248 41.2071 468.601 40.0504 465.642 39.1649C465.377 39.0787 465.079 38.9903 464.749 38.8997C464.419 38.8135 464.076 38.7265 463.723 38.6359C462.972 38.3707 462.266 38.0068 461.604 37.5421C460.943 37.0789 460.635 36.43 460.68 35.5898V35.5247C460.68 34.5099 461.008 33.7485 461.67 33.2407C462.335 32.7344 463.146 32.4786 464.119 32.4786C464.958 32.4786 465.697 32.7008 466.338 33.1421C466.718 33.4022 467.007 33.7346 467.21 34.1358C467.225 34.1708 467.259 34.2052 467.307 34.2424C467.542 34.7137 468.021 35.041 468.582 35.0462C468.582 35.0505 468.59 35.0557 468.59 35.0608H474.567C474.567 35.0557 474.572 35.0513 474.572 35.0462C475.361 35.041 476.002 34.4003 476.002 33.6104C476.002 33.4884 475.983 33.3708 475.954 33.259C475.568 30.9136 474.406 28.8706 472.462 27.1309C470.034 24.9579 467.299 23.8722 464.255 23.8722C461.03 23.8722 458.162 24.9119 455.648 26.9928C453.13 29.0716 451.874 31.8137 451.874 35.2237C451.874 36.7698 452.17 38.188 452.767 39.471C453.363 40.7526 454.256 41.9049 455.448 42.9219C455.845 43.2748 456.234 43.5759 456.608 43.8185C456.982 44.0618 457.346 44.2722 457.699 44.4483C458.14 44.669 458.582 44.8691 459.024 45.0452C459.465 45.2213 459.929 45.3981 460.414 45.5779C460.682 45.6641 460.945 45.7525 461.209 45.8439C461.472 45.9308 461.76 46.0185 462.071 46.1084C462.422 46.2413 462.786 46.3619 463.161 46.4729C463.535 46.5825 463.922 46.7257 464.32 46.9033C465.335 47.2562 466.249 47.7355 467.067 48.331C467.883 48.9294 468.295 49.7792 468.295 50.8832C468.295 52.0311 467.875 52.9042 467.034 53.499C466.195 54.0945 465.246 54.3933 464.188 54.3933C462.906 54.3933 461.868 53.9951 461.076 53.2001C460.531 52.6543 460.123 52.0113 459.849 51.2756C459.687 50.6596 459.131 50.2052 458.466 50.2052C458.406 50.2052 458.35 50.2154 458.293 50.2212H452.279C452.222 50.2147 452.165 50.2052 452.106 50.2052C451.314 50.2052 450.669 50.8474 450.669 51.638C450.669 51.7213 450.681 51.8031 450.693 51.8791C450.693 51.8835 450.69 51.8857 450.693 51.8908C450.693 51.9018 450.696 51.9142 450.699 51.9281V51.9295C451.123 54.9062 452.382 57.3861 454.49 59.3588C456.983 61.6977 460.107 62.8682 463.857 62.8682C464.209 62.8682 464.565 62.8463 464.915 62.8017C465.27 62.7557 465.623 62.7126 465.977 62.6702C467.345 62.405 468.678 61.9629 469.982 61.3462C471.282 60.7259 472.421 59.9755 473.393 59.0943C474.625 57.9012 475.554 56.5677 476.172 55.0889C476.79 53.6093 477.1 52.0084 477.1 50.287C477.098 46.6249 475.928 44.0749 473.587 42.6414Z" fill="#62A3D7"/>
<path d="M407.648 59.3559L407.652 59.3494L394.142 42.938L405.569 27.4524C405.831 27.1923 405.991 26.8336 405.991 26.4368C405.991 25.6455 405.351 25.004 404.559 25.0025L404.556 24.9967H397.742L397.727 25.0025C397.205 25.0077 396.754 25.2934 396.504 25.7135L396.498 25.7186L385.204 42.2753V14.1837L385.179 14.1632C385.167 13.3814 384.535 12.7509 383.749 12.7509H377.832C377.038 12.7509 376.398 13.3909 376.398 14.1837V60.2415C376.398 61.0335 377.038 61.6773 377.832 61.6773H383.749C384.535 61.6773 385.167 61.0452 385.179 60.2656L385.204 60.2415V44.5294L397.272 60.9787C397.522 61.3945 397.975 61.6773 398.499 61.6773H406.528C407.32 61.6773 407.964 61.0335 407.964 60.2415C407.963 59.9069 407.843 59.6 407.648 59.3559Z" fill="#62A3D7"/>
<path d="M368.408 24.996H363.2C362.407 24.996 361.766 25.6375 361.766 26.4325C361.766 26.4339 361.766 26.4361 361.766 26.4391V30.2268C360.312 28.1546 358.523 26.5757 356.405 25.4936C354.284 24.4137 351.968 23.8715 349.453 23.8715C346.758 23.8715 344.279 24.3895 342.003 25.4271C339.729 26.4639 337.667 28.0655 335.812 30.2261C334.133 32.1251 332.934 34.1548 332.204 36.319C331.479 38.481 331.112 40.8425 331.112 43.402C331.112 45.9623 331.507 48.3888 332.304 50.6845C333.097 52.981 334.222 55.0122 335.682 56.7753C337.269 58.6743 339.211 60.1634 341.507 61.244C343.805 62.3247 346.361 62.8675 349.186 62.8675C349.582 62.8675 349.992 62.8456 350.412 62.801C350.83 62.755 351.239 62.7119 351.636 62.6695C353.578 62.3144 355.455 61.6305 357.264 60.6156C359.074 59.6 360.531 58.2987 361.635 56.7081H361.766V60.2328C361.766 60.2335 361.766 60.2394 361.766 60.2394C361.766 61.0314 362.407 61.6751 363.2 61.6751H368.408C369.203 61.6751 369.844 61.0314 369.844 60.2394V26.431C369.844 25.6375 369.203 24.996 368.408 24.996ZM361.504 43.3363C361.504 46.4693 360.509 49.0953 358.524 51.215C356.536 53.3324 353.953 54.3714 350.776 54.3261C347.819 54.3721 345.269 53.3668 343.13 51.3144C340.988 49.2597 339.918 46.7353 339.918 43.7323C339.918 40.513 340.945 37.8183 342.998 35.657C345.049 33.4943 347.687 32.4341 350.908 32.478C354.043 32.4334 356.592 33.4607 358.554 35.5562C360.519 37.6554 361.504 40.2251 361.504 43.2691V43.3363Z" fill="#62A3D7"/>
<path d="M285.463 16.7534C285.463 18.9453 283.683 20.723 281.49 20.723C279.299 20.723 277.52 18.9453 277.52 16.7534C277.52 14.5614 279.299 12.7822 281.49 12.7822C283.684 12.7822 285.463 14.5614 285.463 16.7534Z" fill="#62A3D7"/>
<path d="M325.153 35.8551C324.89 33.6032 324.053 31.485 322.639 29.4976C322.508 29.2784 322.362 29.0906 322.208 28.9357C322.052 28.7815 321.887 28.6157 321.71 28.4381C320.519 27.1587 319.097 26.1227 317.441 25.327C315.787 24.532 314.077 24.0688 312.31 23.938C312.133 23.8927 311.958 23.8715 311.78 23.8715C311.602 23.8715 311.426 23.8715 311.253 23.8715C311.119 23.8715 310.987 23.8715 310.854 23.8715C310.719 23.8715 310.588 23.8715 310.454 23.8715C308.644 24.0052 306.915 24.4429 305.258 25.1962C303.604 25.9466 302.268 27.0061 301.251 28.3738H301.121V26.4354L301.106 26.4201C301.096 25.6353 300.459 25.0026 299.676 25.0011L299.672 24.996H294.413C293.619 24.996 292.979 25.6375 292.979 26.4325V60.2408V60.2415C292.98 61.0307 293.619 61.6685 294.409 61.6707L294.413 61.6766H300.311C301.09 61.6766 301.721 61.0533 301.742 60.2774L301.782 60.2394V45.1257C301.782 45.0358 301.782 44.9364 301.782 44.8254C301.782 44.7165 301.782 44.5937 301.782 44.463C301.782 43.931 301.782 43.3801 301.782 42.8066C301.782 42.2323 301.805 41.6587 301.851 41.0844C301.894 40.1148 302.025 39.1547 302.249 38.2071C302.468 37.2579 302.799 36.4294 303.241 35.7243C303.771 34.8402 304.519 34.1256 305.493 33.5717C306.46 33.0201 307.452 32.6782 308.471 32.5459C308.645 32.5013 308.812 32.4794 308.969 32.4794C309.12 32.4794 309.263 32.4794 309.396 32.4794C309.487 32.4794 309.563 32.4794 309.63 32.4794C309.694 32.4794 309.75 32.4794 309.796 32.4794C310.854 32.5678 311.881 32.8776 312.875 33.4074C313.865 33.9378 314.651 34.6422 315.223 35.5255C315.665 36.2759 315.997 37.1038 316.217 38.0068C316.436 38.9129 316.593 39.8503 316.681 40.8221C316.724 41.4417 316.747 42.0576 316.747 42.675C316.747 43.2939 316.747 43.866 316.747 44.3965V60.2401L316.768 60.2591C316.78 61.0445 317.418 61.6766 318.203 61.6766H324.116L324.119 61.6751C324.911 61.67 325.549 61.0328 325.554 60.2415V60.2408V42.7393C325.552 40.4012 325.42 38.1048 325.153 35.8551Z" fill="#62A3D7"/>
<path d="M284.46 24.9959H278.523C277.73 24.9959 277.088 25.6374 277.088 26.4324V60.2407C277.088 61.0328 277.73 61.6765 278.523 61.6765H284.413L284.418 61.6706C284.432 61.675 284.446 61.6765 284.461 61.6765C285.253 61.6765 285.895 61.0328 285.895 60.2407V26.4324C285.894 25.6374 285.252 24.9959 284.46 24.9959Z" fill="#62A3D7"/>
<path d="M269.718 20.9491C268.584 18.7936 267.017 17.0401 265.014 15.692C263.098 14.3849 261.129 13.6337 259.103 13.4394C257.079 13.2428 254.978 13.1449 252.801 13.1449C252.67 13.1449 252.529 13.1449 252.378 13.1449C252.223 13.1449 252.084 13.123 251.954 13.0799H242.146C241.287 13.0799 240.589 13.7769 240.589 14.6377V59.7033L240.597 59.7106C240.596 59.7376 240.589 59.7602 240.589 59.7873C240.589 60.6458 241.287 61.3443 242.146 61.3443H248.013C248.873 61.3443 249.57 60.6458 249.57 59.7873C249.57 59.6762 249.558 59.5688 249.537 59.4673V43.1224H251.301C251.473 43.1224 251.648 43.1224 251.823 43.1224C251.994 43.1224 252.17 43.1224 252.344 43.1224C252.998 43.1224 253.661 43.1224 254.338 43.1224C255.012 43.1224 255.696 43.1005 256.394 43.0574C258.048 42.9704 259.68 42.7308 261.29 42.3391C262.903 41.9475 264.363 41.2278 265.667 40.1837C267.583 38.6603 269.019 36.8212 269.979 34.6658C270.936 32.5096 271.415 30.2358 271.415 27.8421C271.416 25.401 270.85 23.1053 269.718 20.9491ZM261.26 31.6598C260.453 32.7266 259.398 33.4762 258.092 33.9132C257.526 34.0863 256.915 34.2062 256.264 34.2727C255.61 34.3384 254.958 34.3918 254.304 34.4363C253.954 34.4363 253.595 34.4363 253.225 34.4363C252.855 34.4363 252.497 34.4363 252.147 34.4363C251.973 34.4363 251.811 34.4363 251.658 34.4363C251.505 34.4363 251.341 34.4151 251.17 34.3698H249.536V21.8303H251.17C251.341 21.8303 251.517 21.8303 251.689 21.8303C251.863 21.8303 252.039 21.8303 252.213 21.8303C252.56 21.8303 252.931 21.8303 253.324 21.8303C253.717 21.8303 254.106 21.8303 254.499 21.8303C255.107 21.8303 255.695 21.8624 256.263 21.9289C256.828 21.9939 257.35 22.0926 257.829 22.2234C259.179 22.5704 260.289 23.2463 261.161 24.2458C262.032 25.249 262.467 26.4904 262.467 27.9693C262.468 29.3641 262.065 30.5945 261.26 31.6598Z" fill="#62A3D7"/>
<path d="M106.004 85.9628V3.71106" stroke="#808285" stroke-width="4" stroke-miterlimit="10" stroke-linecap="round"/>
<path d="M51.0168 21.6801C51.0168 21.6801 84.2947 59.1629 99.7029 92.2932" stroke="#808285" stroke-width="4" stroke-miterlimit="10" stroke-linecap="round"/>
<path d="M19.5225 58.8394C19.5225 58.8394 67.2418 73.5994 93.3994 96.7313" stroke="#808285" stroke-width="4" stroke-miterlimit="10" stroke-linecap="round"/>
<path d="M161.025 21.6801C161.025 21.6801 127.746 59.1629 112.338 92.2932" stroke="#808285" stroke-width="4" stroke-miterlimit="10" stroke-linecap="round"/>
<path d="M192.518 58.8394C192.518 58.8394 144.801 73.5994 118.641 96.7313" stroke="#808285" stroke-width="4" stroke-miterlimit="10" stroke-linecap="round"/>
<path d="M51.0168 21.6801H161.026" stroke="#BCBEC0" stroke-width="2" stroke-miterlimit="10" stroke-linecap="round"/>
<path d="M51.0168 21.6801L192.519 58.8392" stroke="#BCBEC0" stroke-width="2" stroke-miterlimit="10" stroke-linecap="round"/>
<path d="M19.5225 58.8392L161.026 21.6801" stroke="#BCBEC0" stroke-width="2" stroke-miterlimit="10" stroke-linecap="round"/>
<path d="M19.5225 58.8394H192.518" stroke="#BCBEC0" stroke-width="2" stroke-miterlimit="10" stroke-linecap="round"/>
<path d="M19.5225 58.8394L105.967 88.7409L192.518 58.8394" stroke="#BCBEC0" stroke-width="2" stroke-miterlimit="10" stroke-linecap="round"/>
<path d="M19.5225 58.8392L51.0168 21.6801" stroke="#BCBEC0" stroke-width="2" stroke-miterlimit="10" stroke-linecap="round"/>
<path d="M19.5225 58.8393L106.004 3.71106" stroke="#BCBEC0" stroke-width="2" stroke-miterlimit="10" stroke-linecap="round"/>
<path d="M51.0168 21.6802L106.004 3.71106" stroke="#BCBEC0" stroke-width="2" stroke-miterlimit="10" stroke-linecap="round"/>
<path d="M192.503 58.8392L161.01 21.6801" stroke="#BCBEC0" stroke-width="2" stroke-miterlimit="10" stroke-linecap="round"/>
<path d="M192.503 58.8393L106.021 3.71106" stroke="#BCBEC0" stroke-width="2" stroke-miterlimit="10" stroke-linecap="round"/>
<path d="M161.01 21.6802L106.021 3.71106" stroke="#BCBEC0" stroke-width="2" stroke-miterlimit="10" stroke-linecap="round"/>
<path d="M19.523 62.5495C21.5722 62.5495 23.2333 60.8884 23.2333 58.8393C23.2333 56.7901 21.5722 55.129 19.523 55.129C17.4739 55.129 15.8127 56.7901 15.8127 58.8393C15.8127 60.8884 17.4739 62.5495 19.523 62.5495Z" fill="#F7941E"/>
<path d="M51.0163 25.392C53.0662 25.392 54.728 23.7302 54.728 21.6803C54.728 19.6303 53.0662 17.9685 51.0163 17.9685C48.9663 17.9685 47.3045 19.6303 47.3045 21.6803C47.3045 23.7302 48.9663 25.392 51.0163 25.392Z" fill="#F7941E"/>
<path d="M106.021 7.42204C108.07 7.42204 109.732 5.76056 109.732 3.71103C109.732 1.66149 108.07 0 106.021 0C103.971 0 102.31 1.66149 102.31 3.71103C102.31 5.76056 103.971 7.42204 106.021 7.42204Z" fill="#F7941E"/>
<path d="M161.026 25.3912C163.075 25.3912 164.737 23.7297 164.737 21.6802C164.737 19.6307 163.075 17.9692 161.026 17.9692C158.976 17.9692 157.315 19.6307 157.315 21.6802C157.315 23.7297 158.976 25.3912 161.026 25.3912Z" fill="#F7941E"/>
<path d="M192.519 62.5503C194.568 62.5503 196.23 60.8888 196.23 58.8393C196.23 56.7898 194.568 55.1283 192.519 55.1283C190.469 55.1283 188.807 56.7898 188.807 58.8393C188.807 60.8888 190.469 62.5503 192.519 62.5503Z" fill="#F7941E"/>
<path d="M208.952 98.4666H141.512H116.691C114.59 102.197 110.593 104.72 106.005 104.72C101.418 104.72 97.421 102.198 95.3189 98.4666H3.05781C1.36926 98.4666 0 99.8358 0 101.524C0 103.211 1.36926 104.581 3.05781 104.581H93.5843C96.6816 107.915 101.098 110 106.004 110C110.912 110 115.328 107.915 118.425 104.581H208.952C210.64 104.581 212.01 103.211 212.01 101.524C212.01 99.8358 210.64 98.4666 208.952 98.4666Z" fill="#62A3D7"/>
<path d="M123.165 103.391L107.888 92.804C107.277 92.3042 106.431 91.765 105.977 91.5677C105.425 91.7738 104.375 92.3904 103.695 92.8822L88.7875 103.379L85.5887 98.8356L100.47 88.355C101.695 87.4738 104.077 85.9628 106.002 85.9628C107.958 85.9628 110.14 87.476 111.322 88.4325L126.33 98.8232L123.165 103.391Z" fill="#62A3D7"/>
</svg>
