<svg width="181" height="70" viewBox="0 0 181 70" fill="none" xmlns="http://www.w3.org/2000/svg">
<path d="M18.2402 34.523C18.2402 43.7157 25.6923 51.169 34.886 51.169C44.0791 51.169 51.5315 43.7157 51.5315 34.523C51.5315 25.3295 44.0788 17.8766 34.886 17.8766C25.6923 17.8766 18.2402 25.3295 18.2402 34.523ZM33.1199 21.6798C36.1331 20.9408 42.7894 21.3383 46.4279 28.0373C46.9933 29.0745 46.6096 30.3701 45.5721 30.9352C45.3033 31.0809 45.017 31.1633 44.7316 31.1865C43.9121 31.2557 43.0924 30.8444 42.6745 30.0766C39.7731 24.734 34.698 25.7004 34.1154 25.8342C32.9726 26.102 31.8246 25.4016 31.5476 24.2582C31.2688 23.112 31.9734 21.9558 33.1199 21.6798Z" fill="#71CAC9"/>
<path d="M45.9787 53.6722C42.719 55.5631 38.9364 56.6504 34.8967 56.6504C22.676 56.6504 12.7689 46.7433 12.7689 34.5223C12.7689 22.3016 22.676 12.3943 34.8967 12.3943C38.9364 12.3943 42.7193 13.4819 45.9787 15.3724L54.868 6.36002C49.2306 2.35505 42.3393 0 34.8967 0C15.831 0 0.375 15.456 0.375 34.522C0.375 53.5883 15.831 69.0449 34.8967 69.0449C42.3393 69.0449 49.2309 66.689 54.868 62.6843L45.9787 53.6722Z" fill="#3F7EC1"/>
<path d="M119.688 29.2042L112.957 20.0659H66.8598C64.3757 14.0805 59.6192 9.78265 54.802 6.36034L45.9121 15.3727C49.5863 17.5035 52.5904 20.6604 54.5345 24.4508L59.5249 24.4511C59.5281 24.4511 59.5315 24.4524 59.5346 24.4524H59.6214V24.4609C60.2254 24.511 60.7012 25.0112 60.7012 25.6277V29.2032L66.8517 29.2035V29.2042H119.688Z" fill="#71CAC9"/>
<path d="M46.0823 15.38C48.0691 17.2043 51.5626 16.6327 53.8854 14.1032C56.2081 11.5738 56.4805 8.04426 54.4938 6.2199C52.507 4.39553 49.0135 4.96715 46.6908 7.49663C44.368 10.0261 44.0956 13.5556 46.0823 15.38Z" fill="#3F7EC1"/>
<path d="M46.1054 53.6125C44.1194 55.4378 44.4119 58.9876 46.7587 61.5411C49.1056 64.0947 52.6181 64.685 54.6041 62.8598C56.5902 61.0345 56.2977 57.4847 53.9508 54.9312C51.604 52.3776 48.0915 51.7872 46.1054 53.6125Z" fill="#3F7EC1"/>
<path d="M60.7012 39.8445V43.4178C60.7012 44.0678 60.1746 44.5947 59.5246 44.5947L54.5348 44.5932C52.5913 48.3839 49.5863 51.5408 45.9121 53.6719L54.802 62.6846C61.7769 57.7289 68.6285 49.4596 68.6285 39.8451L60.7012 39.8445Z" fill="#71CAC9"/>
<path d="M54.4612 55.59C56.3235 58.4741 55.9983 61.9992 53.731 63.4624C51.4649 64.9259 48.1184 63.7732 46.2558 60.8893C44.3925 58.0039 44.7196 54.4795 46.9853 53.0169C49.2514 51.5534 52.5985 52.7052 54.4612 55.59Z" fill="#3F7EC1"/>
<path d="M99.3065 66.5292C99.9972 65.7827 99.8901 64.4698 99.0575 63.4662C98.2731 62.3795 96.9681 61.9616 96.0675 62.5342C95.9334 62.6006 95.8068 62.6843 95.6937 62.7889C95.6803 62.8011 95.6687 62.8155 95.6558 62.8281L95.6392 62.8121C94.2878 63.5958 92.7203 64.0466 91.0447 64.0466C85.9778 64.0466 81.8698 59.9386 81.8698 54.8717C81.8698 49.8048 85.9778 45.6971 91.0447 45.6971C92.72 45.6971 94.2875 46.1475 95.6392 46.9319L95.6612 46.9103C95.6684 46.9172 95.6746 46.926 95.6818 46.9325C96.506 47.6894 97.9548 47.4516 98.9178 46.4034C99.8362 45.4032 99.9788 44.0271 99.2758 43.2455L99.3253 43.1954C96.9881 41.5348 94.1303 40.5584 91.0447 40.5584C83.1397 40.5584 76.7314 46.9667 76.7314 54.8717C76.7314 62.7767 83.1397 69.1856 91.0447 69.1856C93.9132 69.1856 96.5837 68.3407 98.8238 66.8872C98.8304 66.8828 98.8379 66.88 98.8451 66.8756C98.9785 66.8086 99.1045 66.7256 99.2172 66.6219C99.2172 66.6213 99.2179 66.6213 99.2185 66.6213C99.2533 66.5965 99.2902 66.5733 99.3256 66.5476L99.3065 66.5292Z" fill="#3F7EC1"/>
<path d="M112.957 47.3223C115.975 47.3414 118.545 48.4165 120.667 50.5475C122.788 52.6792 123.849 55.263 123.849 58.2994C123.849 61.3173 122.779 63.8778 120.638 65.9807C118.497 68.0839 115.937 69.1352 112.957 69.1352C109.996 69.1352 107.44 68.0839 105.289 65.9807C103.14 63.8778 102.064 61.3173 102.064 58.2994C102.064 55.263 103.125 52.6792 105.247 50.5475C107.369 48.4165 109.939 47.3505 112.957 47.3505V47.3223H112.957ZM107.992 53.193C106.625 54.5791 105.941 56.2535 105.941 58.2145C105.941 60.1576 106.634 61.8407 108.021 63.2645C109.407 64.6891 111.052 65.4005 112.958 65.4005C114.862 65.4005 116.508 64.6876 117.895 63.2607C119.281 61.8335 119.974 60.1473 119.974 58.2004C119.974 56.2353 119.295 54.5578 117.937 53.1689C116.579 51.7799 114.919 51.0851 112.958 51.0851C111.014 51.1042 109.359 51.8065 107.992 53.193Z" fill="#3F7EC1"/>
<path d="M126.905 47.7185H132.196L137.797 63.7033L143.484 47.7185H148.746V68.6261H144.87V52.9527L139.467 68.6261H136.185L130.781 52.9527V68.6261H126.905V47.7185Z" fill="#3F7EC1"/>
<path d="M156.243 47.7185V60.7609C156.243 60.8364 156.243 60.8981 156.243 60.9448C156.243 60.9921 156.243 61.0344 156.243 61.0723C156.243 61.1287 156.243 61.1807 156.243 61.2277C156.243 61.2747 156.243 61.3173 156.243 61.3549C156.243 61.7511 156.262 62.1377 156.3 62.5148C156.337 62.8923 156.45 63.2601 156.639 63.6178C156.922 64.1463 157.304 64.5758 157.785 64.9053C158.265 65.2355 158.808 65.4002 159.411 65.4002C159.449 65.4002 159.482 65.4002 159.51 65.4002C159.538 65.4002 159.562 65.4002 159.581 65.4002C160.071 65.3626 160.538 65.2164 160.982 64.962C161.425 64.7073 161.779 64.3634 162.043 63.9292C162.326 63.4765 162.491 62.9957 162.538 62.4866C162.584 61.977 162.608 61.4589 162.608 60.9304C162.608 60.9116 162.608 60.8878 162.608 60.8596C162.608 60.8311 162.608 60.8076 162.608 60.7885V47.7179H166.484V60.7603C166.484 61.8169 166.4 62.8209 166.23 63.7735C166.06 64.7258 165.636 65.6173 164.957 66.4468C164.278 67.2582 163.448 67.9088 162.467 68.3987C161.486 68.889 160.468 69.1346 159.412 69.1346C159.317 69.1346 159.218 69.1295 159.115 69.1201C159.011 69.1107 158.912 69.1061 158.818 69.1061C157.912 69.0114 157.04 68.7383 156.201 68.2856C155.361 67.833 154.649 67.2769 154.065 66.6166C153.31 65.7492 152.838 64.8342 152.65 63.8722C152.461 62.9102 152.367 61.8824 152.367 60.7882V47.7176H156.243V47.7185Z" fill="#3F7EC1"/>
<path d="M172.596 51.4813H168.748V47.7185H180.376V51.4813H176.472V68.6258H172.596V51.4813Z" fill="#3F7EC1"/>
</svg>
