<svg width="162" height="101" viewBox="0 0 162 101" fill="none" xmlns="http://www.w3.org/2000/svg">
<path d="M2.36914 68.3615V18.0722C2.36914 18.0722 15.3173 14.1644 22.7118 11.5498C30.1877 8.9068 38.2268 3.31496 38.2268 3.31496V47.8221C38.2268 47.8225 13.3071 58.8691 2.36914 68.3615Z" fill="white" stroke="#00A79D" stroke-width="3" stroke-miterlimit="10"/>
<path d="M161.875 10.8053C161.875 10.8053 47.6696 10.8045 46.2035 10.7923C42.0229 10.7575 33.83 11.5315 27.3016 12.4731C17.4342 13.8962 1.875 18.0742 1.875 18.0742L2.36999 68.1225C2.36999 68.1225 29.837 66.972 47.1669 69.3964C47.8483 69.4921 147.101 69.4621 147.101 69.4621L161.875 66.3104V10.8053H161.875Z" fill="#00A79D"/>
<path d="M56.1533 76.3935C55.8741 76.0093 55.5627 75.7261 55.2181 75.5456C54.8735 75.3651 54.4807 75.2742 54.0393 75.2742C53.3477 75.2742 52.7558 75.5286 52.2649 76.0373C51.774 76.546 51.528 77.1509 51.528 77.8515C51.528 78.5979 51.772 79.2267 52.2604 79.7379C52.7489 80.249 53.342 80.505 54.0393 80.505C54.4693 80.505 54.858 80.4162 55.2054 80.2381C55.5529 80.0604 55.8545 79.7947 56.1108 79.4413H56.8367C56.5518 79.9671 56.1705 80.3736 55.6922 80.6604C55.214 80.9472 54.6773 81.0908 54.0822 81.0908C53.1683 81.0908 52.406 80.7809 51.7953 80.1622C51.1842 79.5436 50.8789 78.7703 50.8789 77.8434C50.8789 77.4113 50.9615 77.0016 51.1266 76.6142C51.2917 76.2272 51.5337 75.8783 51.8525 75.5675C52.1484 75.2734 52.4812 75.0511 52.8494 74.8998C53.2181 74.7485 53.6175 74.673 54.0475 74.673C54.6655 74.673 55.2214 74.8227 55.7155 75.1221C56.2093 75.4215 56.6005 75.8454 56.8878 76.3939H56.1533V76.3935Z" fill="#4F4F4F"/>
<path d="M61.6453 80.2296C61.4572 80.4982 61.203 80.7087 60.883 80.8616C60.5625 81.0138 60.2175 81.0904 59.8472 81.0904C59.1581 81.0904 58.5846 80.8564 58.126 80.3886C57.6674 79.9213 57.4385 79.344 57.4385 78.6572C57.4385 77.959 57.6727 77.3753 58.1411 76.9063C58.6095 76.4373 59.1953 76.2029 59.8987 76.2029C60.2604 76.2029 60.5919 76.2759 60.894 76.4215C61.1957 76.5667 61.4466 76.7765 61.6457 77.0507V76.3047H62.2351V80.9675H61.6457V80.2296H61.6453ZM61.6453 78.6061C61.6453 78.1116 61.4671 77.6799 61.1114 77.3112C60.7554 76.9428 60.3455 76.7582 59.8815 76.7582C59.3776 76.7582 58.9484 76.9428 58.5936 77.3112C58.2392 77.6799 58.0618 78.1371 58.0618 78.6828C58.0618 79.2024 58.2384 79.6414 58.5915 79.9988C58.9447 80.3562 59.369 80.5351 59.8644 80.5351C60.3426 80.5351 60.7591 80.3464 61.1135 79.9688C61.4679 79.5915 61.6453 79.1371 61.6453 78.6061Z" fill="#4F4F4F"/>
<path d="M63.5978 80.9671V76.9059H62.7051V76.3043H63.5978V74.7952H64.1999V76.3043H65.0925V76.9059H64.1999V80.9671H63.5978Z" fill="#4F4F4F"/>
<path d="M69.5427 80.2296C69.3547 80.4981 69.1004 80.7087 68.7804 80.8616C68.4599 81.0137 68.115 81.0904 67.7446 81.0904C67.0555 81.0904 66.482 80.8563 66.0234 80.3886C65.5648 79.9213 65.3359 79.344 65.3359 78.6572C65.3359 77.959 65.5702 77.3752 66.0386 76.9063C66.507 76.4373 67.0927 76.2028 67.7961 76.2028C68.1579 76.2028 68.4894 76.2758 68.7914 76.4215C69.0931 76.5667 69.344 76.7765 69.5431 77.0507V76.3047H70.1325V80.9675H69.5431V80.2296H69.5427ZM69.5427 78.6061C69.5427 78.1115 69.3645 77.6799 69.0089 77.3111C68.6529 76.9428 68.2429 76.7582 67.779 76.7582C67.275 76.7582 66.8458 76.9428 66.491 77.3111C66.1367 77.6799 65.9593 78.1371 65.9593 78.6827C65.9593 79.2024 66.1358 79.6413 66.489 79.9987C66.8422 80.3562 67.2664 80.535 67.7618 80.535C68.24 80.535 68.6566 80.3464 69.0109 79.9687C69.3653 79.5914 69.5427 79.1371 69.5427 78.6061ZM67.6633 75.6811H67.2705L68.1632 74.1976H68.8123L67.6633 75.6811Z" fill="#4F4F4F"/>
<path d="M71.0928 80.9671V74.7952H71.6948V80.9671H71.0928Z" fill="#4F4F4F"/>
<path d="M72.4121 78.6397C72.4121 77.9557 72.6484 77.3711 73.1213 76.8851C73.5938 76.3991 74.1534 76.1557 74.7996 76.1557C75.4801 76.1557 76.0601 76.3951 76.54 76.8726C77.0199 77.35 77.2598 77.9196 77.2598 78.5809C77.2598 79.2762 77.0248 79.8697 76.5551 80.3614C76.0855 80.8531 75.5161 81.0985 74.8466 81.0985C74.166 81.0985 73.5901 80.8575 73.1188 80.376C72.6475 79.8945 72.4121 79.3156 72.4121 78.6397ZM73.044 78.6316C73.044 79.1679 73.2161 79.6182 73.5611 79.9817C73.9057 80.3448 74.334 80.5261 74.8466 80.5261C75.3506 80.5261 75.7736 80.3448 76.1153 79.9817C76.457 79.6182 76.6279 79.1655 76.6279 78.6227C76.6279 78.0718 76.455 77.6186 76.1088 77.2636C75.7626 76.9095 75.3236 76.7318 74.791 76.7318C74.3128 76.7318 73.902 76.9139 73.5586 77.2786C73.2153 77.6434 73.044 78.0945 73.044 78.6316Z" fill="#4F4F4F"/>
<path d="M78.7728 81.3484C78.8639 81.6198 79.029 81.8308 79.2681 81.9825C79.5073 82.1334 79.7975 82.2093 80.1392 82.2093C80.6746 82.2093 81.1038 82.0324 81.4267 81.6791C81.75 81.3261 81.9115 80.8543 81.9115 80.2637V80.1403C81.6838 80.4486 81.4247 80.6811 81.1341 80.8377C80.8439 80.9947 80.5234 81.073 80.1731 81.073C79.4668 81.073 78.8803 80.8393 78.4135 80.3716C77.9463 79.9038 77.7129 79.3209 77.7129 78.6227C77.7129 77.9359 77.9434 77.3598 78.4049 76.8929C78.8659 76.4272 79.437 76.1935 80.1175 76.1935C80.5132 76.1935 80.8557 76.2645 81.1447 76.4053C81.4337 76.546 81.6891 76.7671 81.9111 77.0665V76.3034H82.5005V80.1951C82.5005 81.0089 82.2949 81.6446 81.8833 82.1022C81.4717 82.5602 80.9043 82.789 80.1813 82.789C79.6487 82.789 79.1921 82.6584 78.8104 82.3967C78.4286 82.135 78.1825 81.7857 78.0714 81.3476H78.7728V81.3484ZM78.3542 78.5975C78.3542 79.1428 78.5287 79.5992 78.8774 79.9667C79.2261 80.3338 79.6466 80.5176 80.1392 80.5176C80.6035 80.5176 81.0135 80.3334 81.3691 79.9643C81.7251 79.5959 81.9029 79.1622 81.9029 78.6653C81.9029 78.1339 81.728 77.6803 81.3777 77.3047C81.0274 76.929 80.6146 76.7408 80.1392 76.7408C79.6495 76.7408 79.2293 76.9193 78.879 77.2767C78.5291 77.6345 78.3542 78.0746 78.3542 78.5975Z" fill="#4F4F4F"/>
<path d="M83.1797 78.6397C83.1797 77.9557 83.4159 77.3711 83.8884 76.8851C84.3609 76.3991 84.9205 76.1557 85.5667 76.1557C86.2473 76.1557 86.8277 76.3951 87.3075 76.8726C87.787 77.35 88.0273 77.9196 88.0273 78.5809C88.0273 79.2762 87.7923 79.8697 87.3223 80.3614C86.8522 80.8531 86.2828 81.0985 85.6137 81.0985C84.9332 81.0985 84.3573 80.8575 83.886 80.376C83.4151 79.8937 83.1797 79.3156 83.1797 78.6397ZM83.812 78.6316C83.812 79.1679 83.9841 79.6182 84.3286 79.9817C84.6732 80.3448 85.102 80.5261 85.6145 80.5261C86.1185 80.5261 86.5416 80.3448 86.8833 79.9817C87.225 79.6182 87.3958 79.1655 87.3958 78.6227C87.3958 78.0718 87.2229 77.6186 86.8767 77.2636C86.5305 76.9095 86.0915 76.7318 85.559 76.7318C85.0807 76.7318 84.67 76.9139 84.3266 77.2786C83.9833 77.6434 83.812 78.0945 83.812 78.6316Z" fill="#4F4F4F"/>
<path d="M96.2578 76.3935C95.9786 76.0093 95.6672 75.7261 95.3226 75.5456C94.978 75.3651 94.5848 75.2742 94.1438 75.2742C93.4518 75.2742 92.8599 75.5286 92.369 76.0373C91.8777 76.546 91.6321 77.1509 91.6321 77.8515C91.6321 78.5979 91.8765 79.2267 92.3645 79.7379C92.8526 80.249 93.4461 80.505 94.1438 80.505C94.5738 80.505 94.9621 80.4162 95.3099 80.2381C95.6574 80.0604 95.959 79.7947 96.2153 79.4413H96.9412C96.6567 79.9671 96.275 80.3736 95.7967 80.6604C95.3181 80.9472 94.7814 81.0908 94.1867 81.0908C93.2728 81.0908 92.51 80.7809 91.8994 80.1622C91.2887 79.5436 90.9834 78.7703 90.9834 77.8434C90.9834 77.4113 91.066 77.0016 91.2307 76.6142C91.3958 76.2272 91.6378 75.8783 91.9566 75.5675C92.253 75.2734 92.5853 75.0511 92.9539 74.8998C93.3222 74.7485 93.722 74.673 94.152 74.673C94.77 74.673 95.3259 74.8227 95.8196 75.1221C96.3138 75.4215 96.7046 75.8454 96.9923 76.3939H96.2578V76.3935Z" fill="#4F4F4F"/>
<path d="M97.5264 78.6397C97.5264 77.9557 97.7626 77.3711 98.2351 76.8851C98.7076 76.3991 99.2672 76.1557 99.9134 76.1557C100.594 76.1557 101.174 76.3951 101.654 76.8726C102.134 77.35 102.374 77.9196 102.374 78.5809C102.374 79.2762 102.139 79.8697 101.669 80.3614C101.199 80.8531 100.63 81.0985 99.9604 81.0985C99.2799 81.0985 98.704 80.8575 98.2327 80.376C97.7618 79.8937 97.5264 79.3156 97.5264 78.6397ZM98.1587 78.6316C98.1587 79.1679 98.3308 79.6182 98.6753 79.9817C99.0199 80.3448 99.4487 80.5261 99.9613 80.5261C100.465 80.5261 100.888 80.3448 101.23 79.9817C101.572 79.6182 101.743 79.1655 101.743 78.6227C101.743 78.0718 101.57 77.6186 101.223 77.2636C100.877 76.9095 100.438 76.7318 99.9057 76.7318C99.4274 76.7318 99.0166 76.9139 98.6733 77.2786C98.33 77.6434 98.1587 78.0945 98.1587 78.6316Z" fill="#4F4F4F"/>
<path d="M103.092 80.9671V74.7952H103.694V80.9671H103.092Z" fill="#4F4F4F"/>
<path d="M109.276 78.8267H105.035C105.072 79.3338 105.257 79.7444 105.59 80.0572C105.923 80.3699 106.339 80.5261 106.838 80.5261C107.19 80.5261 107.508 80.4353 107.79 80.2539C108.072 80.0726 108.29 79.8198 108.444 79.4961H109.127C108.911 80.0117 108.607 80.4081 108.215 80.6843C107.824 80.9606 107.37 81.0985 106.855 81.0985C106.171 81.0985 105.593 80.8572 105.121 80.374C104.648 79.8908 104.412 79.3103 104.412 78.632C104.412 77.9225 104.643 77.3363 105.106 76.8726C105.569 76.4089 106.16 76.1772 106.881 76.1772C107.587 76.1772 108.163 76.4186 108.609 76.9006C109.054 77.3829 109.277 78.0105 109.277 78.7829V78.8267H109.276ZM108.61 78.305C108.496 77.7862 108.287 77.3959 107.982 77.1338C107.678 76.8718 107.28 76.7403 106.791 76.7403C106.335 76.7403 105.949 76.8815 105.633 77.163C105.317 77.4446 105.123 77.8255 105.052 78.3046H108.61V78.305Z" fill="#4F4F4F"/>
<path d="M110.378 80.9671V76.9059H109.485V76.3043H110.378V74.7952H110.981V76.3043H111.873V76.9059H110.981V80.9671H110.378Z" fill="#4F4F4F"/>
<path d="M112.968 75.7574H112.365V74.7952H112.968V75.7574ZM112.366 80.9671V76.3043H112.968V80.9671H112.366Z" fill="#4F4F4F"/>
<path d="M115.776 80.9671H115.225L113.389 76.3043H114.025L115.528 80.0645L117.045 76.3043H117.698L115.776 80.9671Z" fill="#4F4F4F"/>
<path d="M117.857 78.6397C117.857 77.9557 118.094 77.3711 118.566 76.8851C119.039 76.3991 119.598 76.1557 120.244 76.1557C120.925 76.1557 121.505 76.3951 121.985 76.8726C122.465 77.35 122.705 77.9196 122.705 78.5809C122.705 79.2762 122.47 79.8697 122 80.3614C121.53 80.8531 120.961 81.0985 120.291 81.0985C119.611 81.0985 119.035 80.8575 118.564 80.376C118.093 79.8937 117.857 79.3156 117.857 78.6397ZM118.49 78.6316C118.49 79.1679 118.662 79.6182 119.006 79.9817C119.351 80.3448 119.78 80.5261 120.292 80.5261C120.796 80.5261 121.219 80.3448 121.561 79.9817C121.903 79.6182 122.074 79.1655 122.074 78.6227C122.074 78.0718 121.901 77.6186 121.554 77.2636C121.208 76.9095 120.769 76.7318 120.237 76.7318C119.758 76.7318 119.348 76.9139 119.004 77.2786C118.661 77.6434 118.49 78.0945 118.49 78.6316Z" fill="#4F4F4F"/>
<path d="M130.107 80.2296L130.034 74.7952H130.64V80.9671H129.905L126.493 75.5242L126.561 80.9671H125.959V74.7952H126.694L130.107 80.2296Z" fill="#4F4F4F"/>
<path d="M135.684 80.2296C135.497 80.4982 135.242 80.7087 134.922 80.8616C134.602 81.0138 134.257 81.0904 133.887 81.0904C133.197 81.0904 132.624 80.8564 132.165 80.3886C131.707 79.9213 131.478 79.344 131.478 78.6572C131.478 77.959 131.712 77.3753 132.18 76.9063C132.649 76.4373 133.234 76.2029 133.938 76.2029C134.299 76.2029 134.631 76.2759 134.933 76.4215C135.235 76.5667 135.486 76.7765 135.685 77.0507V76.3047H136.274V80.9675H135.685V80.2296H135.684ZM135.684 78.6061C135.684 78.1116 135.506 77.6799 135.15 77.3112C134.794 76.9428 134.385 76.7582 133.92 76.7582C133.417 76.7582 132.987 76.9428 132.633 77.3112C132.278 77.6799 132.101 78.1371 132.101 78.6828C132.101 79.2024 132.277 79.6414 132.631 79.9988C132.983 80.3562 133.408 80.5351 133.903 80.5351C134.382 80.5351 134.798 80.3464 135.153 79.9688C135.507 79.5915 135.684 79.1371 135.684 78.6061Z" fill="#4F4F4F"/>
<path d="M140.985 77.7371C140.8 77.398 140.574 77.1469 140.308 76.9846C140.042 76.8223 139.725 76.7408 139.358 76.7408C138.874 76.7408 138.464 76.9234 138.126 77.2881C137.788 77.6524 137.62 78.1035 137.62 78.6398C137.62 79.1769 137.789 79.6256 138.128 79.9858C138.467 80.346 138.885 80.5262 139.384 80.5262C139.748 80.5262 140.07 80.4373 140.349 80.2592C140.628 80.0811 140.84 79.8312 140.985 79.5087H141.651C141.47 80.0146 141.183 80.4061 140.793 80.6832C140.403 80.9606 139.943 81.0982 139.413 81.0982C138.733 81.0982 138.158 80.8588 137.69 80.3797C137.222 79.9006 136.987 79.3233 136.987 78.6479C136.987 77.9586 137.224 77.3741 137.698 76.8954C138.172 76.4159 138.749 76.1769 139.43 76.1769C139.94 76.1769 140.389 76.3132 140.778 76.5858C141.166 76.8588 141.457 77.2426 141.651 77.7371H140.985Z" fill="#4F4F4F"/>
<path d="M143.139 75.7574H142.536V74.7952H143.139V75.7574ZM142.536 80.9671V76.3043H143.139V80.9671H142.536Z" fill="#4F4F4F"/>
<path d="M143.855 78.6397C143.855 77.9557 144.092 77.3711 144.564 76.8851C145.037 76.3991 145.596 76.1557 146.243 76.1557C146.923 76.1557 147.503 76.3951 147.983 76.8726C148.463 77.35 148.703 77.9196 148.703 78.5809C148.703 79.2762 148.468 79.8697 147.998 80.3614C147.528 80.8531 146.959 81.0985 146.29 81.0985C145.609 81.0985 145.033 80.8575 144.562 80.376C144.091 79.8937 143.855 79.3156 143.855 78.6397ZM144.488 78.6316C144.488 79.1679 144.66 79.6182 145.004 79.9817C145.349 80.3448 145.778 80.5261 146.29 80.5261C146.794 80.5261 147.217 80.3448 147.559 79.9817C147.901 79.6182 148.072 79.1655 148.072 78.6227C148.072 78.0718 147.899 77.6186 147.553 77.2636C147.206 76.9095 146.767 76.7318 146.235 76.7318C145.757 76.7318 145.346 76.9139 145.002 77.2786C144.659 77.6434 144.488 78.0945 144.488 78.6316Z" fill="#4F4F4F"/>
<path d="M149.412 76.3043H149.997V76.8341C150.183 76.6227 150.397 76.4657 150.64 76.3639C150.883 76.2621 151.162 76.2114 151.475 76.2114C151.82 76.2114 152.127 76.2746 152.396 76.402C152.664 76.5294 152.877 76.7116 153.034 76.9493C153.143 77.1156 153.22 77.3116 153.267 77.5363C153.314 77.7606 153.337 78.0921 153.337 78.5298V80.9675H152.744V78.3562C152.744 77.8053 152.637 77.4053 152.426 77.1566C152.213 76.9079 151.874 76.7834 151.407 76.7834C151.134 76.7834 150.894 76.8381 150.687 76.9464C150.481 77.0556 150.318 77.2113 150.199 77.4146C150.124 77.542 150.072 77.6868 150.042 77.8491C150.013 78.0118 149.998 78.2949 149.998 78.699V80.9671H149.413V76.3043H149.412Z" fill="#4F4F4F"/>
<path d="M158.261 80.2296C158.074 80.4982 157.82 80.7087 157.499 80.8616C157.179 81.0138 156.834 81.0904 156.464 81.0904C155.774 81.0904 155.201 80.8564 154.743 80.3886C154.284 79.9213 154.055 79.344 154.055 78.6572C154.055 77.959 154.289 77.3753 154.757 76.9063C155.226 76.4373 155.811 76.2029 156.515 76.2029C156.877 76.2029 157.208 76.2759 157.51 76.4215C157.812 76.5667 158.063 76.7765 158.262 77.0507V76.3047H158.851V80.9675H158.262V80.2296H158.261ZM158.261 78.6061C158.261 78.1116 158.083 77.6799 157.728 77.3112C157.372 76.9428 156.962 76.7582 156.497 76.7582C155.994 76.7582 155.564 76.9428 155.21 77.3112C154.855 77.6799 154.678 78.1371 154.678 78.6828C154.678 79.2024 154.855 79.6414 155.208 79.9988C155.56 80.3562 155.985 80.5351 156.48 80.5351C156.959 80.5351 157.375 80.3464 157.73 79.9688C158.084 79.5915 158.261 79.1371 158.261 78.6061Z" fill="#4F4F4F"/>
<path d="M159.812 80.9671V74.7952H160.415V80.9671H159.812Z" fill="#4F4F4F"/>
<path d="M55.0513 87.4596V86.421V85.2125H55.6579V91.3845H55.0513V90.681C54.8404 90.9411 54.5788 91.1439 54.2653 91.2891C53.9522 91.4348 53.6203 91.5074 53.27 91.5074C52.5923 91.5074 52.0213 91.2701 51.5574 90.7954C51.0931 90.3204 50.8613 89.7386 50.8613 89.049C50.8613 88.3646 51.0906 87.7894 51.5488 87.3212C52.007 86.8531 52.5809 86.6198 53.27 86.6198C53.6403 86.6198 53.9767 86.6912 54.28 86.8336C54.5837 86.9768 54.8404 87.1853 55.0513 87.4596ZM55.0685 89.1001C55.0685 88.5683 54.8911 88.1151 54.5367 87.7395C54.1823 87.3634 53.7658 87.1756 53.2876 87.1756C52.7922 87.1756 52.3679 87.3541 52.0148 87.7119C51.6616 88.0693 51.4851 88.5066 51.4851 89.0234C51.4851 89.5691 51.6625 90.0271 52.0168 90.3971C52.3716 90.767 52.8004 90.9524 53.3048 90.9524C53.7687 90.9524 54.1787 90.767 54.5347 90.3971C54.8903 90.0271 55.0685 89.5946 55.0685 89.1001Z" fill="#4F4F4F"/>
<path d="M61.2184 89.2441H56.9773C57.014 89.7512 57.1992 90.1618 57.5323 90.4745C57.8655 90.7873 58.2811 90.9435 58.7794 90.9435C59.1325 90.9435 59.4501 90.8526 59.7318 90.6713C60.0138 90.4899 60.2316 90.2372 60.3853 89.9135H61.0688C60.8521 90.4291 60.5484 90.8254 60.1569 91.1017C59.7653 91.378 59.312 91.5159 58.7966 91.5159C58.1131 91.5159 57.5352 91.2741 57.0627 90.791C56.5898 90.3078 56.3535 89.7269 56.3535 89.049C56.3535 88.3395 56.5849 87.7533 57.0476 87.2896C57.5103 86.8259 58.1017 86.5942 58.8219 86.5942C59.5282 86.5942 60.1041 86.8356 60.5497 87.3176C60.9952 87.7999 61.2179 88.4275 61.2179 89.1999V89.2441H61.2184ZM60.5517 88.7228C60.4377 88.204 60.2284 87.8137 59.9239 87.5516C59.6194 87.2896 59.2221 87.1581 58.7324 87.1581C58.2766 87.1581 57.8908 87.2993 57.5748 87.5808C57.2589 87.8624 57.0651 88.2433 56.994 88.7224H60.5517V88.7228Z" fill="#4F4F4F"/>
<path d="M64.4043 85.2129H65.7241C66.1026 85.2129 66.4059 85.2327 66.634 85.2721C66.8621 85.3118 67.0513 85.3751 67.2022 85.4628C67.4752 85.6266 67.6853 85.8396 67.832 86.1009C67.9788 86.3621 68.0519 86.6567 68.0519 86.9845C68.0519 87.2956 67.9857 87.5832 67.8533 87.8473C67.7209 88.1114 67.5365 88.3211 67.3002 88.4769C67.1351 88.5869 66.9377 88.6668 66.7088 88.7167C66.4795 88.7658 66.1868 88.7905 65.8312 88.7905H65.0154V91.3852H64.4047V85.2129H64.4043ZM65.015 85.8189V88.1715H65.9162C66.4174 88.1715 66.7877 88.0773 67.0268 87.8879C67.2659 87.6984 67.3857 87.4059 67.3857 87.01C67.3857 86.5978 67.2655 86.296 67.0248 86.1053C66.7844 85.9143 66.3977 85.8193 65.8652 85.8193H65.015V85.8189Z" fill="#4F4F4F"/>
<path d="M68.624 86.7216H69.2175V89.1975C69.2175 89.8332 69.3213 90.2835 69.5294 90.5475C69.7374 90.8116 70.0792 90.9439 70.5545 90.9439C70.8251 90.9439 71.063 90.8895 71.2678 90.7808C71.4726 90.6721 71.6381 90.5147 71.7632 90.3082C71.8343 90.1869 71.8858 90.0433 71.9169 89.8778C71.9479 89.7123 71.9639 89.425 71.9639 89.0153V86.722H72.5664V91.3849H71.9639V90.8806C71.7816 91.1009 71.578 91.2607 71.3532 91.3597C71.1284 91.4583 70.8562 91.5078 70.5374 91.5078C69.8597 91.5078 69.3712 91.3264 69.0724 90.963C68.7736 90.5999 68.624 89.9974 68.624 89.1553V86.7216Z" fill="#4F4F4F"/>
<path d="M74.0989 85.2129V87.1585V87.5058C74.3524 87.204 74.6299 86.9805 74.932 86.8364C75.234 86.6924 75.5712 86.6202 75.9444 86.6202C76.605 86.6202 77.1637 86.8563 77.6207 87.3281C78.0776 87.7999 78.3061 88.3736 78.3061 89.0494C78.3061 89.7472 78.0727 90.3313 77.6056 90.8019C77.1388 91.2721 76.5522 91.5074 75.8459 91.5074C75.4985 91.5074 75.1805 91.4388 74.8915 91.3017C74.6025 91.1646 74.3385 90.9577 74.0994 90.681V91.3845H73.5059V85.2125H74.0989V85.2129ZM74.0989 89.1001C74.0989 89.5975 74.2763 90.0303 74.6307 90.3991C74.9855 90.7678 75.393 90.9524 75.8545 90.9524C76.3585 90.9524 76.7877 90.767 77.142 90.3971C77.4964 90.0271 77.6738 89.5691 77.6738 89.0234C77.6738 88.5066 77.4972 88.0689 77.1441 87.7119C76.7909 87.3541 76.3683 87.1756 75.8758 87.1756C75.3828 87.1756 74.9638 87.3622 74.6176 87.735C74.2718 88.1078 74.0989 88.563 74.0989 89.1001Z" fill="#4F4F4F"/>
<path d="M79.042 91.3848V85.2129H79.6441V91.3848H79.042Z" fill="#4F4F4F"/>
<path d="M81.2281 86.1751H80.626V85.2129H81.2281V86.1751ZM80.626 91.3848V86.722H81.2281V91.3848H80.626Z" fill="#4F4F4F"/>
<path d="M85.9598 88.1549C85.7746 87.8157 85.549 87.5646 85.2829 87.4024C85.0168 87.2401 84.7001 87.1585 84.3326 87.1585C83.8487 87.1585 83.4383 87.3411 83.1007 87.7058C82.763 88.0701 82.5942 88.5212 82.5942 89.0575C82.5942 89.5946 82.7639 90.0433 83.1027 90.4035C83.4415 90.7638 83.8601 90.9439 84.3584 90.9439C84.7229 90.9439 85.0446 90.8551 85.3234 90.677C85.6026 90.4993 85.8143 90.2486 85.9598 89.9265H86.626C86.4442 90.4324 86.1576 90.8238 85.7677 91.1009C85.3773 91.378 84.9175 91.5163 84.3878 91.5163C83.7072 91.5163 83.1334 91.2766 82.6645 90.7979C82.1961 90.3188 81.9619 89.7415 81.9619 89.066C81.9619 88.3768 82.199 87.7922 82.6731 87.3135C83.1473 86.834 83.7244 86.5951 84.405 86.5951C84.9147 86.5951 85.3639 86.7314 85.7526 87.004C86.1413 87.277 86.4323 87.6608 86.626 88.1553H85.9598V88.1549Z" fill="#4F4F4F"/>
<path d="M91.4704 90.6469C91.2828 90.9155 91.0286 91.126 90.7081 91.279C90.3881 91.4315 90.0427 91.5074 89.6728 91.5074C88.9832 91.5074 88.4098 91.2737 87.9516 90.806C87.493 90.3386 87.2637 89.7613 87.2637 89.0745C87.2637 88.3764 87.4979 87.7926 87.9663 87.3236C88.4347 86.8547 89.0204 86.6202 89.7239 86.6202C90.0856 86.6202 90.4171 86.6932 90.7192 86.8388C91.0208 86.9841 91.2718 87.1938 91.4708 87.468V86.722H92.0602V91.3849H91.4708V90.6469H91.4704ZM91.4704 89.0234C91.4704 88.5289 91.2922 88.0972 90.9366 87.7285C90.5806 87.3601 90.1706 87.1755 89.7063 87.1755C89.2027 87.1755 88.7731 87.3601 88.4188 87.7285C88.0644 88.0972 87.887 88.5544 87.887 89.1001C87.887 89.6198 88.0636 90.0587 88.4167 90.4161C88.7695 90.7739 89.1937 90.9524 89.6891 90.9524C90.1678 90.9524 90.5839 90.7634 90.9387 90.3861C91.2934 90.0088 91.4704 89.5549 91.4704 89.0234Z" fill="#4F4F4F"/>
<path d="M96.7694 88.1549C96.5842 87.8157 96.3586 87.5646 96.0925 87.4024C95.8264 87.2401 95.5096 87.1585 95.1422 87.1585C94.6582 87.1585 94.2479 87.3411 93.9098 87.7058C93.5726 88.0701 93.4038 88.5212 93.4038 89.0575C93.4038 89.5946 93.5734 90.0433 93.9123 90.4035C94.2511 90.7638 94.6697 90.9439 95.1679 90.9439C95.5325 90.9439 95.8542 90.8551 96.133 90.677C96.4122 90.4993 96.6239 90.2486 96.7694 89.9265H97.4356C97.2538 90.4323 96.9672 90.8238 96.5773 91.1009C96.1869 91.378 95.7271 91.5163 95.1974 91.5163C94.5168 91.5163 93.9425 91.2766 93.4741 90.7979C93.0057 90.3192 92.7715 89.7415 92.7715 89.066C92.7715 88.3768 93.0085 87.7922 93.4823 87.3135C93.9564 86.834 94.5336 86.5951 95.2141 86.5951C95.7238 86.5951 96.173 86.7314 96.5618 87.004C96.9505 87.277 97.2415 87.6608 97.4352 88.1553H96.7694V88.1549ZM95.181 91.8555H95.2664C95.571 91.8555 95.8035 91.9175 95.9646 92.0417C96.1256 92.1662 96.2061 92.3471 96.2061 92.5845C96.2061 92.8218 96.1219 93.0055 95.954 93.1354C95.786 93.2652 95.5456 93.3301 95.2321 93.3301C95.0698 93.3301 94.9039 93.3175 94.7347 93.2919C94.565 93.2664 94.3721 93.2242 94.1559 93.165V92.8343C94.4179 92.8911 94.6247 92.9297 94.7776 92.9512C94.9296 92.9723 95.0613 92.9828 95.1724 92.9828C95.3547 92.9828 95.4921 92.9512 95.5849 92.8875C95.6776 92.8242 95.7238 92.7285 95.7238 92.6015C95.7238 92.4457 95.6748 92.3329 95.5763 92.2623C95.4782 92.1914 95.3237 92.1561 95.1128 92.1561C95.0588 92.1561 95.0183 92.1569 94.9914 92.1585C94.9644 92.1597 94.9378 92.1621 94.9125 92.165V91.3849H95.1814V91.8555H95.181Z" fill="#4F4F4F"/>
<path d="M98.0557 89.0571C98.0557 88.3731 98.2919 87.7885 98.7644 87.3025C99.2369 86.8165 99.7965 86.5731 100.443 86.5731C101.123 86.5731 101.704 86.8125 102.184 87.2899C102.663 87.7674 102.903 88.337 102.903 88.9982C102.903 89.6936 102.668 90.2871 102.198 90.7788C101.728 91.2704 101.159 91.5163 100.49 91.5163C99.8092 91.5163 99.2332 91.2753 98.762 90.7934C98.2911 90.3114 98.0557 89.7329 98.0557 89.0571ZM98.688 89.0494C98.688 89.5861 98.8601 90.0364 99.2046 90.399C99.5492 90.7625 99.978 90.9439 100.491 90.9439C100.995 90.9439 101.418 90.7625 101.759 90.399C102.101 90.036 102.272 89.5832 102.272 89.0404C102.272 88.4895 102.099 88.0364 101.753 87.6814C101.407 87.3273 100.968 87.1496 100.435 87.1496C99.9567 87.1496 99.5459 87.3317 99.2026 87.6964C98.8593 88.0611 98.688 88.5122 98.688 89.0494ZM101.758 85.0307C101.684 85.2879 101.579 85.4822 101.443 85.6137C101.306 85.7447 101.139 85.8104 100.943 85.8104C100.903 85.8104 100.86 85.8072 100.815 85.8003C100.769 85.7934 100.719 85.7828 100.665 85.7687L100.251 85.6372C100.209 85.6263 100.169 85.6173 100.134 85.6117C100.098 85.606 100.061 85.6031 100.025 85.6031C99.9391 85.6031 99.8627 85.6299 99.7957 85.6839C99.729 85.7374 99.6739 85.8153 99.6314 85.9167H99.2896C99.3493 85.6624 99.4515 85.4685 99.595 85.3338C99.7393 85.1995 99.9146 85.1321 100.123 85.1321C100.168 85.1321 100.209 85.1362 100.247 85.1431C100.284 85.15 100.318 85.1589 100.349 85.1703L100.759 85.2972C100.796 85.3114 100.836 85.3228 100.879 85.3313C100.921 85.3398 100.961 85.3439 100.998 85.3439C101.092 85.3439 101.172 85.3187 101.238 85.2693C101.303 85.2202 101.36 85.1403 101.409 85.0299H101.758V85.0307Z" fill="#4F4F4F"/>
<path d="M108.221 89.2441H103.98C104.018 89.7512 104.203 90.1618 104.535 90.4745C104.869 90.7873 105.284 90.9435 105.783 90.9435C106.136 90.9435 106.454 90.8526 106.735 90.6713C107.017 90.4899 107.235 90.2372 107.389 89.9135H108.072C107.856 90.4291 107.552 90.8254 107.16 91.1017C106.769 91.378 106.315 91.5159 105.8 91.5159C105.117 91.5159 104.539 91.2741 104.066 90.791C103.594 90.3078 103.357 89.7269 103.357 89.049C103.357 88.3395 103.589 87.7533 104.051 87.2896C104.514 86.8259 105.106 86.5942 105.826 86.5942C106.533 86.5942 107.108 86.8356 107.554 87.3176C107.999 87.7999 108.222 88.4275 108.222 89.1999V89.2441H108.221ZM107.555 88.7228C107.442 88.204 107.232 87.8137 106.927 87.5516C106.623 87.2896 106.226 87.1581 105.736 87.1581C105.281 87.1581 104.894 87.2993 104.578 87.5808C104.262 87.8624 104.069 88.2433 103.998 88.7224H107.555V88.7228Z" fill="#4F4F4F"/>
<path d="M108.614 89.918H109.234V89.935C109.234 90.2259 109.318 90.4668 109.486 90.6575C109.654 90.8482 109.861 90.9435 110.109 90.9435C110.345 90.9435 110.542 90.8701 110.698 90.7232C110.855 90.5764 110.933 90.3914 110.933 90.1679C110.933 89.9447 110.871 89.7654 110.747 89.6295C110.623 89.494 110.399 89.3671 110.075 89.2482C109.554 89.0644 109.214 88.8766 109.054 88.6843C108.895 88.492 108.815 88.2352 108.815 87.9131C108.815 87.5488 108.948 87.2389 109.214 86.9845C109.481 86.7302 109.803 86.6036 110.182 86.6036C110.583 86.6036 110.902 86.7164 111.139 86.9427C111.375 87.1687 111.502 87.4839 111.519 87.888H110.874C110.86 87.6673 110.789 87.4965 110.662 87.3748C110.535 87.2531 110.363 87.1926 110.143 87.1926C109.947 87.1926 109.783 87.2579 109.652 87.3894C109.521 87.5208 109.456 87.6843 109.456 87.879C109.456 88.0178 109.483 88.1342 109.537 88.2287C109.591 88.3232 109.681 88.4088 109.806 88.4851C109.92 88.5557 110.086 88.6239 110.304 88.6888C110.521 88.7537 110.667 88.8015 110.741 88.8328C111.034 88.9573 111.25 89.1224 111.388 89.3289C111.527 89.535 111.596 89.7979 111.596 90.1172C111.596 90.5184 111.455 90.8506 111.173 91.1131C110.891 91.376 110.534 91.5074 110.101 91.5074C109.659 91.5074 109.305 91.3638 109.037 91.077C108.77 90.7906 108.629 90.4044 108.614 89.918Z" fill="#4F4F4F"/>
<path d="M114.552 89.6214H115.141C115.152 90.0027 115.261 90.3066 115.468 90.5325C115.674 90.7589 115.945 90.8717 116.281 90.8717C116.643 90.8717 116.93 90.7597 117.142 90.535C117.353 90.3102 117.46 90.0056 117.46 89.6214C117.46 89.062 117.024 88.6393 116.153 88.3537C116.085 88.3314 116.033 88.3139 115.999 88.303C115.543 88.1476 115.215 87.9504 115.015 87.7119C114.814 87.4729 114.714 87.1614 114.714 86.7768C114.714 86.2851 114.868 85.8823 115.177 85.5683C115.486 85.2551 115.885 85.0981 116.375 85.0981C116.842 85.0981 117.213 85.2413 117.486 85.5265C117.759 85.8117 117.912 86.2129 117.943 86.7302H117.366C117.335 86.3943 117.234 86.1346 117.063 85.9525C116.892 85.7703 116.663 85.679 116.375 85.679C116.068 85.679 115.816 85.7784 115.621 85.9776C115.426 86.1768 115.329 86.4304 115.329 86.7387C115.329 86.8993 115.358 87.0389 115.416 87.1561C115.475 87.2733 115.568 87.38 115.696 87.4762C115.827 87.5719 116.078 87.6798 116.448 87.7983C116.661 87.866 116.824 87.9212 116.935 87.9634C117.339 88.1188 117.63 88.3176 117.808 88.5593C117.986 88.8011 118.075 89.118 118.075 89.5111C118.075 90.1102 117.911 90.5926 117.582 90.9585C117.253 91.3244 116.817 91.5074 116.273 91.5074C115.766 91.5074 115.355 91.3342 115.038 90.9885C114.723 90.6425 114.56 90.1869 114.552 89.6214Z" fill="#4F4F4F"/>
<path d="M123.461 89.2441H119.22C119.257 89.7512 119.442 90.1618 119.775 90.4745C120.108 90.7873 120.523 90.9435 121.022 90.9435C121.375 90.9435 121.693 90.8526 121.975 90.6713C122.256 90.4899 122.474 90.2372 122.628 89.9135H123.312C123.095 90.4291 122.791 90.8254 122.4 91.1017C122.008 91.378 121.555 91.5159 121.039 91.5159C120.356 91.5159 119.778 91.2741 119.305 90.791C118.833 90.3078 118.597 89.7269 118.597 89.049C118.597 88.3395 118.828 87.7533 119.291 87.2896C119.753 86.8259 120.345 86.5942 121.065 86.5942C121.772 86.5942 122.347 86.8356 122.793 87.3176C123.239 87.7999 123.462 88.4275 123.462 89.1999V89.2441H123.461ZM122.794 88.7228C122.681 88.204 122.471 87.8137 122.167 87.5516C121.862 87.2896 121.465 87.1581 120.975 87.1581C120.52 87.1581 120.134 87.2993 119.818 87.5808C119.502 87.8624 119.308 88.2433 119.237 88.7224H122.794V88.7228Z" fill="#4F4F4F"/>
<path d="M124.755 91.3849H124.145V86.722H124.713V87.2604C124.861 87.0543 125.023 86.9029 125.197 86.8068C125.373 86.7107 125.577 86.6599 125.811 86.6543L125.815 87.3029C125.436 87.3366 125.165 87.449 125.001 87.6401C124.838 87.8307 124.756 88.1407 124.756 88.5703V91.3849H124.755Z" fill="#4F4F4F"/>
<path d="M126.95 86.1751H126.348V85.2129H126.95V86.1751ZM126.348 91.3848V86.722H126.951V91.3848H126.348Z" fill="#4F4F4F"/>
<path d="M131.892 90.6469C131.705 90.9155 131.45 91.126 131.13 91.279C130.81 91.4315 130.465 91.5074 130.095 91.5074C129.405 91.5074 128.832 91.2737 128.373 90.806C127.915 90.3386 127.686 89.7613 127.686 89.0745C127.686 88.3764 127.92 87.7926 128.388 87.3236C128.857 86.8547 129.442 86.6202 130.146 86.6202C130.508 86.6202 130.839 86.6932 131.141 86.8388C131.443 86.9841 131.694 87.1938 131.893 87.468V86.722H132.482V91.3849H131.893V90.6469H131.892ZM131.892 89.0234C131.892 88.5289 131.714 88.0972 131.359 87.7285C131.002 87.3601 130.593 87.1755 130.128 87.1755C129.625 87.1755 129.195 87.3601 128.841 87.7285C128.486 88.0972 128.309 88.5544 128.309 89.1001C128.309 89.6198 128.485 90.0587 128.839 90.4161C129.191 90.7739 129.616 90.9524 130.111 90.9524C130.59 90.9524 131.006 90.7634 131.361 90.3861C131.715 90.0088 131.892 89.5549 131.892 89.0234Z" fill="#4F4F4F"/>
<path d="M137.384 87.4596V86.421V85.2125H137.991V91.3845H137.384V90.681C137.173 90.9411 136.911 91.1439 136.598 91.2891C136.285 91.4348 135.953 91.5074 135.603 91.5074C134.925 91.5074 134.354 91.2701 133.89 90.7954C133.426 90.3204 133.194 89.7386 133.194 89.049C133.194 88.3646 133.424 87.7894 133.882 87.3212C134.34 86.8535 134.914 86.6198 135.603 86.6198C135.973 86.6198 136.31 86.6912 136.613 86.8336C136.916 86.9768 137.173 87.1853 137.384 87.4596ZM137.401 89.1001C137.401 88.5683 137.224 88.1151 136.869 87.7395C136.515 87.3638 136.098 87.1756 135.62 87.1756C135.124 87.1756 134.7 87.3541 134.347 87.7119C133.994 88.0693 133.818 88.5066 133.818 89.0234C133.818 89.5691 133.995 90.0271 134.349 90.3971C134.704 90.767 135.133 90.9524 135.637 90.9524C136.101 90.9524 136.511 90.767 136.867 90.3971C137.223 90.0271 137.401 89.5946 137.401 89.1001Z" fill="#4F4F4F"/>
<path d="M142.911 90.6469C142.723 90.9155 142.469 91.126 142.149 91.279C141.829 91.4315 141.483 91.5074 141.113 91.5074C140.424 91.5074 139.85 91.2737 139.392 90.806C138.933 90.3386 138.704 89.7613 138.704 89.0745C138.704 88.3764 138.938 87.7926 139.407 87.3236C139.875 86.8547 140.461 86.6202 141.164 86.6202C141.526 86.6202 141.858 86.6932 142.16 86.8388C142.461 86.9841 142.712 87.1938 142.911 87.468V86.722H143.501V91.3849H142.911V90.6469H142.911ZM142.911 89.0234C142.911 88.5289 142.733 88.0972 142.377 87.7285C142.021 87.3601 141.611 87.1755 141.147 87.1755C140.643 87.1755 140.214 87.3601 139.859 87.7285C139.505 88.0972 139.327 88.5544 139.327 89.1001C139.327 89.6198 139.504 90.0587 139.857 90.4161C140.21 90.7739 140.634 90.9524 141.13 90.9524C141.608 90.9524 142.024 90.7634 142.379 90.3861C142.734 90.0088 142.911 89.5549 142.911 89.0234Z" fill="#4F4F4F"/>
<path d="M144.154 89.918H144.774V89.935C144.774 90.2259 144.858 90.4668 145.026 90.6575C145.194 90.8482 145.401 90.9435 145.649 90.9435C145.885 90.9435 146.082 90.8701 146.238 90.7232C146.395 90.5764 146.473 90.3914 146.473 90.1679C146.473 89.9447 146.411 89.7654 146.288 89.6295C146.163 89.494 145.939 89.3671 145.615 89.2482C145.094 89.0644 144.754 88.8766 144.594 88.6843C144.435 88.492 144.355 88.2352 144.355 87.9131C144.355 87.5488 144.488 87.2389 144.754 86.9845C145.021 86.7302 145.343 86.6036 145.722 86.6036C146.123 86.6036 146.442 86.7164 146.679 86.9427C146.915 87.1687 147.042 87.4839 147.059 87.888H146.414C146.4 87.6673 146.329 87.4965 146.202 87.3748C146.075 87.2531 145.903 87.1926 145.683 87.1926C145.487 87.1926 145.323 87.2579 145.192 87.3894C145.061 87.5208 144.996 87.6843 144.996 87.879C144.996 88.0178 145.023 88.1342 145.077 88.2287C145.131 88.3232 145.221 88.4088 145.346 88.4851C145.46 88.5557 145.626 88.6239 145.844 88.6888C146.061 88.7537 146.207 88.8015 146.281 88.8328C146.574 88.9573 146.79 89.1224 146.928 89.3289C147.067 89.535 147.136 89.7979 147.136 90.1172C147.136 90.5184 146.995 90.8506 146.713 91.1131C146.431 91.376 146.074 91.5074 145.641 91.5074C145.199 91.5074 144.845 91.3638 144.577 91.077C144.31 90.7906 144.169 90.4044 144.154 89.918Z" fill="#4F4F4F"/>
<path d="M46.1883 88.6615V30.2588C46.1883 30.2588 36.1611 26.0483 27.2865 23.4888C18.7944 21.0394 2.36914 18.9209 2.36914 18.9209V68.1226C2.36914 68.1226 32.8225 79.1691 46.1883 88.6615Z" fill="white" stroke="#00A79D" stroke-width="3" stroke-miterlimit="10"/>
<path d="M38.2268 90.7114V32.309C38.2268 32.309 29.687 26.9703 21.9348 24.1691C14.0955 21.3363 2.36914 18.9205 2.36914 18.9205V68.1222C2.36914 68.1226 27.7585 78.206 38.2268 90.7114Z" fill="white" stroke="#00A79D" stroke-width="3" stroke-miterlimit="10"/>
<path d="M30.5637 96.685V38.2826C30.5637 38.2826 23.2186 30.0304 16.111 25.5866C9.00302 21.1428 2.36914 18.9209 2.36914 18.9209V73.5314C2.36914 73.5314 20.0955 84.1796 30.5637 96.685Z" fill="white" stroke="#00A79D" stroke-width="3" stroke-miterlimit="10"/>
<path d="M77.1276 53.2135V64.8406C74.7631 65.5984 72.6442 65.9781 70.7713 65.9781C64.2919 65.9781 59.038 63.5636 55.0094 58.734C50.9816 53.9052 48.9678 47.5531 48.9678 39.6794C48.9678 32.3687 51 26.335 55.065 21.5785C59.1299 16.8231 64.267 14.4451 70.4758 14.4451C72.8902 14.4451 75.1076 14.7631 77.1272 15.3988V27.0624C74.9838 26.3537 72.9634 25.9987 71.0668 25.9987C68.1594 25.9987 65.745 27.3192 63.8239 29.9602C61.902 32.6007 60.9407 35.963 60.9407 40.0465C60.9407 44.4477 61.9077 47.9263 63.8419 50.4813C65.7757 53.0371 68.3565 54.3145 71.5839 54.3145C73.1612 54.3141 75.0091 53.947 77.1276 53.2135Z" fill="white"/>
<path d="M110.277 53.2136V64.8407C107.912 65.5985 105.792 65.9782 103.921 65.9782C97.4405 65.9782 92.1874 63.5636 88.1588 58.734C84.1307 53.9053 82.1172 47.5532 82.1172 39.6794C82.1172 32.3687 84.1499 26.3351 88.2148 21.5785C92.2789 16.8232 97.4164 14.4451 103.625 14.4451C106.038 14.4451 108.257 14.7632 110.276 15.3989V27.0625C108.133 26.3538 106.113 25.9988 104.216 25.9988C101.309 25.9988 98.894 27.3193 96.9729 29.9602C95.0506 32.6008 94.09 35.963 94.09 40.0466C94.09 44.4477 95.0567 47.9264 96.9913 50.4814C98.9246 53.0371 101.506 54.3146 104.733 54.3146C106.31 54.3142 108.158 53.9471 110.277 53.2136Z" fill="white"/>
<path d="M117.521 15.8021H128.829L143.057 44.0441L142.65 38.7626V15.8021H153.848V64.7672H142.355L128.422 36.965L128.717 43.0534V64.7668H117.521V15.8021Z" fill="white"/>
<path d="M161.761 65.9449L147.101 69.4621C147.101 69.4621 148.63 66.656 149.84 64.3214C151.468 61.181 151.402 57.564 151.402 57.564C151.402 57.564 160.872 62.2601 161.761 65.9449Z" fill="#0E9383"/>
<path d="M161.761 65.637L147.791 69.1635C147.791 69.1635 149.905 66.1907 150.843 63.7356C152.065 60.534 152.236 58.7178 152.236 58.7178C152.236 58.7178 160.872 61.9522 161.761 65.637Z" fill="white"/>
</svg>
